{
.appVersion = "3149";
.formatVersion = 3;
axes = (
{
name = Weight;
tag = wght;
},
{
name = Width;
tag = wdth;
}
);
classes = (
{
automatic = 1;
code = "";
name = xxxx;
}
);
customParameters = (
{
name = "Use Typo Metrics";
value = 1;
},
{
name = fsType;
value = (
);
},
{
name = "Variable Font Origin";
value = master01;
}
);
date = "2017-05-31 15:56:58 +0000";
familyName = "Mona Sans";
featurePrefixes = (
{
automatic = 1;
code = "languagesystem DFLT dflt;

languagesystem latn dflt;
";
name = Languagesystems;
}
);
features = (
{
automatic = 1;
code = "feature subs;
feature sinf;
feature sups;
feature numr;
feature dnom;
feature frac;
feature ordn;
feature pnum;
feature tnum;
feature case;
feature ss01;
feature ss03;
";
tag = aalt;
},
{
automatic = 1;
code = "lookup ccmp_Other_1 {
	@CombiningTopAccents = [acutecomb brevecomb caroncomb circumflexcomb dieresiscomb dotaccentcomb gravecomb hungarumlautcomb macroncomb ringcomb tildecomb];
	@CombiningNonTopAccents = [cedillacomb ogonekcomb slashlongcomb slashshortcomb];
	sub [i j]' @CombiningTopAccents by [idotless jdotless];
	sub [i j]' @CombiningNonTopAccents @CombiningTopAccents by [idotless jdotless];
} ccmp_Other_1;

lookup ccmp_latn_1 {
	sub fl by f l;
} ccmp_latn_1;

script latn;
lookup ccmp_latn_1;
";
tag = ccmp;
},
{
automatic = 1;
code = "sub zero by zeroinferior;
sub one by oneinferior;
sub two by twoinferior;
sub three by threeinferior;
sub four by fourinferior;
sub five by fiveinferior;
sub six by sixinferior;
sub seven by seveninferior;
sub eight by eightinferior;
sub nine by nineinferior;
";
tag = subs;
},
{
automatic = 1;
code = "sub zero by zeroinferior;
sub one by oneinferior;
sub two by twoinferior;
sub three by threeinferior;
sub four by fourinferior;
sub five by fiveinferior;
sub six by sixinferior;
sub seven by seveninferior;
sub eight by eightinferior;
sub nine by nineinferior;
";
tag = sinf;
},
{
automatic = 1;
code = "sub zero by zerosuperior;
sub one by onesuperior;
sub two by twosuperior;

glyphs = (
{
glyphname = A;
kernLeft = A;
kernRight = A;
lastChange = "2022-12-13 14:31:45 +0000";
layers = (
{
anchors = (
{
name = bottom;
pos = (250,0);
},
{
name = ogonek;
pos = (450,10);
},
{
name = top;
pos = (250,729);
}
);
layerId = "E787E54A-EE3E-475A-BF02-8501A6DA5144";
shapes = (
{
closed = 1;
nodes = (
(186,0,l),
(200,120,l),
(298,120,l),
(313,0,l),
(488,0,l),
(374,729,l),
(123,729,l),
(11,0,l)
);
},
{
closed = 1;
nodes = (
(232,413,l),
(245,563,l),
(252,563,l),
(267,414,l),
(283,260,l),
(214,260,l)
);
}
);
width = 500;
},
{
anchors = (
{
name = bottom;
pos = (195,0);
},
{
name = ogonek;
pos = (351,10);
},
{
name = top;
pos = (195,729);
}
);
layerId = "5713303B-ED49-44A7-8230-B5CAE56DEB7E";
shapes = (
{
closed = 1;
nodes = (
(44,0,l),
(88,205,l),
(303,205,l),
(346,0,l),
(378,0,l),
(215,729,l),
(175,729,l),
(12,0,l)
);
},
{
closed = 1;
nodes = (
(164,556,l),
(194,694,l),
(198,694,l),
(228,557,l),
(295,231,l),
(96,231,l)
);
}
);
width = 390;
},
{
anchors = (
{
name = bottom;
pos = (315,0);
},
{
name = ogonek;
pos = (566,10);
},
{
name = top;
pos = (315,729);
}
);
layerId = master01;
shapes = (
{
closed = 1;
nodes = (
(48,0,l),
(124,200,l),
(506,200,l),
(583,0,l),
(623,0,l),
(340,729,l),
(290,729,l),
(7,0,l)
);
},
{
closed = 1;
nodes = (
(247,516,l),
(314,690,l),
(318,690,l),
(384,516,l),
(493,233,l),
(137,233,l)
);
}
);
userData = {
com.schriftgestaltung.hints = (
{
horizontal = 1;
options = 0;
origin = (
0,
7
);
stem = -2;
target = (
u,
p
);
type = BottomGhost;
},
{
horizontal = 1;
options = 0;
origin = (
1,
3
);
stem = -2;
target = (
0,
1
);
type = Stem;
},
{
horizontal = 1;
options = 0;
origin = (
0,
6
);
stem = -2;
target = (
1,
0
);
type = Stem;
}
);
};
width = 629;
},
{
anchors = (
{
name = bottom;
pos = (370,0);
},
{
name = ogonek;
pos = (665,10);
},
{
name = top;
pos = (370,729);
}
);
layerId = "1EDCBF6C-9964-4A28-BC87-E86B534B8BE7";
shapes = (
{
closed = 1;
nodes = (
(209,0,l),
(247,130,l),
(492,130,l),
(530,0,l),
(741,0,l),
(514,729,l),
(225,729,l),
(-2,0,l)
);
},
{
closed = 1;
nodes = (
(335,431,l),
(366,547,l),
(373,547,l),
(404,431,l),
(447,284,l),
(292,284,l)
);
}
);
width = 739;
},
{
anchors = (
{
name = bottom;
pos = (401,0);
},
{
name = ogonek;
pos = (722,10);
},
{
name = top;
pos = (401,729);
}
);
layerId = "28A8A76A-23B4-40F5-83B9-DC51E48BF161";
shapes = (
{
closed = 1;
nodes = (
(56,0,l),
(155,200,l),
(646,200,l),
(745,0,l),
(786,0,l),
(424,729,l),
(377,729,l),
(15,0,l)
);
},
{
closed = 1;
nodes = (
(354,595,l),
(400,690,l),
(403,690,l),
(447,598,l),
(630,233,l),
(173,233,l)
);
}
);
width = 802;
},
{
anchors = (
{
name = bottom;
pos = (437,0);
},
{
name = ogonek;
pos = (787,10);
},
{
name = top;
pos = (437,729);
}
);
layerId = "D2144554-01B8-4B9B-B16A-E0E5B5794DFC";
shapes = (
{
closed = 1;
nodes = (
(242,0,l),
(285,124,l),
(586,124,l),
(630,0,l),
(879,0,l),
(585,729,l),
(287,729,l),
(-5,0,l)
);
},
{
closed = 1;
nodes = (
(406,466,l),
(432,547,l),
(439,547,l),
(467,464,l),
(526,293,l),
(346,293,l)
);
}
);
width = 874;
}
);
unicode = 65;
},
{
glyphname = AE;
kernLeft = A;
kernRight = AE;
lastChange = "2022-12-13 14:31:45 +0000";
layers = (
{
anchors = (
{
name = bottom;
pos = (230,0);
},
{
name = top;
pos = (230,729);
}
);
layerId = "5713303B-ED49-44A7-8230-B5CAE56DEB7E";
shapes = (
{
closed = 1;
nodes = (
(44,0,l),
(88,205,l),
(204,205,l),
(204,0,l),
(440,0,l),
(440,28,l),
(234,28,l),
(234,361,l),
(409,361,l),
(409,389,l),
(234,389,l),
(234,701,l),
(440,701,l),
(440,729,l),
(175,729,l),
(12,0,l)
);
},
{
closed = 1;
nodes = (
(164,556,l),
(194,694,l),
(204,694,l),
(204,231,l),
(96,231,l)
);
}
);
width = 460;
},
{
anchors = (
{
name = bottom;
pos = (299,0);
},
{
name = top;
pos = (299,729);
}
);
layerId = "E787E54A-EE3E-475A-BF02-8501A6DA5144";
shapes = (
{
closed = 1;
nodes = (
(186,0,l),
(200,120,l),
(256,120,l),
(256,0,l),
(580,0,l),
(580,157,l),
(425,157,l),
(425,299,l),
(566,299,l),
(566,445,l),
(425,445,l),
(425,572,l),
(580,572,l),
(580,729,l),
(123,729,l),
(11,0,l)
);
},
{
closed = 1;
nodes = (
(232,413,l),
(245,563,l),
(256,563,l),
(256,260,l),
(214,260,l)
);
}
);
width = 598;
},
{
anchors = (
{
name = bottom;
pos = (427,0);
},
{
name = top;
pos = (427,729);
}
);
layerId = master01;
shapes = (
{
closed = 1;
nodes = (
(48,0,l),
(124,200,l),
(319,200,l),
(319,0,l),
(799,0,l),
(799,37,l),
(356,37,l),
(356,358,l),
(751,358,l),
(751,392,l),
(356,392,l),
(356,693,l),
(799,693,l),
(799,729,l),
(290,729,l),
(7,0,l)
);
},
{
closed = 1;
nodes = (
(247,516,l),
(314,690,l),
(319,690,l),
(319,233,l),
(137,233,l)
);
}
);
width = 853;
},
{
anchors = (
{
name = bottom;
pos = (505,0);
},
{
name = top;
pos = (505,729);
}
);
layerId = "1EDCBF6C-9964-4A28-BC87-E86B534B8BE7";
shapes = (
{
closed = 1;
nodes = (
(209,0,l),
(247,130,l),
(417,130,l),
(417,0,l),
(964,0,l),
(964,172,l),
(614,172,l),
(614,288,l),
(911,288,l),
(911,449,l),
(614,449,l),
(614,557,l),
(961,557,l),
(961,729,l),
(225,729,l),
(-2,0,l)
);
},
{
closed = 1;
nodes = (
(335,431,l),
(366,547,l),
(417,547,l),
(417,284,l),
(292,284,l)
);
}
);
width = 1009;
},
{
anchors = (
{
name = bottom;
pos = (502,0);
},
{
name = top;
pos = (502,729);
}
);
layerId = "28A8A76A-23B4-40F5-83B9-DC51E48BF161";
shapes = (
{
closed = 1;
nodes = (
(56,0,l),
(156,200,l),
(406,200,l),
(406,0,l),
(972,0,l),
(972,37,l),
(444,37,l),
(444,358,l),
(924,358,l),
(924,392,l),
(444,392,l),
(444,693,l),
(972,693,l),
(972,729,l),
(382,729,l),
(15,0,l)
);
},
{
closed = 1;
nodes = (
(354,595,l),
(400,690,l),
(406,690,l),
(406,233,l),
(173,233,l)
);
}
);
width = 1004;
},
{
anchors = (
{
name = bottom;
pos = (552,0);
},
{
name = top;
pos = (552,729);
}
);
layerId = "D2144554-01B8-4B9B-B16A-E0E5B5794DFC";
shapes = (
{
closed = 1;
nodes = (
(242,0,l),
(285,124,l),
(441,124,l),
(441,0,l),
(1076,0,l),
(1076,179,l),
(664,179,l),
(664,282,l),
(1023,282,l),
(1023,449,l),
(664,449,l),
(664,550,l),
(1073,550,l),
(1073,729,l),
(287,729,l),
(-5,0,l)
);
},
{
closed = 1;
nodes = (
(406,466,l),
(432,547,l),
(441,547,l),
(441,293,l),
(346,293,l)
);
}
);
width = 1103;
}
);
metricLeft = A;
metricRight = E;
unicode = 198;
},
{
glyphname = B;
kernLeft = B;
kernRight = B;
lastChange = "2022-12-13 14:31:45 +0000";
layers = (
{
anchors = (
{
name = bottom;
pos = (231,0);
},
{
name = center;
pos = (231,365);
},
{
name = top;
pos = (231,729);
}
);
layerId = "E787E54A-EE3E-475A-BF02-8501A6DA5144";
shapes = (
{
closed = 1;
nodes = (
(225,0,ls),
(369,0,o),
(452,70,o),
(452,206,cs),
(452,296,o),
(419,360,o),
(356,381,c),
(356,387,l),
(405,404,o),
(437,465,o),
(437,537,cs),
(437,654,o),
(385,729,o),
(243,729,cs),
(28,729,l),
(28,0,l)
);
},
{
closed = 1;
nodes = (
(207,309,l),
(224,309,ls),
(255,309,o),
(275,285,o),
(275,225,cs),
(275,172,o),
(262,141,o),
(223,141,cs),
(207,141,l)
);
},
{
closed = 1;
nodes = (
(207,591,l),
(224,591,ls),
(254,591,o),
(270,568,o),
(270,513,cs),
(270,465,o),
(259,433,o),
(224,433,cs),
(207,433,l)
);
}
);
width = 462;
},
{
anchors = (
{
name = bottom;
pos = (179,0);
},
{
name = center;
pos = (179,365);
},
{
name = top;
pos = (179,729);
}
);
layerId = "5713303B-ED49-44A7-8230-B5CAE56DEB7E";
shapes = (
{
closed = 1;
nodes = (
(171,0,ls),
(290,0,o),
(335,81,o),
(335,200,cs),
(335,279,o),
(305,355,o),
(240,374,c),
(240,376,l),
(286,392,o),
(322,456,o),
(322,543,cs),
(322,670,o),
(270,729,o),
(172,729,cs),
(65,729,l),
(65,0,l)
);
},
{
closed = 1;
nodes = (
(96,359,l),
(182,359,ls),
(257,359,o),
(301,299,o),
(301,201,cs),
(301,77,o),
(257,29,o),
(171,29,cs),
(96,29,l)
);
},
{
closed = 1;
nodes = (
(96,700,l),
(171,700,ls),
(259,700,o),
(291,635,o),
(291,539,cs),
(291,449,o),
(251,389,o),
(181,389,cs),
(96,389,l)
);
}
);
width = 357;
},
{
anchors = (
{
name = bottom;
pos = (345,0);
},
{
name = center;
pos = (345,365);
},
{
name = top;
pos = (345,729);
}
);
layerId = master01;
shapes = (
{
closed = 1;
nodes = (
(407,0,ls),
(550,0,o),
(641,78,o),
(641,200,cs),
(641,285,o),
(592,356,o),
(495,374,c),
(495,377,l),
(583,397,o),
(622,464,o),
(622,543,cs),
(622,654,o),
(543,729,o),
(408,729,cs),
(103,729,l),
(103,0,l)
);
},
{
closed = 1;
nodes = (
(141,356,l),
(425,356,ls),
(537,356,o),
(601,298,o),
(601,202,cs),
(601,104,o),
(535,36,o),
(407,36,cs),
(141,36,l)
);
},
{
closed = 1;
nodes = (
(141,694,l),
(407,694,ls),
(514,694,o),
(584,635,o),
(584,538,cs),
(584,450,o),
(528,391,o),
(423,391,cs),
(141,391,l)
);
}
);
userData = {
com.schriftgestaltung.Glyphs.glyph.leftMetricsKey = H;
com.schriftgestaltung.hints = (
{
horizontal = 1;
options = 0;
origin = (
1,
8
);
stem = -2;
target = (
0,
15
);
type = Stem;
},
{
horizontal = 1;
options = 0;
origin = (
2,
8
);
stem = -2;
target = (
1,
0
);
type = Stem;
},
{
horizontal = 1;
options = 0;
origin = (
0,
14
);
stem = -2;
target = (
2,
0
);
type = Stem;
},
{
horizontal = 0;
options = 0;
origin = (
0,
15
);
stem = -2;
target = (
1,
8
);
type = Stem;
},
{
horizontal = 0;
options = 0;
origin = (
1,
4
);
stem = -2;
target = (
0,
3
);
type = Stem;
},
{
horizontal = 0;
options = 0;
origin = (
2,
4
);
stem = -2;
target = (
0,
10
);
type = Stem;
}
);
};
width = 690;
},
{
anchors = (
{
name = bottom;
pos = (362,0);
},
{
name = center;
pos = (362,365);
},
{
name = top;
pos = (362,729);
}
);
background = {
shapes = (
{
closed = 1;
nodes = (
(424,0,ls),
(612,0,o),
(701,85,o),
(701,212,cs),
(701,293,o),
(657,359,o),
(578,376,c),
(578,385,l),
(640,405,o),
(681,467,o),
(681,541,cs),
(681,654,o),
(608,729,o),
(453,729,cs),
(69,729,l),
(69,0,l)
);
},
{
closed = 1;
nodes = (
(266,299,l),
(400,299,ls),
(459,299,o),
(485,273,o),
(485,226,cs),
(485,179,o),
(459,153,o),
(400,153,cs),
(266,153,l)
);
},
{
closed = 1;
nodes = (
(266,576,l),
(391,576,ls),
(437,576,o),
(467,555,o),
(467,511,cs),
(467,472,o),
(443,446,o),
(391,446,cs),
(266,446,l)
);
}
);
};
layerId = "1EDCBF6C-9964-4A28-BC87-E86B534B8BE7";
shapes = (
{
closed = 1;
nodes = (
(422,0,ls),
(597,0,o),
(695,68,o),
(695,212,cs),
(695,293,o),
(651,359,o),
(572,376,c),
(572,385,l),
(636,405,o),
(675,468,o),
(675,541,cs),
(675,654,o),
(602,729,o),
(449,729,cs),
(69,729,l),
(69,0,l)
);
},
{
closed = 1;
nodes = (
(266,299,l),
(400,299,ls),
(453,299,o),
(489,278,o),
(489,224,cs),
(489,181,o),
(464,153,o),
(398,153,cs),
(266,153,l)
);
},
{
closed = 1;
nodes = (
(266,576,l),
(390,576,ls),
(439,576,o),
(471,558,o),
(471,513,cs),
(471,473,o),
(449,446,o),
(391,446,cs),
(266,446,l)
);
}
);
userData = {
com.schriftgestaltung.Glyphs.glyph.leftMetricsKey = H;
};
width = 724;
},
{
anchors = (
{
name = bottom;
pos = (360,0);
},
{
name = center;
pos = (360,365);
},
{
name = top;
pos = (360,729);
}
);
layerId = "28A8A76A-23B4-40F5-83B9-DC51E48BF161";
shapes = (
{
closed = 1;
nodes = (
(460,0,ls),
(603,0,o),
(694,78,o),
(694,200,cs),
(694,285,o),
(645,356,o),
(548,374,c),
(548,377,l),
(636,397,o),
(675,464,o),
(675,543,cs),
(675,654,o),
(596,729,o),
(461,729,cs),
(71,729,l),
(71,0,l)
);
},
{
closed = 1;
nodes = (
(109,356,l),
(478,356,ls),
(590,356,o),
(654,298,o),
(654,202,cs),
(654,104,o),
(588,36,o),
(460,36,cs),
(109,36,l)
);
},
{
closed = 1;
nodes = (
(109,694,l),
(460,694,ls),
(567,694,o),
(637,635,o),
(637,538,cs),
(637,450,o),
(581,391,o),
(476,391,cs),
(109,391,l)
);
}
);
width = 719;
},
{
anchors = (
{
name = bottom;
pos = (389,0);
},
{
name = center;
pos = (389,365);
},
{
name = top;
pos = (389,729);
}
);
background = {
shapes = (
{
closed = 1;
nodes = (
(473,0,ls),
(684,0,o),
(768,86,o),
(768,206,cs),
(768,291,o),
(718,356,o),
(628,376,c),
(628,385,l),
(701,406,o),
(745,465,o),
(745,538,cs),
(745,667,o),
(653,729,o),
(486,729,cs),
(54,729,l),
(54,0,l)
);
},
{
closed = 1;
nodes = (
(282,298,l),
(427,298,ls),
(492,298,o),
(525,279,o),
(525,228,cs),
(525,184,o),
(501,155,o),
(428,155,cs),
(282,155,l)
);
},
{
closed = 1;
nodes = (
(282,573,l),
(418,573,ls),
(485,573,o),
(504,549,o),
(504,511,cs),
(504,472,o),
(481,447,o),
(417,447,cs),
(282,447,l)
);
}
);
};
layerId = "D2144554-01B8-4B9B-B16A-E0E5B5794DFC";
shapes = (
{
closed = 1;
nodes = (
(471,0,ls),
(657,0,o),
(762,66,o),
(762,206,cs),
(762,301,o),
(711,362,o),
(621,376,c),
(621,385,l),
(692,399,o),
(739,460,o),
(739,541,cs),
(739,660,o),
(670,729,o),
(483,729,cs),
(54,729,l),
(54,0,l)
);
},
{
closed = 1;
nodes = (
(282,298,l),
(429,298,ls),
(500,298,o),
(533,277,o),
(533,227,cs),
(533,184,o),
(509,155,o),
(429,155,cs),
(282,155,l)
);
},
{
closed = 1;
nodes = (
(282,573,l),
(419,573,ls),
(475,573,o),
(513,559,o),
(513,513,cs),
(513,473,o),
(491,447,o),
(420,447,cs),
(282,447,l)
);
}
);
width = 778;
}
);
metricLeft = H;
unicode = 66;
},
{
glyphname = C;
kernLeft = C;
kernRight = C;
lastChange = "2022-12-13 14:31:45 +0000";
layers = (
{
anchors = (
{
name = bottom;
pos = (250,0);
},
{
name = top;
pos = (250,729);
}
);
background = {
shapes = (
{
closed = 1;
nodes = (
(-81,140,o),
(46,-10,o),
(281,-10,cs),
(499,-10,o),
(644,121,o),
(644,365,cs),
(644,587,o),
(518,738,o),
(281,738,cs),
(63,738,o),
(-81,607,o),
(-81,365,cs)
);
},
{
closed = 1;
nodes = (
(133,481,o),
(184,562,o),
(281,562,cs),
(371,562,o),
(431,491,o),
(431,365,cs),
(431,247,o),
(380,166,o),
(281,166,cs),
(192,166,o),
(133,235,o),
(133,365,cs)
);
}
);
};
layerId = "E787E54A-EE3E-475A-BF02-8501A6DA5144";
shapes = (
{
closed = 1;
nodes = (
(393,-9,o),
(470,69,o),
(475,270,c),
(305,270,l),
(301,190,o),
(294,147,o),
(256,147,cs),
(217,147,o),
(205,203,o),
(205,365,cs),
(205,515,o),
(214,583,o),
(256,583,cs),
(292,583,o),
(300,546,o),
(305,465,c),
(475,465,l),
(466,668,o),
(391,739,o),
(255,739,cs),
(75,739,o),
(24,593,o),
(24,365,cs),
(24,136,o),
(73,-9,o),
(243,-9,cs)
);
}
);
width = 500;
},
{
anchors = (
{
name = bottom;
pos = (201,0);
},
{
name = top;
pos = (201,729);
}
);
background = {
shapes = (
{
closed = 1;
nodes = (
(421,-8,o),
(518,71,o),
(532,238,c),
(492,238,l),
(477,87,o),
(395,28,o),
(287,28,cs),
(133,28,o),
(69,150,o),
(69,337,cs),
(69,394,ls),
(69,581,o),
(133,703,o),
(287,703,cs),
(395,703,o),
(477,644,o),
(492,493,c),
(532,493,l),
(518,660,o),
(421,739,o),
(287,739,cs),
(100,739,o),
(28,605,o),
(28,366,cs),
(28,126,o),
(100,-8,o),
(287,-8,cs)
);
}
);
};
layerId = "5713303B-ED49-44A7-8230-B5CAE56DEB7E";
shapes = (
{
closed = 1;
nodes = (
(292,-10,o),
(354,39,o),
(365,234,c),
(333,234,l),
(323,88,o),
(290,19,o),
(202,19,cs),
(98,19,o),
(71,159,o),
(71,364,cs),
(71,570,o),
(98,709,o),
(203,709,cs),
(286,709,o),
(322,650,o),
(333,495,c),
(365,495,l),
(357,642,o),
(324,739,o),
(203,738,cs),
(106,737,o),
(38,666,o),
(38,364,cs),
(38,65,o),
(106,-10,o),
(203,-10,cs)
);
}
);
width = 402;
},
{
anchors = (
{
name = bottom;
pos = (378,0);
},
{
name = top;
pos = (378,729);
}
);
layerId = master01;
shapes = (
{
closed = 1;
nodes = (
(564,-8,o),
(689,87,o),
(710,237,c),
(670,238,l),
(650,111,o),
(545,28,o),
(391,28,cs),
(202,28,o),
(87,162,o),
(87,364,cs),
(87,566,o),
(202,700,o),
(391,700,cs),
(544,700,o),
(648,615,o),
(670,494,c),
(710,494,l),
(684,643,o),
(560,736,o),
(391,736,cs),
(184,736,o),
(46,586,o),
(46,364,cs),
(46,143,o),
(183,-8,o),
(391,-8,cs)
);
}
);
userData = {
com.schriftgestaltung.hints = (
{
horizontal = 1;
options = 0;
origin = (
0,
6
);
stem = -2;
target = (
0,
25
);
type = Stem;
},
{
horizontal = 1;
options = 0;
origin = (
0,
19
);
stem = -2;
target = (
0,
12
);
type = Stem;
},
{
horizontal = 0;
options = 0;
place = (
0,
0
);
stem = -2;
type = Stem;
}
);
};
width = 756;
},
{
anchors = (
{
name = bottom;
pos = (392,0);
},
{
name = top;
pos = (392,729);
}
);
background = {
shapes = (
{
closed = 1;
nodes = (
(594,-10,o),
(738,98,o),
(755,259,c),
(545,259,l),
(531,203,o),
(473,166,o),
(406,166,cs),
(308,166,o),
(244,222,o),
(244,365,cs),
(244,507,o),
(308,563,o),
(406,563,cs),
(478,563,o),
(529,525,o),
(545,471,c),
(755,471,l),
(738,631,o),
(600,739,o),
(406,739,cs),
(181,739,o),
(31,608,o),
(31,365,cs),
(31,121,o),
(181,-10,o),
(406,-10,cs)
);
}
);
};
layerId = "1EDCBF6C-9964-4A28-BC87-E86B534B8BE7";
shapes = (
{
closed = 1;
nodes = (
(594,-10,o),
(736,98,o),
(753,258,c),
(548,258,l),
(534,200,o),
(474,162,o),
(405,162,cs),
(305,162,o),
(239,220,o),
(239,365,cs),
(239,509,o),
(305,567,o),
(405,567,cs),
(478,567,o),
(532,528,o),
(548,472,c),
(753,472,l),
(736,631,o),
(599,739,o),
(405,739,cs),
(181,739,o),
(31,607,o),
(31,365,cs),
(31,122,o),
(181,-10,o),
(405,-10,cs)
);
}
);
width = 783;
},
{
anchors = (
{
name = bottom;
pos = (406,0);
},
{
name = top;
pos = (406,729);
}
);
layerId = "28A8A76A-23B4-40F5-83B9-DC51E48BF161";
shapes = (
{
closed = 1;
nodes = (
(612,-8,o),
(750,87,o),
(773,237,c),
(734,238,l),
(711,111,o),
(594,28,o),
(422,28,cs),
(210,28,o),
(81,162,o),
(81,364,cs),
(81,566,o),
(210,700,o),
(422,700,cs),
(587,700,o),
(708,620,o),
(734,494,c),
(773,494,l),
(744,643,o),
(608,736,o),
(422,736,cs),
(193,736,o),
(41,587,o),
(41,364,cs),
(41,142,o),
(192,-8,o),
(422,-8,cs)
);
}
);
width = 811;
},
{
anchors = (
{
name = bottom;
pos = (432,0);
},
{
name = top;
pos = (432,729);
}
);
layerId = "D2144554-01B8-4B9B-B16A-E0E5B5794DFC";
shapes = (
{
closed = 1;
nodes = (
(659,-10,o),
(823,97,o),
(842,259,c),
(614,259,l),
(598,204,o),
(527,170,o),
(447,170,cs),
(330,170,o),
(253,230,o),
(253,365,cs),
(253,500,o),
(330,560,o),
(447,560,cs),
(528,560,o),
(595,524,o),
(612,471,c),
(842,471,l),
(823,630,o),
(679,739,o),
(447,739,cs),
(176,739,o),
(22,592,o),
(22,365,cs),
(22,138,o),
(176,-10,o),
(447,-10,cs)
);
}
);
width = 863;
}
);
unicode = 67;
},
{
glyphname = D;
kernLeft = B;
kernRight = C;
lastChange = "2022-12-13 14:31:45 +0000";
layers = (
{
anchors = (
{
name = bottom;
pos = (249,0);
},
{
name = center;
pos = (249,365);
},
{
name = top;
pos = (249,729);
}
);
layerId = "E787E54A-EE3E-475A-BF02-8501A6DA5144";
shapes = (
{
closed = 1;
nodes = (
(190,0,ls),
(424,0,o),
(474,149,o),
(474,364,cs),
(474,634,o),
(380,729,o),
(190,729,cs),
(28,729,l),
(28,0,l)
);
},
{
closed = 1;
nodes = (
(207,572,l),
(222,572,ls),
(276,572,o),
(294,524,o),
(294,368,cs),
(294,227,o),
(284,157,o),
(222,157,cs),
(207,157,l)
);
}
);
width = 498;
},
{
anchors = (
{
name = bottom;
pos = (209,0);
},
{
name = center;
pos = (209,365);
},
{
name = top;
pos = (209,729);
}
);
layerId = "5713303B-ED49-44A7-8230-B5CAE56DEB7E";
shapes = (
{
closed = 1;
nodes = (
(172,0,ls),
(327,0,o),
(379,150,o),
(379,365,cs),
(379,581,o),
(323,729,o),
(172,729,cs),
(65,729,l),
(65,0,l)
);
},
{
closed = 1;
nodes = (
(96,701,l),
(173,701,ls),
(276,701,o),
(346,620,o),
(346,365,cs),
(346,109,o),
(276,28,o),
(173,28,cs),
(96,28,l)
);
}
);
width = 417;
},
{
anchors = (
{
name = bottom;
pos = (370,0);
},
{
name = center;
pos = (370,365);
},
{
name = top;
pos = (370,729);
}
);
layerId = master01;
shapes = (
{
closed = 1;
nodes = (
(373,0,ls),
(573,0,o),
(694,144,o),
(694,364,cs),
(694,585,o),
(573,729,o),
(373,729,cs),
(103,729,l),
(103,0,l)
);
},
{
closed = 1;
nodes = (
(141,693,l),
(372,693,ls),
(544,693,o),
(654,570,o),
(654,365,cs),
(654,167,o),
(549,37,o),
(372,37,cs),
(141,37,l)
);
}
);
userData = {
com.schriftgestaltung.Glyphs.glyph.leftMetricsKey = H;
com.schriftgestaltung.hints = (
{
horizontal = 1;
options = 0;
origin = (
1,
8
);
stem = -2;
target = (
0,
8
);
type = Stem;
},
{
horizontal = 1;
options = 0;
origin = (
0,
7
);
stem = -2;
target = (
1,
0
);
type = Stem;
},
{
horizontal = 0;
options = 0;
origin = (
0,
8
);
stem = -2;
target = (
1,
8
);
type = Stem;
},
{
horizontal = 0;
options = 0;
origin = (
1,
4
);
stem = -2;
target = (
0,
3
);
type = Stem;
}
);
};
width = 740;
},
{
anchors = (
{
name = bottom;
pos = (385,0);
},
{
name = center;
pos = (385,365);
},
{
name = top;
pos = (385,729);
}
);
background = {
shapes = (
{
closed = 1;
nodes = (
(398,0,ls),
(622,0,o),
(740,147,o),
(740,364,cs),
(740,581,o),
(623,729,o),
(398,729,cs),
(69,729,l),
(69,0,l)
);
},
{
closed = 1;
nodes = (
(272,557,l),
(362,557,ls),
(457,557,o),
(528,527,o),
(528,368,cs),
(528,198,o),
(453,172,o),
(362,172,cs),
(272,172,l)
);
}
);
};
layerId = "1EDCBF6C-9964-4A28-BC87-E86B534B8BE7";
shapes = (
{
closed = 1;
nodes = (
(396,0,ls),
(619,0,o),
(738,147,o),
(738,364,cs),
(738,581,o),
(620,729,o),
(396,729,cs),
(69,729,l),
(69,0,l)
);
},
{
closed = 1;
nodes = (
(272,558,l),
(361,558,ls),
(458,558,o),
(531,526,o),
(531,368,cs),
(531,200,o),
(454,171,o),
(361,171,cs),
(272,171,l)
);
}
);
userData = {
com.schriftgestaltung.Glyphs.glyph.leftMetricsKey = H;
};
width = 769;
},
{
anchors = (
{
name = bottom;
pos = (394,0);
},
{
name = center;
pos = (394,365);
},
{
name = top;
pos = (394,729);
}
);
layerId = "28A8A76A-23B4-40F5-83B9-DC51E48BF161";
shapes = (
{
closed = 1;
nodes = (
(379,0,ls),
(607,0,o),
(747,144,o),
(747,364,cs),
(747,585,o),
(607,729,o),
(379,729,cs),
(71,729,l),
(71,0,l)
);
},
{
closed = 1;
nodes = (
(109,693,l),
(379,693,ls),
(580,693,o),
(708,570,o),
(708,365,cs),
(708,167,o),
(586,37,o),
(379,37,cs),
(109,37,l)
);
}
);
width = 788;
},
{
anchors = (
{
name = bottom;
pos = (417,0);
},
{
name = center;
pos = (417,365);
},
{
name = top;
pos = (417,729);
}
);
layerId = "D2144554-01B8-4B9B-B16A-E0E5B5794DFC";
shapes = (
{
closed = 1;
nodes = (
(422,0,ls),
(659,0,o),
(812,121,o),
(812,364,cs),
(812,583,o),
(686,729,o),
(422,729,cs),
(54,729,l),
(54,0,l)
);
},
{
closed = 1;
nodes = (
(282,554,l),
(375,554,ls),
(497,554,o),
(581,513,o),
(581,368,cs),
(581,244,o),
(527,175,o),
(375,175,cs),
(282,175,l)
);
}
);
width = 834;
}
);
metricLeft = H;
metricRight = O;
unicode = 68;
},
{
glyphname = Eth;
kernLeft = B;
kernRight = C;
lastChange = "2022-08-11 16:47:25 +0000";
layers = (
{
layerId = "5713303B-ED49-44A7-8230-B5CAE56DEB7E";
shapes = (
{
closed = 1;
nodes = (
(220.776,351,l),
(220.776,378,l),
(5.054,378,l),
(5.054,351,l)
);
},
{
ref = D;
}
);
width = 416;
},
{
layerId = "E787E54A-EE3E-475A-BF02-8501A6DA5144";
shapes = (
{
closed = 1;
nodes = (
(261,295,l),
(261,434,l),
(-4,434,l),
(-4,295,l)
);
},
{
ref = D;
}
);
width = 498;
},
{
layerId = master01;
shapes = (
{
closed = 1;
nodes = (
(325,348,l),
(325,381,l),
(2,381,l),
(2,348,l)
);
},
{
ref = D;
}
);
width = 741;
},
{
layerId = "1EDCBF6C-9964-4A28-BC87-E86B534B8BE7";
shapes = (
{
closed = 1;
nodes = (
(377,295,l),
(377,434,l),
(10,434,l),
(10,295,l)
);
},
{
ref = D;
}
);
width = 769;
},
{
layerId = "28A8A76A-23B4-40F5-83B9-DC51E48BF161";
shapes = (
{
closed = 1;
nodes = (
(306,348,l),
(306,381,l),
(-17,381,l),
(-17,348,l)
);
},
{
ref = D;
}
);
width = 789;
},
{
layerId = "D2144554-01B8-4B9B-B16A-E0E5B5794DFC";
shapes = (
{
closed = 1;
nodes = (
(359,295,l),
(359,434,l),
(-8,434,l),
(-8,295,l)
);
},
{
ref = D;
}
);
width = 834;
}
);
unicode = 208;
},
{
glyphname = E;
kernLeft = B;
kernRight = AE;
lastChange = "2022-12-13 14:31:45 +0000";
layers = (
{
anchors = (
{
name = bottom;
pos = (189,0);
},
{
name = ogonek;
pos = (340,10);
},
{
name = top;
pos = (189,729);
},
{
name = topleft;
pos = (20,729);
}
);
layerId = "E787E54A-EE3E-475A-BF02-8501A6DA5144";
shapes = (
{
closed = 1;
nodes = (
(360,0,l),
(360,157,l),
(180,157,l),
(205,132,l),
(205,324,l),
(180,299,l),
(346,299,l),
(346,445,l),
(180,445,l),
(205,420,l),
(205,597,l),
(180,572,l),
(360,572,l),
(360,729,l),
(28,729,l),
(28,0,l)
);
}
);
width = 378;
},
{
anchors = (
{
name = bottom;
pos = (161,0);
},
{
name = ogonek;
pos = (289,10);
},
{
name = top;
pos = (161,729);
},
{
name = topleft;
pos = (20,729);
}
);
layerId = "5713303B-ED49-44A7-8230-B5CAE56DEB7E";
shapes = (
{
closed = 1;
nodes = (
(301,0,l),
(301,28,l),
(91,28,l),
(96,23,l),
(96,366,l),
(91,361,l),
(270,361,l),
(270,389,l),
(91,389,l),
(96,384,l),
(96,706,l),
(91,701,l),
(301,701,l),
(301,729,l),
(65,729,l),
(65,0,l)
);
}
);
width = 321;
},
{
anchors = (
{
name = bottom;
pos = (319,0);
},
{
name = ogonek;
pos = (574,10);
},
{
name = top;
pos = (319,729);
},
{
name = topleft;
pos = (20,729);
}
);
layerId = master01;
shapes = (
{
closed = 1;
nodes = (
(584,0,l),
(584,37,l),
(130,37,l),
(141,26,l),
(141,369,l),
(130,358,l),
(536,358,l),
(536,392,l),
(130,392,l),
(141,381,l),
(141,704,l),
(130,693,l),
(584,693,l),
(584,729,l),
(103,729,l),
(103,0,l)
);
}
);
userData = {
com.schriftgestaltung.Glyphs.glyph.leftMetricsKey = H;
com.schriftgestaltung.hints = (
{
horizontal = 1;
options = 0;
origin = (
0,
2
);
stem = -2;
target = (
0,
11
);
type = Stem;
},
{
horizontal = 1;
options = 0;
origin = (
0,
6
);
stem = -2;
target = (
0,
3
);
type = Stem;
},
{
horizontal = 1;
options = 0;
origin = (
0,
10
);
stem = -2;
target = (
0,
7
);
type = Stem;
},
{
horizontal = 0;
options = 0;
origin = (
0,
11
);
stem = -2;
target = (
0,
2
);
type = Stem;
}
);
};
width = 638;
},
{
anchors = (
{
name = bottom;
pos = (334,0);
},
{
name = ogonek;
pos = (600,10);
},
{
name = top;
pos = (334,729);
},
{
name = topleft;
pos = (20,729);
}
);
layerId = "1EDCBF6C-9964-4A28-BC87-E86B534B8BE7";
shapes = (
{
closed = 1;
nodes = (
(622,0,l),
(622,172,l),
(230,172,l),
(272,130,l),
(272,330,l),
(230,288,l),
(569,288,l),
(569,449,l),
(230,449,l),
(272,407,l),
(272,599,l),
(230,557,l),
(619,557,l),
(619,729,l),
(69,729,l),
(69,0,l)
);
}
);
userData = {
com.schriftgestaltung.Glyphs.glyph.leftMetricsKey = H;
};
width = 667;
},
{
anchors = (
{
name = bottom;
pos = (335,0);
},
{
name = ogonek;
pos = (602,10);
},
{
name = top;
pos = (335,729);
},
{
name = topleft;
pos = (20,729);
}
);
layerId = "28A8A76A-23B4-40F5-83B9-DC51E48BF161";
shapes = (
{
closed = 1;
nodes = (
(637,0,l),
(637,37,l),
(84,37,l),
(109,12,l),
(109,373,l),
(94,358,l),
(589,358,l),
(589,392,l),
(94,392,l),
(109,377,l),
(109,718,l),
(84,693,l),
(637,693,l),
(637,729,l),
(71,729,l),
(71,0,l)
);
}
);
width = 669;
},
{
anchors = (
{
name = bottom;
pos = (361,0);
},
{
name = ogonek;
pos = (650,10);
},
{
name = top;
pos = (361,729);
},
{
name = topleft;
pos = (20,729);
}
);
layerId = "D2144554-01B8-4B9B-B16A-E0E5B5794DFC";
shapes = (
{
closed = 1;
nodes = (
(695,0,l),
(695,179,l),
(238,179,l),
(283,134,l),
(283,327,l),
(238,282,l),
(642,282,l),
(642,449,l),
(238,449,l),
(283,404,l),
(283,595,l),
(238,550,l),
(692,550,l),
(692,729,l),
(54,729,l),
(54,0,l)
);
}
);
width = 722;
}
);
metricLeft = H;
unicode = 69;
},
{
glyphname = F;
kernLeft = B;
kernRight = F;
lastChange = "2022-12-13 14:31:45 +0000";
layers = (
{
anchors = (
{
name = bottom;
pos = (185,0);
},
{
name = top;
pos = (185,729);
}
);
layerId = "E787E54A-EE3E-475A-BF02-8501A6DA5144";
shapes = (
{
closed = 1;
nodes = (
(214,0,l),
(214,286,l),
(199,271,l),
(343,271,l),
(343,420,l),
(199,420,l),
(214,405,l),
(214,587,l),
(199,572,l),
(361,572,l),
(361,729,l),
(28,729,l),
(28,0,l)
);
}
);
width = 370;
},
{
anchors = (
{
name = bottom;
pos = (155,0);
},
{
name = top;
pos = (155,729);
}
);
layerId = "5713303B-ED49-44A7-8230-B5CAE56DEB7E";
shapes = (
{
closed = 1;
nodes = (
(96,0,l),
(96,363,l),
(86,353,l),
(263,353,l),
(263,382,l),
(86,382,l),
(96,372,l),
(96,715,l),
(81,700,l),
(288,700,l),
(288,729,l),
(65,729,l),
(65,0,l)
);
}
);
width = 310;
},
{
anchors = (
{
name = bottom;
pos = (308,0);
},
{
name = top;
pos = (308,729);
}
);
layerId = master01;
shapes = (
{
closed = 1;
nodes = (
(141,0,l),
(141,360,l),
(130,349,l),
(542,349,l),
(542,384,l),
(130,384,l),
(141,373,l),
(141,704,l),
(130,693,l),
(582,693,l),
(582,729,l),
(103,729,l),
(103,0,l)
);
}
);
userData = {
com.schriftgestaltung.hints = (
{
horizontal = 1;
options = 0;
origin = (
0,
9
);
stem = -2;
target = (
u,
p
);
type = BottomGhost;
},
{
horizontal = 1;
options = 0;
origin = (
0,
4
);
stem = -2;
target = (
0,
1
);
type = Stem;
},
{
horizontal = 1;
options = 0;
origin = (
0,
8
);
stem = -2;
target = (
0,
5
);
type = Stem;
},
{
horizontal = 0;
options = 0;
origin = (
0,
9
);
stem = -2;
target = (
0,
0
);
type = Stem;
}
);
};
width = 616;
},
{
anchors = (
{
name = bottom;
pos = (320,0);
},
{
name = top;
pos = (320,729);
}
);
layerId = "1EDCBF6C-9964-4A28-BC87-E86B534B8BE7";
shapes = (
{
closed = 1;
nodes = (
(272,0,l),
(272,293,l),
(240,261,l),
(578,261,l),
(578,424,l),
(240,424,l),
(272,392,l),
(272,589,l),
(240,557,l),
(618,557,l),
(618,729,l),
(69,729,l),
(69,0,l)
);
}
);
width = 640;
},
{
anchors = (
{
name = bottom;
pos = (330,0);
},
{
name = top;
pos = (330,729);
}
);
layerId = "28A8A76A-23B4-40F5-83B9-DC51E48BF161";
shapes = (
{
closed = 1;
nodes = (
(109,0,l),
(109,364,l),
(94,349,l),
(595,349,l),
(595,384,l),
(94,384,l),
(109,369,l),
(109,708,l),
(94,693,l),
(635,693,l),
(635,729,l),
(71,729,l),
(71,0,l)
);
}
);
width = 660;
},
{
anchors = (
{
name = bottom;
pos = (340,0);
},
{
name = top;
pos = (340,729);
}
);
layerId = "D2144554-01B8-4B9B-B16A-E0E5B5794DFC";
shapes = (
{
closed = 1;
nodes = (
(283,0,l),
(283,272,l),
(268,257,l),
(624,257,l),
(624,426,l),
(268,426,l),
(283,411,l),
(283,565,l),
(268,550,l),
(664,550,l),
(664,729,l),
(54,729,l),
(54,0,l)
);
}
);
width = 680;
}
);
metricLeft = H;
unicode = 70;
},
{
glyphname = G;
kernLeft = C;
kernRight = C;
lastChange = "2022-12-13 14:31:45 +0000";
layers = (
{
anchors = (
{
name = bottom;
pos = (253,0);
},
{
name = top;
pos = (253,729);
}
);
background = {
shapes = (
{
closed = 1;
nodes = (
(435,-9,o),
(486,136,o),
(486,365,cs),
(486,594,o),
(435,739,o),
(255,739,cs),
(76,739,o),
(24,595,o),
(24,365,cs),
(24,135,o),
(76,-9,o),
(255,-9,cs)
);
},
{
closed = 1;
nodes = (
(217,147,o),
(205,202,o),
(205,365,cs),
(205,515,o),
(213,583,o),
(255,583,cs),
(293,583,o),
(306,529,o),
(306,365,cs),
(306,217,o),
(298,147,o),
(255,147,cs)
);
}
);
};
layerId = "E787E54A-EE3E-475A-BF02-8501A6DA5144";
shapes = (
{
closed = 1;
nodes = (
(388,-9,o),
(475,74,o),
(475,249,cs),
(475,399,l),
(257,399,l),
(257,264,l),
(348,264,l),
(305,307,l),
(305,254,ls),
(305,185,o),
(296,147,o),
(260,147,cs),
(216,147,o),
(205,192,o),
(205,370,cs),
(205,540,o),
(216,583,o),
(258,583,cs),
(289,583,o),
(305,555,o),
(305,465,c),
(475,465,l),
(476,640,o),
(408,739,o),
(260,739,cs),
(120,739,o),
(24,662,o),
(24,370,cs),
(24,143,o),
(71,-9,o),
(256,-9,cs)
);
}
);
width = 505;
},
{
anchors = (
{
name = bottom;
pos = (201,0);
},
{
name = top;
pos = (201,729);
}
);
layerId = "5713303B-ED49-44A7-8230-B5CAE56DEB7E";
shapes = (
{
closed = 1;
nodes = (
(292,-10,o),
(365,44,o),
(365,257,cs),
(365,375,l),
(191,375,l),
(191,344,l),
(362,344,l),
(332,375,l),
(332,257,ls),
(332,105,o),
(295,19,o),
(202,19,cs),
(98,19,o),
(71,159,o),
(71,364,cs),
(71,570,o),
(98,709,o),
(203,709,cs),
(286,709,o),
(322,650,o),
(333,495,c),
(365,495,l),
(357,642,o),
(324,739,o),
(203,738,cs),
(106,737,o),
(38,666,o),
(38,364,cs),
(38,65,o),
(106,-10,o),
(203,-10,cs)
);
}
);
width = 402;
},
{
anchors = (
{
name = bottom;
pos = (393,0);
},
{
name = top;
pos = (393,729);
}
);
background = {
shapes = (
{
closed = 1;
nodes = (
(577,-8,o),
(708,124,o),
(708,340,cs),
(708,366,l),
(429,366,l),
(429,330,l),
(690,330,l),
(667,355,l),
(667,335,ls),
(667,140,o),
(550,28,o),
(381,28,cs),
(201,28,o),
(85,162,o),
(85,365,cs),
(85,567,o),
(202,699,o),
(382,699,cs),
(521,699,o),
(628,621,o),
(650,493,c),
(690,493,l),
(668,640,o),
(545,736,o),
(382,736,cs),
(181,736,o),
(46,587,o),
(46,364,cs),
(46,141,o),
(178,-8,o),
(381,-8,cs)
);
}
);
};
layerId = master01;
shapes = (
{
closed = 1;
nodes = (
(601,-8,o),
(738,124,o),
(738,340,cs),
(738,366,l),
(417,366,l),
(417,330,l),
(721,330,l),
(697,355,l),
(697,335,ls),
(697,140,o),
(574,28,o),
(396,28,cs),
(207,28,o),
(85,162,o),
(85,365,cs),
(85,567,o),
(208,699,o),
(397,699,cs),
(538,699,o),
(655,626,o),
(680,493,c),
(719,493,l),
(696,640,o),
(566,736,o),
(397,736,cs),
(188,736,o),
(46,587,o),
(46,364,cs),
(46,142,o),
(184,-8,o),
(396,-8,cs)
);
}
);
userData = {
com.schriftgestaltung.Glyphs.glyph.leftMetricsKey = O;
com.schriftgestaltung.Glyphs.glyph.rightMetricsKey = O;
com.schriftgestaltung.hints = (
{
horizontal = 1;
options = 0;
origin = (
0,
9
);
stem = -2;
target = (
0,
28
);
type = Stem;
},
{
horizontal = 1;
options = 0;
origin = (
0,
4
);
stem = -2;
target = (
0,
5
);
type = Stem;
},
{
horizontal = 1;
options = 0;
origin = (
0,
22
);
stem = -2;
target = (
0,
15
);
type = Stem;
},
{
horizontal = 0;
options = 0;
origin = (
0,
25
);
stem = -2;
target = (
0,
12
);
type = Stem;
},
{
horizontal = 0;
options = 0;
origin = (
0,
7
);
stem = -2;
target = (
0,
2
);
type = Stem;
}
);
};
width = 785;
},
{
anchors = (
{
name = bottom;
pos = (396,0);
},
{
name = top;
pos = (396,729);
}
);
background = {
shapes = (
{
closed = 1;
nodes = (
(617,-10,o),
(761,112,o),
(761,310,cs),
(761,398,l),
(388,398,l),
(388,267,l),
(608,267,l),
(557,318,l),
(557,288,ls),
(557,200,o),
(500,158,o),
(400,158,cs),
(300,158,o),
(239,220,o),
(239,365,cs),
(239,509,o),
(305,567,o),
(405,567,cs),
(480,567,o),
(528,534,o),
(541,480,c),
(750,480,l),
(735,635,o),
(611,739,o),
(405,739,cs),
(180,739,o),
(31,607,o),
(31,365,cs),
(31,122,o),
(180,-10,o),
(400,-10,cs)
);
}
);
};
layerId = "1EDCBF6C-9964-4A28-BC87-E86B534B8BE7";
shapes = (
{
closed = 1;
nodes = (
(617,-10,o),
(761,118,o),
(761,310,cs),
(761,398,l),
(388,398,l),
(388,257,l),
(608,257,l),
(557,318,l),
(557,288,ls),
(557,210,o),
(500,158,o),
(400,158,cs),
(300,158,o),
(239,220,o),
(239,365,cs),
(239,509,o),
(305,567,o),
(405,567,cs),
(480,567,o),
(528,534,o),
(541,480,c),
(750,480,l),
(735,635,o),
(610,739,o),
(405,739,cs),
(180,739,o),
(31,607,o),
(31,365,cs),
(31,140,o),
(164,-10,o),
(396,-10,cs)
);
}
);
userData = {
com.schriftgestaltung.Glyphs.glyph.leftMetricsKey = O;
com.schriftgestaltung.Glyphs.glyph.rightMetricsKey = O;
};
width = 792;
},
{
anchors = (
{
name = bottom;
pos = (418,0);
},
{
name = top;
pos = (418,729);
}
);
layerId = "28A8A76A-23B4-40F5-83B9-DC51E48BF161";
shapes = (
{
closed = 1;
nodes = (
(643,-8,o),
(793,124,o),
(793,340,cs),
(793,366,l),
(407,366,l),
(407,331,l),
(782,331,l),
(752,353,l),
(752,327,ls),
(752,140,o),
(617,28,o),
(422,28,cs),
(213,28,o),
(78,162,o),
(78,365,cs),
(78,567,o),
(215,699,o),
(422,699,cs),
(585,699,o),
(708,620,o),
(733,493,c),
(772,493,l),
(746,640,o),
(606,736,o),
(422,736,cs),
(195,736,o),
(41,587,o),
(41,364,cs),
(41,141,o),
(192,-8,o),
(422,-8,cs)
);
}
);
width = 835;
},
{
anchors = (
{
name = bottom;
pos = (436,0);
},
{
name = top;
pos = (436,729);
}
);
background = {
shapes = (
{
closed = 1;
nodes = (
(660,-10,o),
(849,101,o),
(849,331,cs),
(849,405,l),
(430,405,l),
(430,262,l),
(679,262,l),
(623,322,l),
(623,304,ls),
(623,223,o),
(568,169,o),
(441,169,cs),
(326,169,o),
(253,231,o),
(253,365,cs),
(253,486,o),
(315,560,o),
(447,560,cs),
(528,560,o),
(592,531,o),
(611,473,c),
(842,473,l),
(823,632,o),
(679,739,o),
(447,739,cs),
(177,739,o),
(22,592,o),
(22,365,cs),
(22,138,o),
(176,-10,o),
(438,-10,cs)
);
}
);
};
layerId = "D2144554-01B8-4B9B-B16A-E0E5B5794DFC";
shapes = (
{
closed = 1;
nodes = (
(660,-10,o),
(849,101,o),
(849,331,cs),
(849,405,l),
(430,405,l),
(430,262,l),
(679,262,l),
(623,322,l),
(623,304,ls),
(623,223,o),
(568,169,o),
(441,169,cs),
(326,169,o),
(253,231,o),
(253,365,cs),
(253,486,o),
(315,560,o),
(447,560,cs),
(528,560,o),
(592,531,o),
(611,473,c),
(842,473,l),
(823,632,o),
(679,739,o),
(447,739,cs),
(177,739,o),
(22,592,o),
(22,365,cs),
(22,138,o),
(176,-10,o),
(438,-10,cs)
);
}
);
width = 871;
}
);
metricLeft = O;
unicode = 71;
},
{
glyphname = H;
kernLeft = B;
kernRight = H;
lastChange = "2022-12-13 14:31:45 +0000";
layers = (
{
anchors = (
{
name = bottom;
pos = (247,0);
},
{
name = center;
pos = (247,365);
},
{
name = top;
pos = (247,729);
},
{
name = topleft;
pos = (20,729);
}
);
layerId = "E787E54A-EE3E-475A-BF02-8501A6DA5144";
shapes = (
{
closed = 1;
nodes = (
(212,0,l),
(212,306,l),
(197,291,l),
(294,291,l),
(279,306,l),
(279,0,l),
(465,0,l),
(465,729,l),
(279,729,l),
(279,432,l),
(294,447,l),
(197,447,l),
(212,432,l),
(212,729,l),
(28,729,l),
(28,0,l)
);
}
);
width = 493;
},
{
anchors = (
{
name = bottom;
pos = (212,0);
},
{
name = center;
pos = (212,365);
},
{
name = top;
pos = (212,729);
},
{
name = topleft;
pos = (20,729);
}
);
layerId = "5713303B-ED49-44A7-8230-B5CAE56DEB7E";
shapes = (
{
closed = 1;
nodes = (
(96,0,l),
(96,365,l),
(86,355,l),
(339,355,l),
(329,365,l),
(329,0,l),
(359,0,l),
(359,729,l),
(329,729,l),
(329,375,l),
(339,385,l),
(86,385,l),
(96,375,l),
(96,729,l),
(65,729,l),
(65,0,l)
);
}
);
width = 424;
},
{
anchors = (
{
name = bottom;
pos = (394,0);
},
{
name = center;
pos = (394,365);
},
{
name = top;
pos = (394,729);
},
{
name = topleft;
pos = (20,729);
}
);
layerId = master01;
shapes = (
{
closed = 1;
nodes = (
(141,0,l),
(141,363,l),
(130,352,l),
(658,352,l),
(647,363,l),
(647,0,l),
(685,0,l),
(685,729,l),
(647,729,l),
(647,377,l),
(658,388,l),
(130,388,l),
(141,377,l),
(141,729,l),
(103,729,l),
(103,0,l)
);
}
);
userData = {
com.schriftgestaltung.hints = (
{
horizontal = 1;
options = 0;
origin = (
0,
11
);
stem = -2;
target = (
u,
p
);
type = BottomGhost;
},
{
horizontal = 1;
options = 0;
origin = (
0,
8
);
stem = -2;
target = (
0,
1
);
type = Stem;
},
{
horizontal = 1;
options = 0;
origin = (
0,
10
);
stem = -2;
target = (
d,
o,
w,
n
);
type = TopGhost;
},
{
horizontal = 0;
options = 0;
origin = (
0,
11
);
stem = -2;
target = (
0,
0
);
type = Stem;
},
{
horizontal = 0;
options = 0;
origin = (
0,
3
);
stem = -2;
target = (
0,
4
);
type = Stem;
}
);
};
width = 788;
},
{
anchors = (
{
name = bottom;
pos = (411,0);
},
{
name = center;
pos = (411,365);
},
{
name = top;
pos = (411,729);
},
{
name = topleft;
pos = (20,729);
}
);
layerId = "1EDCBF6C-9964-4A28-BC87-E86B534B8BE7";
shapes = (
{
closed = 1;
nodes = (
(272,0,l),
(272,305,l),
(250,283,l),
(572,283,l),
(550,305,l),
(550,0,l),
(753,0,l),
(753,729,l),
(550,729,l),
(550,433,l),
(572,455,l),
(250,455,l),
(272,433,l),
(272,729,l),
(69,729,l),
(69,0,l)
);
}
);
width = 822;
},
{
anchors = (
{
name = bottom;
pos = (405,0);
},
{
name = center;
pos = (405,365);
},
{
name = top;
pos = (405,729);
},
{
name = topleft;
pos = (20,729);
}
);
layerId = "28A8A76A-23B4-40F5-83B9-DC51E48BF161";
shapes = (
{
closed = 1;
nodes = (
(109,0,l),
(109,357,l),
(104,352,l),
(705,352,l),
(700,357,l),
(700,0,l),
(738,0,l),
(738,729,l),
(700,729,l),
(700,383,l),
(705,388,l),
(104,388,l),
(109,383,l),
(109,729,l),
(71,729,l),
(71,0,l)
);
}
);
width = 809;
},
{
anchors = (
{
name = bottom;
pos = (441,0);
},
{
name = center;
pos = (441,365);
},
{
name = top;
pos = (441,729);
},
{
name = topleft;
pos = (20,729);
}
);
layerId = "D2144554-01B8-4B9B-B16A-E0E5B5794DFC";
shapes = (
{
closed = 1;
nodes = (
(283,0,l),
(283,295,l),
(268,280,l),
(614,280,l),
(599,295,l),
(599,0,l),
(828,0,l),
(828,729,l),
(599,729,l),
(599,443,l),
(614,458,l),
(268,458,l),
(283,443,l),
(283,729,l),
(54,729,l),
(54,0,l)
);
}
);
width = 882;
}
);
unicode = 72;
},
{
glyphname = I;
kernLeft = B;
kernRight = H;
lastChange = "2022-12-13 14:31:45 +0000";
layers = (
{
anchors = (
{
name = bottom;
pos = (122,0);
},
{
name = ogonek;
pos = (219,10);
},
{
name = top;
pos = (122,729);
},
{
name = topleft;
pos = (20,729);
}
);
layerId = "E787E54A-EE3E-475A-BF02-8501A6DA5144";
shapes = (
{
closed = 1;
nodes = (
(215,0,l),
(215,729,l),
(28,729,l),
(28,0,l)
);
}
);
width = 243;
},
{
anchors = (
{
name = bottom;
pos = (81,0);
},
{
name = ogonek;
pos = (145,10);
},
{
name = top;
pos = (81,729);
},
{
name = topleft;
pos = (20,729);
}
);
layerId = "5713303B-ED49-44A7-8230-B5CAE56DEB7E";
shapes = (
{
closed = 1;
nodes = (
(96,0,l),
(96,729,l),
(65,729,l),
(65,0,l)
);
}
);
width = 161;
},
{
anchors = (
{
name = bottom;
pos = (122,0);
},
{
name = ogonek;
pos = (220,10);
},
{
name = top;
pos = (122,729);
},
{
name = topleft;
pos = (20,729);
}
);
layerId = master01;
shapes = (
{
closed = 1;
nodes = (
(141,0,l),
(141,729,l),
(103,729,l),
(103,0,l)
);
}
);
userData = {
com.schriftgestaltung.hints = (
{
horizontal = 1;
options = 0;
origin = (
0,
3
);
stem = -2;
target = (
u,
p
);
type = BottomGhost;
},
{
horizontal = 1;
options = 0;
origin = (
0,
2
);
stem = -2;
target = (
d,
o,
w,
n
);
type = TopGhost;
},
{
horizontal = 0;
options = 0;
origin = (
0,
3
);
stem = -2;
target = (
0,
0
);
type = Stem;
}
);
};
width = 244;
},
{
anchors = (
{
name = bottom;
pos = (171,0);
},
{
name = ogonek;
pos = (307,10);
},
{
name = top;
pos = (171,729);
},
{
name = topleft;
pos = (20,729);
}
);
layerId = "1EDCBF6C-9964-4A28-BC87-E86B534B8BE7";
shapes = (
{
closed = 1;
nodes = (
(272,0,l),
(272,729,l),
(69,729,l),
(69,0,l)
);
}
);
width = 341;
},
{
anchors = (
{
name = bottom;
pos = (90,0);
},
{
name = ogonek;
pos = (162,10);
},
{
name = top;
pos = (90,729);
},
{
name = topleft;
pos = (20,729);
}
);
layerId = "28A8A76A-23B4-40F5-83B9-DC51E48BF161";
shapes = (
{
closed = 1;
nodes = (
(109,0,l),
(109,729,l),
(71,729,l),
(71,0,l)
);
}
);
width = 180;
},
{
anchors = (
{
name = bottom;
pos = (169,0);
},
{
name = ogonek;
pos = (303,10);
},
{
name = top;
pos = (169,729);
},
{
name = topleft;
pos = (20,729);
}
);
layerId = "D2144554-01B8-4B9B-B16A-E0E5B5794DFC";
shapes = (
{
closed = 1;
nodes = (
(283,0,l),
(283,729,l),
(54,729,l),
(54,0,l)
);
}
);
width = 337;
}
);
metricLeft = H;
metricRight = H;
unicode = 73;
},
{
glyphname = J;
kernLeft = J;
kernRight = J;
lastChange = "2022-12-13 14:31:45 +0000";
layers = (
{
anchors = (
{
name = bottom;
pos = (151,0);
},
{
name = top;
pos = (151,729);
}
);
layerId = "E787E54A-EE3E-475A-BF02-8501A6DA5144";
shapes = (
{
closed = 1;
nodes = (
(231,-9,o),
(273,64,o),
(273,176,cs),
(273,729,l),
(86,729,l),
(86,210,ls),
(86,165,o),
(78,143,o),
(47,143,cs),
(38,143,o),
(25,146,o),
(19,154,c),
(19,9,l),
(38,-2,o),
(68,-9,o),
(107,-9,cs)
);
}
);
width = 301;
},
{
anchors = (
{
name = bottom;
pos = (110,0);
},
{
name = top;
pos = (110,729);
}
);
layerId = "5713303B-ED49-44A7-8230-B5CAE56DEB7E";
shapes = (
{
closed = 1;
nodes = (
(123,-6,o),
(155,17,o),
(155,88,cs),
(155,729,l),
(125,729,l),
(125,97,ls),
(125,45,o),
(115,21,o),
(75,21,cs),
(60,21,o),
(46,26,o),
(41,31,c),
(41,4,l),
(48,-2,o),
(62,-6,o),
(77,-6,cs)
);
}
);
width = 220;
},
{
anchors = (
{
name = bottom;
pos = (190,0);
},
{
name = top;
pos = (190,729);
}
);
layerId = master01;
shapes = (
{
closed = 1;
nodes = (
(212,-8,o),
(277,44,o),
(277,162,cs),
(277,729,l),
(239,729,l),
(239,167,ls),
(239,66,o),
(187,27,o),
(102,27,cs),
(65,27,o),
(35,36,o),
(15,50,c),
(15,13,l),
(35,1,o),
(66,-8,o),
(104,-8,cs)
);
}
);
userData = {
com.schriftgestaltung.hints = (
{
horizontal = 1;
options = 0;
origin = (
0,
8
);
stem = -2;
target = (
0,
15
);
type = Stem;
},
{
horizontal = 1;
options = 0;
origin = (
0,
4
);
stem = -2;
target = (
d,
o,
w,
n
);
type = TopGhost;
},
{
horizontal = 1;
options = 0;
origin = (
0,
12
);
stem = -2;
target = (
d,
o,
w,
n
);
type = TopGhost;
},
{
horizontal = 0;
options = 0;
origin = (
0,
5
);
stem = -2;
target = (
0,
2
);
type = Stem;
}
);
};
width = 380;
},
{
anchors = (
{
name = bottom;
pos = (222,0);
},
{
name = top;
pos = (222,729);
}
);
layerId = "1EDCBF6C-9964-4A28-BC87-E86B534B8BE7";
shapes = (
{
closed = 1;
nodes = (
(276,-7,o),
(375,59,o),
(375,227,cs),
(375,729,l),
(173,729,l),
(173,241,ls),
(173,187,o),
(148,158,o),
(83,158,cs),
(55,158,o),
(33,164,o),
(15,172,c),
(15,12,l),
(40,1,o),
(85,-7,o),
(128,-7,cs)
);
}
);
width = 444;
},
{
anchors = (
{
name = bottom;
pos = (208,0);
},
{
name = top;
pos = (208,729);
}
);
layerId = "28A8A76A-23B4-40F5-83B9-DC51E48BF161";
shapes = (
{
closed = 1;
nodes = (
(258,-8,o),
(345,49,o),
(345,194,cs),
(345,729,l),
(307,729,l),
(307,201,ls),
(307,75,o),
(247,27,o),
(139,27,cs),
(94,27,o),
(63,36,o),
(41,50,c),
(41,13,l),
(62,1,o),
(94,-8,o),
(140,-8,cs)
);
}
);
width = 416;
},
{
anchors = (
{
name = bottom;
pos = (233,0);
},
{
name = top;
pos = (233,729);
}
);
layerId = "D2144554-01B8-4B9B-B16A-E0E5B5794DFC";
shapes = (
{
closed = 1;
nodes = (
(330,-10,o),
(411,75,o),
(411,263,cs),
(411,729,l),
(183,729,l),
(183,276,ls),
(183,195,o),
(147,171,o),
(87,171,cs),
(60,171,o),
(35,176,o),
(22,182,c),
(22,7,l),
(46,-3,o),
(89,-10,o),
(141,-10,cs)
);
}
);
width = 465;
}
);
metricRight = I;
unicode = 74;
},
{
glyphname = K;
kernLeft = B;
kernRight = K;
lastChange = "2022-12-13 14:31:45 +0000";
layers = (
{
anchors = (
{
name = bottom;
pos = (245,0);
},
{
name = top;
pos = (245,729);
}
);
background = {
shapes = (
{
closed = 1;
nodes = (
(250,0,l),
(250,159,l),
(325,249,l),
(490,0,l),
(736,0,l),
(463,414,l),
(726,729,l),
(476,729,l),
(250,445,l),
(250,729,l),
(47,729,l),
(47,0,l)
);
}
);
};
layerId = "E787E54A-EE3E-475A-BF02-8501A6DA5144";
shapes = (
{
closed = 1;
nodes = (
(205,0,l),
(205,167,l),
(236,274,l),
(284,0,l),
(477,0,l),
(367,428,l),
(478,729,l),
(286,729,l),
(205,416,l),
(205,729,l),
(28,729,l),
(28,0,l)
);
}
);
width = 489;
},
{
anchors = (
{
name = bottom;
pos = (186,0);
},
{
name = top;
pos = (186,729);
}
);
layerId = "5713303B-ED49-44A7-8230-B5CAE56DEB7E";
shapes = (
{
closed = 1;
nodes = (
(95,0,l),
(95,258,l),
(170,395,l),
(327,0,l),
(360,0,l),
(189,426,l),
(354,729,l),
(320,729,l),
(95,309,l),
(95,729,l),
(65,729,l),
(65,0,l)
);
}
);
width = 372;
},
{
anchors = (
{
name = bottom;
pos = (328,0);
},
{
name = top;
pos = (328,729);
}
);
layerId = master01;
shapes = (
{
closed = 1;
nodes = (
(141,0,l),
(141,240,l),
(295,398,l),
(579,0,l),
(626,0,l),
(321,425,l),
(618,729,l),
(567,729,l),
(141,291,l),
(141,729,l),
(103,729,l),
(103,0,l)
);
}
);
userData = {
com.schriftgestaltung.Glyphs.glyph.leftMetricsKey = H;
com.schriftgestaltung.hints = (
{
horizontal = 1;
options = 0;
origin = (
0,
11
);
stem = -2;
target = (
u,
p
);
type = BottomGhost;
},
{
horizontal = 1;
options = 0;
origin = (
0,
10
);
stem = -2;
target = (
d,
o,
w,
n
);
type = TopGhost;
},
{
horizontal = 0;
options = 0;
origin = (
0,
11
);
stem = -2;
target = (
0,
0
);
type = Stem;
}
);
};
width = 655;
},
{
anchors = (
{
name = bottom;
pos = (380,0);
},
{
name = top;
pos = (380,729);
}
);
background = {
shapes = (
{
closed = 1;
nodes = (
(272,0,l),
(272,163,l),
(359,273,l),
(516,0,l),
(756,0,l),
(498,420,l),
(745,729,l),
(506,729,l),
(272,417,l),
(272,729,l),
(69,729,l),
(69,0,l)
);
}
);
};
layerId = "1EDCBF6C-9964-4A28-BC87-E86B534B8BE7";
shapes = (
{
closed = 1;
nodes = (
(272,0,l),
(272,186,l),
(353,280,l),
(513,0,l),
(752,0,l),
(492,427,l),
(750,729,l),
(510,729,l),
(272,421,l),
(272,729,l),
(69,729,l),
(69,0,l)
);
}
);
userData = {
com.schriftgestaltung.Glyphs.glyph.leftMetricsKey = H;
};
width = 759;
},
{
anchors = (
{
name = bottom;
pos = (348,0);
},
{
name = top;
pos = (348,729);
}
);
background = {
shapes = (
{
closed = 1;
nodes = (
(107,0,l),
(107,176,l),
(321,385,l),
(632,0,l),
(679,0,l),
(348,411,l),
(672,729,l),
(624,729,l),
(107,221,l),
(107,729,l),
(71,729,l),
(71,0,l)
);
}
);
};
layerId = "28A8A76A-23B4-40F5-83B9-DC51E48BF161";
shapes = (
{
closed = 1;
nodes = (
(107,0,l),
(107,196,l),
(309,387,l),
(632,0,l),
(679,0,l),
(337,412,l),
(672,729,l),
(624,729,l),
(107,241,l),
(107,729,l),
(71,729,l),
(71,0,l)
);
}
);
width = 695;
},
{
anchors = (
{
name = bottom;
pos = (438,0);
},
{
name = top;
pos = (438,729);
}
);
layerId = "D2144554-01B8-4B9B-B16A-E0E5B5794DFC";
shapes = (
{
closed = 1;
nodes = (
(283,0,l),
(283,161,l),
(390,273,l),
(593,0,l),
(882,0,l),
(553,428,l),
(858,729,l),
(563,729,l),
(283,427,l),
(283,729,l),
(54,729,l),
(54,0,l)
);
}
);
width = 876;
}
);
metricLeft = H;
unicode = 75;
},
{
glyphname = L;
kernLeft = B;
kernRight = L;
lastChange = "2022-12-13 14:31:45 +0000";
layers = (
{
anchors = (
{
name = bottom;
pos = (171,0);
},
{
name = center;
pos = (171,365);
},
{
name = top;
pos = (171,729);
},
{
name = topright;
pos = (322,729);
}
);
layerId = "E787E54A-EE3E-475A-BF02-8501A6DA5144";
shapes = (
{
closed = 1;
nodes = (
(335,0,l),
(335,163,l),
(180,163,l),
(205,136,l),
(205,729,l),
(28,729,l),
(28,0,l)
);
}
);
width = 342;
},
{
anchors = (
{
name = bottom;
pos = (141,0);
},
{
name = center;
pos = (141,365);
},
{
name = top;
pos = (141,729);
},
{
name = topright;
pos = (261,729);
}
);
layerId = "5713303B-ED49-44A7-8230-B5CAE56DEB7E";
shapes = (
{
closed = 1;
nodes = (
(259,0,l),
(259,29,l),
(82,29,l),
(96,17,l),
(96,729,l),
(65,729,l),
(65,0,l)
);
}
);
width = 281;
},
{
anchors = (
{
name = bottom;
pos = (267,0);
},
{
name = center;
pos = (267,365);
},
{
name = top;
pos = (267,729);
},
{
name = topright;
pos = (513,729);
}
);
layerId = master01;
shapes = (
{
closed = 1;
nodes = (
(523,0,l),
(523,37,l),
(123,37,l),
(141,15,l),
(141,729,l),
(103,729,l),
(103,0,l)
);
}
);
userData = {
com.schriftgestaltung.Glyphs.glyph.leftMetricsKey = H;
com.schriftgestaltung.hints = (
{
horizontal = 1;
options = 0;
origin = (
0,
2
);
stem = -2;
target = (
0,
5
);
type = Stem;
},
{
horizontal = 1;
options = 0;
origin = (
0,
4
);
stem = -2;
target = (
d,
o,
w,
n
);
type = TopGhost;
},
{
horizontal = 0;
options = 0;
origin = (
0,
5
);
stem = -2;
target = (
0,
2
);
type = Stem;
}
);
};
width = 533;
},
{
anchors = (
{
name = bottom;
pos = (291,0);
},
{
name = center;
pos = (291,365);
},
{
name = top;
pos = (291,729);
},
{
name = topright;
pos = (562,729);
}
);
layerId = "1EDCBF6C-9964-4A28-BC87-E86B534B8BE7";
shapes = (
{
closed = 1;
nodes = (
(574,0,l),
(574,179,l),
(247,179,l),
(272,151,l),
(272,729,l),
(69,729,l),
(69,0,l)
);
}
);
userData = {
com.schriftgestaltung.Glyphs.glyph.leftMetricsKey = H;
};
width = 582;
},
{
anchors = (
{
name = bottom;
pos = (291,0);
},
{
name = center;
pos = (291,365);
},
{
name = top;
pos = (291,729);
},
{
name = topright;
pos = (561,729);
}
);
layerId = "28A8A76A-23B4-40F5-83B9-DC51E48BF161";
shapes = (
{
closed = 1;
nodes = (
(559,0,l),
(559,37,l),
(91,37,l),
(109,23,l),
(109,729,l),
(71,729,l),
(71,0,l)
);
}
);
width = 581;
},
{
anchors = (
{
name = bottom;
pos = (312,0);
},
{
name = center;
pos = (312,365);
},
{
name = top;
pos = (312,729);
},
{
name = topright;
pos = (604,729);
}
);
layerId = "D2144554-01B8-4B9B-B16A-E0E5B5794DFC";
shapes = (
{
closed = 1;
nodes = (
(613,0,l),
(613,186,l),
(238,186,l),
(283,141,l),
(283,729,l),
(54,729,l),
(54,0,l)
);
}
);
width = 624;
}
);
metricLeft = H;
unicode = 76;
},
{
glyphname = M;
kernLeft = B;
kernRight = H;
lastChange = "2022-12-13 14:31:45 +0000";
layers = (
{
anchors = (
{
name = bottom;
pos = (322,0);
},
{
name = top;
pos = (322,729);
}
);
background = {
shapes = (
{
closed = 1;
nodes = (
(234,0,l),
(234,153,ls),
(234,230,o),
(231,312,o),
(219,448,c),
(225,448,l),
(230,419,o),
(237,385,o),
(245,350,cs),
(331,-16,l),
(409,340,ls),
(418,383,o),
(426,420,o),
(431,448,c),
(437,448,l),
(424,314,o),
(421,233,o),
(421,155,cs),
(421,0,l),
(596,0,l),
(596,729,l),
(368,729,l),
(344,488,l),
(338,488,l),
(306,729,l),
(58,729,l),
(58,0,l)
);
}
);
};
layerId = "E787E54A-EE3E-475A-BF02-8501A6DA5144";
shapes = (
{
closed = 1;
nodes = (
(197,0,l),
(197,162,l),
(195,503,l),
(201,503,l),
(266,0,l),
(378,0,l),
(443,503,l),
(449,503,l),
(447,162,l),
(447,0,l),
(616,0,l),
(616,729,l),
(369,729,l),
(325,328,l),
(318,328,l),
(273,729,l),
(28,729,l),
(28,0,l)
);
}
);
width = 644;
},
{
anchors = (
{
name = bottom;
pos = (257,0);
},
{
name = top;
pos = (257,729);
}
);
layerId = "5713303B-ED49-44A7-8230-B5CAE56DEB7E";
shapes = (
{
closed = 1;
nodes = (
(97,0,l),
(97,414,l),
(94,693,l),
(100,693,l),
(242,0,l),
(271,0,l),
(412,693,l),
(419,693,l),
(416,414,l),
(416,0,l),
(448,0,l),
(448,729,l),
(389,729,l),
(256,75,l),
(255,75,l),
(123,729,l),
(65,729,l),
(65,0,l)
);
}
);
width = 513;
},
{
anchors = (
{
name = bottom;
pos = (449,0);
},
{
name = top;
pos = (449,729);
}
);
layerId = master01;
shapes = (
{
closed = 1;
nodes = (
(141,0,l),
(141,420,l),
(139,686,l),
(145,686,l),
(431,0,l),
(467,0,l),
(752,686,l),
(759,686,l),
(756,420,l),
(756,0,l),
(795,0,l),
(795,729,l),
(733,729,l),
(449,50,l),
(447,50,l),
(165,729,l),
(103,729,l),
(103,0,l)
);
}
);
userData = {
com.schriftgestaltung.Glyphs.glyph.leftMetricsKey = H;
com.schriftgestaltung.Glyphs.glyph.rightMetricsKey = H;
com.schriftgestaltung.hints = (
{
horizontal = 1;
options = 0;
origin = (
0,
16
);
stem = -2;
target = (
u,
p
);
type = BottomGhost;
},
{
horizontal = 1;
options = 0;
origin = (
0,
15
);
stem = -2;
target = (
0,
2
);
type = Stem;
},
{
horizontal = 0;
options = 0;
origin = (
0,
16
);
stem = -2;
target = (
0,
0
);
type = Stem;
},
{
horizontal = 0;
options = 0;
origin = (
0,
8
);
stem = -2;
target = (
0,
9
);
type = Stem;
}
);
};
width = 898;
},
{
anchors = (
{
name = bottom;
pos = (475,0);
},
{
name = top;
pos = (475,729);
}
);
layerId = "1EDCBF6C-9964-4A28-BC87-E86B534B8BE7";
shapes = (
{
closed = 1;
nodes = (
(267,0,l),
(267,233,l),
(264,518,l),
(273,518,l),
(393,0,l),
(559,0,l),
(679,518,l),
(686,518,l),
(684,235,l),
(684,0,l),
(880,0,l),
(880,729,l),
(574,729,l),
(480,333,l),
(472,333,l),
(375,729,l),
(69,729,l),
(69,0,l)
);
}
);
userData = {
com.schriftgestaltung.Glyphs.glyph.leftMetricsKey = H;
com.schriftgestaltung.Glyphs.glyph.rightMetricsKey = H;
};
width = 949;
},
{
anchors = (
{
name = bottom;
pos = (257,0);
},
{
name = top;
pos = (257,729);
}
);
associatedMasterId = "5713303B-ED49-44A7-8230-B5CAE56DEB7E";
attr = {
axisRules = (
{
min = 300;
},
{
}
);
};
background = {
shapes = (
{
closed = 1;
nodes = (
(104,0,l),
(104,400,l),
(103,703,l),
(109,703,l),
(225,0,l),
(299,0,l),
(414,703,l),
(421,703,l),
(420,400,l),
(420,0,l),
(459,0,l),
(459,729,l),
(370,729,l),
(262,79,l),
(260,79,l),
(153,729,l),
(65,729,l),
(65,0,l)
);
}
);
};
layerId = "3EA3B1CB-93A8-4797-B6E7-F37D7992F5D0";
name = "[300]";
shapes = (
{
closed = 1;
nodes = (
(97,0,l),
(97,414,l),
(94,693,l),
(100,693,l),
(227,0,l),
(286,0,l),
(412,693,l),
(419,693,l),
(416,414,l),
(416,0,l),
(448,0,l),
(448,729,l),
(371,729,l),
(256,75,l),
(255,75,l),
(141,729,l),
(65,729,l),
(65,0,l)
);
}
);
width = 513;
},
{
anchors = (
{
name = bottom;
pos = (334,0);
},
{
name = top;
pos = (334,729);
}
);
associatedMasterId = "E787E54A-EE3E-475A-BF02-8501A6DA5144";
attr = {
axisRules = (
{
min = 300;
},
{
}
);
};
background = {
shapes = (
{
closed = 1;
nodes = (
(213,0,l),
(213,133,l),
(211,480,l),
(217,480,l),
(274,0,l),
(394,0,l),
(451,480,l),
(457,480,l),
(455,133,l),
(455,0,l),
(640,0,l),
(640,729,l),
(371,729,l),
(337,358,l),
(330,358,l),
(296,729,l),
(28,729,l),
(28,0,l)
);
}
);
};
layerId = "4F054EF2-639E-4250-AAE2-4C591229F04D";
name = "[300]";
shapes = (
{
closed = 1;
nodes = (
(198,0,l),
(198,133,l),
(196,560,l),
(202,560,l),
(264,0,l),
(404,0,l),
(466,560,l),
(472,560,l),
(470,133,l),
(470,0,l),
(640,0,l),
(640,729,l),
(371,729,l),
(337,318,l),
(330,318,l),
(296,729,l),
(28,729,l),
(28,0,l)
);
}
);
width = 668;
},
{
anchors = (
{
name = bottom;
pos = (449,0);
},
{
name = top;
pos = (449,729);
}
);
associatedMasterId = master01;
attr = {
axisRules = (
{
min = 300;
},
{
}
);
};
layerId = "38F36531-5584-41F9-ADC9-6FA99919B1E5";
name = "[300]";
shapes = (
{
closed = 1;
nodes = (
(141,0,l),
(141,420,l),
(139,686,l),
(145,686,l),
(431,0,l),
(467,0,l),
(752,686,l),
(759,686,l),
(756,420,l),
(756,0,l),
(795,0,l),
(795,729,l),
(733,729,l),
(449,50,l),
(447,50,l),
(165,729,l),
(103,729,l),
(103,0,l)
);
}
);
userData = {
com.schriftgestaltung.Glyphs.glyph.leftMetricsKey = H;
com.schriftgestaltung.Glyphs.glyph.rightMetricsKey = H;
com.schriftgestaltung.hints = (
{
horizontal = 1;
options = 0;
origin = (
0,
16
);
stem = -2;
target = (
u,
p
);
type = BottomGhost;
},
{
horizontal = 1;
options = 0;
origin = (
0,
15
);
stem = -2;
target = (
0,
2
);
type = Stem;
},
{
horizontal = 0;
options = 0;
origin = (
0,
16
);
stem = -2;
target = (
0,
0
);
type = Stem;
},
{
horizontal = 0;
options = 0;
origin = (
0,
8
);
stem = -2;
target = (
0,
9
);
type = Stem;
}
);
};
width = 898;
},
{
anchors = (
{
name = bottom;
pos = (475,0);
},
{
name = top;
pos = (475,729);
}
);
associatedMasterId = "1EDCBF6C-9964-4A28-BC87-E86B534B8BE7";
attr = {
axisRules = (
{
min = 300;
},
{
}
);
};
layerId = "92A9B09C-B43A-4071-8E30-B52A12EB5D23";
name = "[300]";
shapes = (
{
closed = 1;
nodes = (
(267,0,l),
(267,233,l),
(264,518,l),
(273,518,l),
(398,0,l),
(554,0,l),
(679,518,l),
(686,518,l),
(684,235,l),
(684,0,l),
(880,0,l),
(880,729,l),
(574,729,l),
(480,333,l),
(472,333,l),
(375,729,l),
(69,729,l),
(69,0,l)
);
}
);
userData = {
com.schriftgestaltung.Glyphs.glyph.leftMetricsKey = H;
com.schriftgestaltung.Glyphs.glyph.rightMetricsKey = H;
};
width = 949;
},
{
anchors = (
{
name = bottom;
pos = (460,0);
},
{
name = top;
pos = (460,729);
}
);
layerId = "28A8A76A-23B4-40F5-83B9-DC51E48BF161";
shapes = (
{
closed = 1;
nodes = (
(109,0,l),
(109,420,l),
(107,686,l),
(113,686,l),
(443,0,l),
(477,0,l),
(806,686,l),
(813,686,l),
(810,420,l),
(810,0,l),
(849,0,l),
(849,729,l),
(786,729,l),
(460,50,l),
(458,50,l),
(133,729,l),
(71,729,l),
(71,0,l)
);
}
);
width = 920;
},
{
anchors = (
{
name = bottom;
pos = (519,0);
},
{
name = top;
pos = (519,729);
}
);
layerId = "D2144554-01B8-4B9B-B16A-E0E5B5794DFC";
shapes = (
{
closed = 1;
nodes = (
(268,0,l),
(268,233,l),
(265,503,l),
(275,503,l),
(421,0,l),
(619,0,l),
(765,503,l),
(774,503,l),
(772,235,l),
(772,0,l),
(984,0,l),
(984,729,l),
(644,729,l),
(525,277,l),
(517,277,l),
(394,729,l),
(54,729,l),
(54,0,l)
);
}
);
width = 1038;
},
{
anchors = (
{
name = bottom;
pos = (460,0);
},
{
name = top;
pos = (460,729);
}
);
associatedMasterId = "28A8A76A-23B4-40F5-83B9-DC51E48BF161";
attr = {
axisRules = (
{
min = 300;
},
{
}
);
};
layerId = "9EC30BA4-26BE-4FBC-8572-943EEEC4E0FA";
name = "[300]";
shapes = (
{
closed = 1;
nodes = (
(109,0,l),
(109,420,l),
(107,686,l),
(113,686,l),
(443,0,l),
(477,0,l),
(806,686,l),
(813,686,l),
(810,420,l),
(810,0,l),
(849,0,l),
(849,729,l),
(786,729,l),
(460,50,l),
(458,50,l),
(133,729,l),
(71,729,l),
(71,0,l)
);
}
);
width = 920;
},
{
anchors = (
{
name = bottom;
pos = (519,0);
},
{
name = top;
pos = (519,729);
}
);
associatedMasterId = "D2144554-01B8-4B9B-B16A-E0E5B5794DFC";
attr = {
axisRules = (
{
min = 300;
},
{
}
);
};
layerId = "FEA6AB38-8D31-4C1D-9654-5872CE93C4E5";
name = "[300]";
shapes = (
{
closed = 1;
nodes = (
(268,0,l),
(268,233,l),
(265,503,l),
(275,503,l),
(421,0,l),
(619,0,l),
(765,503,l),
(774,503,l),
(772,235,l),
(772,0,l),
(984,0,l),
(984,729,l),
(644,729,l),
(525,277,l),
(517,277,l),
(394,729,l),
(54,729,l),
(54,0,l)
);
}
);
width = 1038;
}
);
metricLeft = H;
metricRight = H;
unicode = 77;
},
{
glyphname = N;
kernLeft = B;
kernRight = H;
lastChange = "2022-12-13 14:31:45 +0000";
layers = (
{
anchors = (
{
name = bottom;
pos = (243,0);
},
{
name = top;
pos = (243,729);
}
);
layerId = "E787E54A-EE3E-475A-BF02-8501A6DA5144";
shapes = (
{
closed = 1;
nodes = (
(192,0,l),
(192,157,l),
(183,358,l),
(189,358,l),
(270,0,l),
(457,0,l),
(457,729,l),
(293,729,l),
(293,575,l),
(302,366,l),
(295,366,l),
(217,729,l),
(28,729,l),
(28,0,l)
);
}
);
width = 485;
},
{
anchors = (
{
name = bottom;
pos = (222,0);
},
{
name = top;
pos = (222,729);
}
);
layerId = "5713303B-ED49-44A7-8230-B5CAE56DEB7E";
shapes = (
{
closed = 1;
nodes = (
(97,0,l),
(97,416,l),
(93,672,l),
(99,672,l),
(331,0,l),
(379,0,l),
(379,729,l),
(347,729,l),
(347,322,l),
(351,56,l),
(346,56,l),
(112,729,l),
(65,729,l),
(65,0,l)
);
}
);
width = 444;
},
{
anchors = (
{
name = bottom;
pos = (391,0);
},
{
name = top;
pos = (391,729);
}
);
layerId = master01;
shapes = (
{
closed = 1;
nodes = (
(141,0,l),
(141,436,l),
(138,686,l),
(143,686,l),
(624,0,l),
(679,0,l),
(679,729,l),
(641,729,l),
(641,303,l),
(645,43,l),
(640,43,l),
(158,729,l),
(103,729,l),
(103,0,l)
);
}
);
userData = {
com.schriftgestaltung.Glyphs.glyph.leftMetricsKey = H;
com.schriftgestaltung.Glyphs.glyph.rightMetricsKey = H;
com.schriftgestaltung.hints = (
{
horizontal = 1;
options = 0;
origin = (
0,
10
);
stem = -2;
target = (
0,
13
);
type = Stem;
},
{
horizontal = 1;
options = 0;
origin = (
0,
12
);
stem = -2;
target = (
0,
2
);
type = Stem;
},
{
horizontal = 0;
options = 0;
origin = (
0,
13
);
stem = -2;
target = (
0,
0
);
type = Stem;
},
{
horizontal = 0;
options = 0;
origin = (
0,
8
);
stem = -2;
target = (
0,
5
);
type = Stem;
}
);
};
width = 782;
},
{
anchors = (
{
name = bottom;
pos = (405,0);
},
{
name = top;
pos = (405,729);
}
);
background = {
shapes = (
{
closed = 1;
nodes = (
(282,0,l),
(282,196,l),
(276,431,l),
(284,431,l),
(496,0,l),
(741,0,l),
(741,729,l),
(540,729,l),
(540,534,l),
(546,292,l),
(538,292,l),
(335,729,l),
(69,729,l),
(69,0,l)
);
}
);
};
layerId = "1EDCBF6C-9964-4A28-BC87-E86B534B8BE7";
shapes = (
{
closed = 1;
nodes = (
(276,0,l),
(276,236,l),
(271,431,l),
(279,431,l),
(516,0,l),
(741,0,l),
(741,729,l),
(546,729,l),
(546,504,l),
(553,282,l),
(545,282,l),
(308,729,l),
(69,729,l),
(69,0,l)
);
}
);
userData = {
com.schriftgestaltung.Glyphs.glyph.leftMetricsKey = H;
com.schriftgestaltung.Glyphs.glyph.rightMetricsKey = H;
};
width = 810;
},
{
anchors = (
{
name = bottom;
pos = (402,0);
},
{
name = top;
pos = (402,729);
}
);
layerId = "28A8A76A-23B4-40F5-83B9-DC51E48BF161";
shapes = (
{
closed = 1;
nodes = (
(109,0,l),
(109,436,l),
(106,686,l),
(111,686,l),
(680,0,l),
(732,0,l),
(732,729,l),
(694,729,l),
(694,303,l),
(698,43,l),
(693,43,l),
(123,729,l),
(71,729,l),
(71,0,l)
);
}
);
width = 803;
},
{
anchors = (
{
name = bottom;
pos = (448,0);
},
{
name = top;
pos = (448,729);
}
);
layerId = "D2144554-01B8-4B9B-B16A-E0E5B5794DFC";
shapes = (
{
closed = 1;
nodes = (
(285,0,l),
(285,226,l),
(278,424,l),
(287,424,l),
(569,0,l),
(841,0,l),
(841,729,l),
(614,729,l),
(614,504,l),
(620,299,l),
(612,299,l),
(330,729,l),
(54,729,l),
(54,0,l)
);
}
);
width = 895;
}
);
metricLeft = H;
metricRight = H;
unicode = 78;
},
{
glyphname = O;
kernLeft = C;
kernRight = C;
lastChange = "2022-12-13 14:31:45 +0000";
layers = (
{
anchors = (
{
name = bottom;
pos = (255,0);
},
{
name = center;
pos = (255,365);
},
{
name = ogonek;
pos = (459,10);
},
{
name = top;
pos = (255,729);
},
{
name = topleft;
pos = (20,729);
},
{
name = topright;
pos = (490,729);
}
);
layerId = "E787E54A-EE3E-475A-BF02-8501A6DA5144";
shapes = (
{
closed = 1;
nodes = (
(435,-9,o),
(486,136,o),
(486,365,cs),
(486,594,o),
(435,739,o),
(255,739,cs),
(76,739,o),
(24,595,o),
(24,365,cs),
(24,135,o),
(76,-9,o),
(255,-9,cs)
);
},
{
closed = 1;
nodes = (
(217,147,o),
(205,202,o),
(205,365,cs),
(205,515,o),
(213,583,o),
(255,583,cs),
(293,583,o),
(306,529,o),
(306,365,cs),
(306,217,o),
(298,147,o),
(255,147,cs)
);
}
);
width = 510;
},
{
anchors = (
{
name = bottom;
pos = (204,0);
},
{
name = center;
pos = (204,365);
},
{
name = ogonek;
pos = (366,10);
},
{
name = top;
pos = (204,729);
},
{
name = topleft;
pos = (20,729);
},
{
name = topright;
pos = (387,729);
}
);
background = {
shapes = (
{
closed = 1;
nodes = (
(474,-8,o),
(546,126,o),
(546,366,cs),
(546,605,o),
(474,739,o),
(287,739,cs),
(100,739,o),
(28,605,o),
(28,366,cs),
(28,126,o),
(100,-8,o),
(287,-8,cs)
);
},
{
closed = 1;
nodes = (
(133,28,o),
(69,150,o),
(69,337,cs),
(69,394,ls),
(69,581,o),
(133,703,o),
(287,703,cs),
(441,703,o),
(505,581,o),
(505,394,cs),
(505,337,ls),
(505,150,o),
(441,28,o),
(287,28,cs)
);
}
);
};
layerId = "5713303B-ED49-44A7-8230-B5CAE56DEB7E";
shapes = (
{
closed = 1;
nodes = (
(300,-10,o),
(369,61,o),
(369,364,cs),
(369,666,o),
(300,738,o),
(203,738,cs),
(107,738,o),
(38,667,o),
(38,364,cs),
(38,61,o),
(107,-10,o),
(203,-10,cs)
);
},
{
closed = 1;
nodes = (
(98,19,o),
(71,158,o),
(71,364,cs),
(71,570,o),
(98,709,o),
(203,709,cs),
(309,709,o),
(336,569,o),
(336,364,cs),
(336,159,o),
(309,19,o),
(203,19,cs)
);
}
);
width = 407;
},
{
anchors = (
{
name = bottom;
pos = (396,0);
},
{
name = center;
pos = (396,365);
},
{
name = ogonek;
pos = (713,10);
},
{
name = top;
pos = (396,729);
},
{
name = topleft;
pos = (20,729);
},
{
name = topright;
pos = (772,729);
}
);
layerId = master01;
shapes = (
{
closed = 1;
nodes = (
(606,-8,o),
(746,140,o),
(746,364,cs),
(746,587,o),
(608,736,o),
(396,736,cs),
(185,736,o),
(46,588,o),
(46,364,cs),
(46,142,o),
(184,-8,o),
(396,-8,cs)
);
},
{
closed = 1;
nodes = (
(205,28,o),
(87,163,o),
(87,364,cs),
(87,565,o),
(204,700,o),
(396,700,cs),
(587,700,o),
(706,566,o),
(706,364,cs),
(706,164,o),
(588,28,o),
(396,28,cs)
);
}
);
userData = {
com.schriftgestaltung.hints = (
{
horizontal = 1;
options = 0;
place = (
0,
0
);
stem = -2;
type = Stem;
},
{
horizontal = 1;
options = 0;
origin = (
0,
8
);
stem = -2;
target = (
1,
2
);
type = Stem;
},
{
horizontal = 0;
options = 0;
place = (
0,
0
);
stem = -2;
type = Stem;
},
{
horizontal = 0;
options = 0;
origin = (
1,
5
);
stem = -2;
target = (
0,
5
);
type = Stem;
}
);
};
width = 792;
},
{
anchors = (
{
name = bottom;
pos = (404,0);
},
{
name = center;
pos = (404,365);
},
{
name = ogonek;
pos = (726,10);
},
{
name = top;
pos = (404,729);
},
{
name = topleft;
pos = (20,729);
},
{
name = topright;
pos = (787,729);
}
);
background = {
shapes = (
{
closed = 1;
nodes = (
(628,-10,o),
(777,121,o),
(777,365,cs),
(777,608,o),
(628,739,o),
(404,739,cs),
(180,739,o),
(31,608,o),
(31,365,cs),
(31,121,o),
(180,-10,o),
(404,-10,cs)
);
},
{
closed = 1;
nodes = (
(308,166,o),
(244,222,o),
(244,365,cs),
(244,507,o),
(308,563,o),
(404,563,cs),
(500,563,o),
(564,507,o),
(564,365,cs),
(564,222,o),
(500,166,o),
(404,166,cs)
);
}
);
};
layerId = "1EDCBF6C-9964-4A28-BC87-E86B534B8BE7";
shapes = (
{
closed = 1;
nodes = (
(627,-10,o),
(776,122,o),
(776,365,cs),
(776,607,o),
(627,739,o),
(403,739,cs),
(180,739,o),
(31,607,o),
(31,365,cs),
(31,122,o),
(180,-10,o),
(403,-10,cs)
);
},
{
closed = 1;
nodes = (
(305,162,o),
(239,220,o),
(239,365,cs),
(239,509,o),
(305,567,o),
(403,567,cs),
(502,567,o),
(568,508,o),
(568,365,cs),
(568,221,o),
(502,162,o),
(403,162,cs)
);
}
);
width = 807;
},
{
anchors = (
{
name = bottom;
pos = (421,0);
},
{
name = center;
pos = (421,365);
},
{
name = ogonek;
pos = (758,10);
},
{
name = top;
pos = (421,729);
},
{
name = topleft;
pos = (20,729);
},
{
name = topright;
pos = (822,729);
}
);
layerId = "28A8A76A-23B4-40F5-83B9-DC51E48BF161";
shapes = (
{
closed = 1;
nodes = (
(649,-8,o),
(801,140,o),
(801,364,cs),
(801,587,o),
(651,736,o),
(421,736,cs),
(192,736,o),
(41,588,o),
(41,364,cs),
(41,142,o),
(191,-8,o),
(421,-8,cs)
);
},
{
closed = 1;
nodes = (
(211,28,o),
(81,163,o),
(81,364,cs),
(81,565,o),
(209,700,o),
(421,700,cs),
(630,700,o),
(761,566,o),
(761,364,cs),
(761,164,o),
(632,28,o),
(421,28,cs)
);
}
);
width = 842;
},
{
anchors = (
{
name = bottom;
pos = (446,0);
},
{
name = center;
pos = (446,365);
},
{
name = ogonek;
pos = (802,10);
},
{
name = top;
pos = (446,729);
},
{
name = topleft;
pos = (20,729);
},
{
name = topright;
pos = (871,729);
}
);
layerId = "D2144554-01B8-4B9B-B16A-E0E5B5794DFC";
shapes = (
{
closed = 1;
nodes = (
(715,-10,o),
(869,138,o),
(869,365,cs),
(869,592,o),
(715,739,o),
(447,739,cs),
(176,739,o),
(22,592,o),
(22,365,cs),
(22,138,o),
(176,-10,o),
(447,-10,cs)
);
},
{
closed = 1;
nodes = (
(330,170,o),
(253,230,o),
(253,365,cs),
(253,500,o),
(330,560,o),
(447,560,cs),
(562,560,o),
(639,500,o),
(639,365,cs),
(639,230,o),
(562,170,o),
(447,170,cs)
);
}
);
width = 891;
}
);
metricLeft = C;
unicode = 79;
},
{
glyphname = OE;
kernLeft = C;
kernRight = AE;
lastChange = "2022-12-13 14:31:45 +0000";
layers = (
{
anchors = (
{
name = bottom;
pos = (289,0);
},
{
name = top;
pos = (289,729);
}
);
layerId = "5713303B-ED49-44A7-8230-B5CAE56DEB7E";
shapes = (
{
closed = 1;
nodes = (
(557,0,l),
(557,28,l),
(352,28,l),
(352,361,l),
(526,361,l),
(526,389,l),
(352,389,l),
(352,701,l),
(557,701,l),
(557,729,l),
(245,729,ls),
(90,729,o),
(38,579,o),
(38,364,cs),
(38,148,o),
(94,0,o),
(245,0,cs)
);
},
{
closed = 1;
nodes = (
(141,28,o),
(71,109,o),
(71,364,cs),
(71,620,o),
(141,701,o),
(244,701,cs),
(321,701,l),
(321,28,l),
(244,28,ls)
);
}
);
width = 577;
},
{
anchors = (
{
name = bottom;
pos = (327,0);
},
{
name = top;
pos = (327,729);
}
);
layerId = "E787E54A-EE3E-475A-BF02-8501A6DA5144";
shapes = (
{
closed = 1;
nodes = (
(635,0,l),
(635,157,l),
(480,157,l),
(480,299,l),
(621,299,l),
(621,445,l),
(480,445,l),
(480,572,l),
(635,572,l),
(635,729,l),
(303,729,ls),
(73,727,o),
(24,578,o),
(24,365,cs),
(24,95,o),
(118,0,o),
(308,0,cs)
);
},
{
closed = 1;
nodes = (
(222,157,o),
(204,205,o),
(204,361,cs),
(204,502,o),
(214,572,o),
(276,572,cs),
(303,572,l),
(303,157,l),
(276,157,ls)
);
}
);
width = 653;
},
{
anchors = (
{
name = bottom;
pos = (569,0);
},
{
name = top;
pos = (569,729);
}
);
layerId = master01;
shapes = (
{
closed = 1;
nodes = (
(1084,0,l),
(1084,37,l),
(641,37,l),
(641,358,l),
(1036,358,l),
(1036,392,l),
(641,392,l),
(641,693,l),
(1084,693,l),
(1084,729,l),
(367,729,ls),
(167,729,o),
(46,585,o),
(46,365,cs),
(46,144,o),
(167,0,o),
(367,0,cs)
);
},
{
closed = 1;
nodes = (
(196,36,o),
(86,159,o),
(86,364,cs),
(86,562,o),
(191,692,o),
(368,692,cs),
(603,692,l),
(603,36,l),
(368,36,ls)
);
}
);
width = 1138;
},
{
anchors = (
{
name = bottom;
pos = (557,0);
},
{
name = top;
pos = (557,729);
}
);
layerId = "1EDCBF6C-9964-4A28-BC87-E86B534B8BE7";
shapes = (
{
closed = 1;
nodes = (
(1068,0,l),
(1068,172,l),
(718,172,l),
(718,288,l),
(1015,288,l),
(1015,449,l),
(718,449,l),
(718,557,l),
(1065,557,l),
(1065,729,l),
(373,729,ls),
(150,729,o),
(31,582,o),
(31,365,cs),
(31,148,o),
(149,0,o),
(373,0,cs)
);
},
{
closed = 1;
nodes = (
(311,171,o),
(238,203,o),
(238,361,cs),
(238,529,o),
(315,558,o),
(408,558,cs),
(515,558,l),
(515,171,l),
(408,171,ls)
);
}
);
width = 1113;
},
{
anchors = (
{
name = bottom;
pos = (641,0);
},
{
name = top;
pos = (641,729);
}
);
layerId = "28A8A76A-23B4-40F5-83B9-DC51E48BF161";
shapes = (
{
closed = 1;
nodes = (
(1249,0,l),
(1249,37,l),
(721,37,l),
(721,358,l),
(1201,358,l),
(1201,392,l),
(721,392,l),
(721,693,l),
(1249,693,l),
(1249,729,l),
(409,729,ls),
(181,729,o),
(41,585,o),
(41,365,cs),
(41,144,o),
(181,0,o),
(409,0,cs)
);
},
{
closed = 1;
nodes = (
(208,36,o),
(80,159,o),
(80,364,cs),
(80,562,o),
(202,692,o),
(409,692,cs),
(683,692,l),
(683,36,l),
(409,36,ls)
);
}
);
width = 1281;
},
{
anchors = (
{
name = bottom;
pos = (621,0);
},
{
name = top;
pos = (621,729);
}
);
layerId = "D2144554-01B8-4B9B-B16A-E0E5B5794DFC";
shapes = (
{
closed = 1;
nodes = (
(1215,0,l),
(1215,179,l),
(803,179,l),
(803,282,l),
(1162,282,l),
(1162,449,l),
(803,449,l),
(803,550,l),
(1212,550,l),
(1212,729,l),
(412,729,ls),
(175,729,o),
(22,608,o),
(22,365,cs),
(22,146,o),
(148,0,o),
(412,0,cs)
);
},
{
closed = 1;
nodes = (
(337,175,o),
(253,216,o),
(253,361,cs),
(253,485,o),
(307,554,o),
(459,554,cs),
(574,554,l),
(574,175,l),
(459,175,ls)
);
}
);
width = 1242;
}
);
metricLeft = C;
metricRight = E;
unicode = 338;
},
{
glyphname = P;
kernLeft = B;
kernRight = P;
lastChange = "2022-12-13 14:31:45 +0000";
layers = (
{
anchors = (
{
name = bottom;
pos = (234,0);
},
{
name = top;
pos = (234,729);
}
);
background = {
shapes = (
{
closed = 1;
nodes = (
(231,0,l),
(231,231,l),
(349,231,ls),
(539,231,o),
(629,331,o),
(629,480,cs),
(629,649,o),
(521,729,o),
(359,729,cs),
(28,729,l),
(28,0,l)
);
},
{
closed = 1;
nodes = (
(231,550,l),
(335,550,ls),
(391,550,o),
(417,526,o),
(417,472,cs),
(417,423,o),
(395,394,o),
(335,394,cs),
(231,394,l)
);
}
);
};
layerId = "E787E54A-EE3E-475A-BF02-8501A6DA5144";
shapes = (
{
closed = 1;
nodes = (
(207,0,l),
(207,594,l),
(183,572,l),
(223,572,ls),
(260,572,o),
(278,550,o),
(278,473,cs),
(278,408,o),
(269,369,o),
(223,369,cs),
(191,369,l),
(191,212,l),
(229,212,ls),
(382,212,o),
(459,296,o),
(459,471,cs),
(459,644,o),
(382,729,o),
(229,729,cs),
(28,729,l),
(28,0,l)
);
}
);
width = 468;
},
{
anchors = (
{
name = bottom;
pos = (192,0);
},
{
name = top;
pos = (192,729);
}
);
layerId = "5713303B-ED49-44A7-8230-B5CAE56DEB7E";
shapes = (
{
closed = 1;
nodes = (
(96,0,l),
(96,711,l),
(83,701,l),
(180,701,ls),
(263,701,o),
(316,651,o),
(316,522,cs),
(316,391,o),
(262,343,o),
(180,343,cs),
(89,343,l),
(89,315,l),
(182,315,ls),
(300,315,o),
(349,398,o),
(349,522,cs),
(349,646,o),
(299,729,o),
(182,729,cs),
(65,729,l),
(65,0,l)
);
}
);
width = 384;
},
{
anchors = (
{
name = bottom;
pos = (323,0);
},
{
name = top;
pos = (323,729);
}
);
layerId = master01;
shapes = (
{
closed = 1;
nodes = (
(141,0,l),
(141,704,l),
(127,692,l),
(367,692,ls),
(500,692,o),
(575,623,o),
(575,509,cs),
(575,398,o),
(501,324,o),
(367,325,cs),
(132,326,l),
(132,290,l),
(369,289,ls),
(519,288,o),
(615,375,o),
(615,509,cs),
(615,649,o),
(520,729,o),
(370,729,cs),
(103,729,l),
(103,0,l)
);
}
);
userData = {
com.schriftgestaltung.hints = (
{
horizontal = 1;
options = 0;
origin = (
0,
10
);
stem = -2;
target = (
u,
p
);
type = BottomGhost;
},
{
horizontal = 1;
options = 0;
place = (
0,
0
);
stem = -2;
type = Stem;
},
{
horizontal = 1;
options = 0;
origin = (
0,
9
);
stem = -2;
target = (
1,
0
);
type = Stem;
},
{
horizontal = 0;
options = 0;
origin = (
0,
10
);
stem = -2;
target = (
0,
0
);
type = Stem;
},
{
horizontal = 0;
options = 0;
origin = (
1,
4
);
stem = -2;
target = (
0,
5
);
type = Stem;
}
);
};
width = 646;
},
{
anchors = (
{
name = bottom;
pos = (344,0);
},
{
name = top;
pos = (344,729);
}
);
background = {
shapes = (
{
closed = 1;
nodes = (
(272,0,l),
(272,231,l),
(402,231,ls),
(574,231,o),
(670,331,o),
(670,480,cs),
(670,639,o),
(563,729,o),
(402,729,cs),
(69,729,l),
(69,0,l)
);
},
{
closed = 1;
nodes = (
(272,557,l),
(366,557,ls),
(406,557,o),
(458,549,o),
(458,472,cs),
(458,395,o),
(406,387,o),
(366,387,cs),
(272,387,l)
);
}
);
};
layerId = "1EDCBF6C-9964-4A28-BC87-E86B534B8BE7";
shapes = (
{
closed = 1;
nodes = (
(272,0,l),
(272,583,l),
(250,559,l),
(364,559,ls),
(407,559,o),
(461,549,o),
(461,474,cs),
(461,396,o),
(407,387,o),
(364,387,cs),
(256,387,l),
(256,232,l),
(400,232,ls),
(571,232,o),
(667,334,o),
(667,482,cs),
(667,639,o),
(561,729,o),
(400,729,cs),
(69,729,l),
(69,0,l)
);
}
);
width = 687;
},
{
anchors = (
{
name = bottom;
pos = (349,0);
},
{
name = top;
pos = (349,729);
}
);
layerId = "28A8A76A-23B4-40F5-83B9-DC51E48BF161";
shapes = (
{
closed = 1;
nodes = (
(109,0,l),
(109,710,l),
(91,692,l),
(411,692,ls),
(553,692,o),
(628,623,o),
(628,509,cs),
(628,398,o),
(554,325,o),
(411,325,cs),
(100,326,l),
(100,290,l),
(413,289,ls),
(572,288,o),
(668,375,o),
(668,509,cs),
(668,649,o),
(573,729,o),
(414,729,cs),
(71,729,l),
(71,0,l)
);
}
);
width = 697;
},
{
anchors = (
{
name = bottom;
pos = (380,0);
},
{
name = top;
pos = (380,729);
}
);
background = {
shapes = (
{
closed = 1;
nodes = (
(283,0,l),
(283,237,l),
(422,237,ls),
(664,237,o),
(744,334,o),
(744,483,cs),
(744,665,o),
(628,729,o),
(422,729,cs),
(54,729,l),
(54,0,l)
);
},
{
closed = 1;
nodes = (
(283,550,l),
(405,550,ls),
(462,550,o),
(506,535,o),
(506,475,cs),
(506,426,o),
(479,399,o),
(405,399,cs),
(283,399,l)
);
}
);
};
layerId = "D2144554-01B8-4B9B-B16A-E0E5B5794DFC";
shapes = (
{
closed = 1;
nodes = (
(283,0,l),
(283,599,l),
(238,554,l),
(416,554,ls),
(469,554,o),
(510,538,o),
(510,476,cs),
(510,425,o),
(484,397,o),
(416,397,cs),
(267,397,l),
(267,239,l),
(441,239,ls),
(620,239,o),
(740,308,o),
(740,484,cs),
(740,631,o),
(656,729,o),
(441,729,cs),
(54,729,l),
(54,0,l)
);
}
);
width = 759;
}
);
metricLeft = H;
unicode = 80;
},
{
glyphname = Thorn;
lastChange = "2022-12-13 14:31:45 +0000";
layers = (
{
anchors = (
{
name = bottom;
pos = (192,0);
},
{
name = top;
pos = (192,729);
}
);
layerId = "5713303B-ED49-44A7-8230-B5CAE56DEB7E";
shapes = (
{
closed = 1;
nodes = (
(182,158,ls),
(300,158,o),
(349,241,o),
(349,365,cs),
(349,489,o),
(299,572,o),
(182,572,cs),
(83,572,l),
(83,544,l),
(180,544,ls),
(263,544,o),
(316,494,o),
(316,365,cs),
(316,234,o),
(262,186,o),
(180,186,cs),
(83,186,l),
(83,158,l)
);
},
{
ref = I;
}
);
width = 384;
},
{
anchors = (
{
name = bottom;
pos = (237,0);
},
{
name = top;
pos = (237,729);
}
);
layerId = "E787E54A-EE3E-475A-BF02-8501A6DA5144";
shapes = (
{
closed = 1;
nodes = (
(234,106,ls),
(387,106,o),
(464,190,o),
(464,365,cs),
(464,538,o),
(387,623,o),
(234,623,cs),
(189,623,l),
(189,466,l),
(228,466,ls),
(265,466,o),
(283,444,o),
(283,367,cs),
(283,302,o),
(274,263,o),
(228,263,cs),
(189,263,l),
(189,106,l)
);
},
{
ref = I;
}
);
width = 473;
},
{
anchors = (
{
name = bottom;
pos = (312,0);
},
{
name = top;
pos = (312,729);
}
);
layerId = master01;
shapes = (
{
closed = 1;
nodes = (
(347,145,ls),
(497,144,o),
(593,231,o),
(593,365,cs),
(593,505,o),
(498,585,o),
(348,585,cs),
(123,585,l),
(123,548,l),
(345,548,ls),
(478,548,o),
(553,479,o),
(553,365,cs),
(553,254,o),
(479,180,o),
(345,181,cs),
(123,182,l),
(123,146,l)
);
},
{
ref = I;
}
);
width = 624;
},
{
anchors = (
{
name = bottom;
pos = (339,0);
},
{
name = top;
pos = (339,729);
}
);
layerId = "1EDCBF6C-9964-4A28-BC87-E86B534B8BE7";
shapes = (
{
closed = 1;
nodes = (
(391,116,ls),
(562,116,o),
(658,218,o),
(658,366,cs),
(658,523,o),
(552,613,o),
(391,613,cs),
(226,613,l),
(226,443,l),
(355,443,ls),
(398,443,o),
(452,433,o),
(452,358,cs),
(452,280,o),
(398,271,o),
(355,271,cs),
(226,271,l),
(226,116,l)
);
},
{
ref = I;
}
);
width = 678;
},
{
anchors = (
{
name = bottom;
pos = (298,0);
},
{
name = top;
pos = (298,729);
}
);
layerId = "28A8A76A-23B4-40F5-83B9-DC51E48BF161";
shapes = (
{
closed = 1;
nodes = (
(311,145,ls),
(470,145,o),
(566,231,o),
(566,365,cs),
(566,505,o),
(471,585,o),
(312,585,cs),
(98,585,l),
(98,548,l),
(309,548,ls),
(451,548,o),
(526,479,o),
(526,365,cs),
(526,254,o),
(452,181,o),
(309,181,cs),
(98,182,l),
(98,146,l)
);
},
{
ref = I;
}
);
width = 595;
},
{
anchors = (
{
name = bottom;
pos = (369,0);
},
{
name = top;
pos = (369,729);
}
);
layerId = "D2144554-01B8-4B9B-B16A-E0E5B5794DFC";
shapes = (
{
closed = 1;
nodes = (
(420,120,ls),
(599,120,o),
(719,189,o),
(719,365,cs),
(719,512,o),
(635,610,o),
(420,610,cs),
(211,610,l),
(211,435,l),
(395,435,ls),
(448,435,o),
(489,419,o),
(489,357,cs),
(489,306,o),
(463,278,o),
(395,278,cs),
(211,278,l),
(211,120,l)
);
},
{
ref = I;
}
);
width = 738;
}
);
metricLeft = H;
metricRight = P;
unicode = 222;
},
{
glyphname = Q;
kernLeft = C;
kernRight = C;
lastChange = "2022-12-13 14:31:45 +0000";
layers = (
{
anchors = (
{
name = bottom;
pos = (255,0);
},
{
name = top;
pos = (255,729);
}
);
layerId = "E787E54A-EE3E-475A-BF02-8501A6DA5144";
shapes = (
{
closed = 1;
nodes = (
(456,-176,l),
(456,-33,l),
(348,21,l),
(451,56,o),
(486,177,o),
(486,365,cs),
(486,594,o),
(435,739,o),
(255,739,cs),
(76,739,o),
(24,595,o),
(24,365,cs),
(24,127,o),
(81,7,o),
(223,-7,c),
(432,-176,l)
);
},
{
closed = 1;
nodes = (
(217,147,o),
(205,202,o),
(205,365,cs),
(205,515,o),
(213,583,o),
(255,583,cs),
(293,583,o),
(306,529,o),
(306,365,cs),
(306,217,o),
(298,147,o),
(255,147,cs)
);
}
);
width = 510;
},
{
anchors = (
{
name = bottom;
pos = (204,0);
},
{
name = top;
pos = (204,729);
}
);
layerId = "5713303B-ED49-44A7-8230-B5CAE56DEB7E";
shapes = (
{
closed = 1;
nodes = (
(349,-136,l),
(349,-100,l),
(252,-2,l),
(322,22,o),
(369,114,o),
(369,364,cs),
(369,666,o),
(300,738,o),
(203,738,cs),
(107,738,o),
(38,667,o),
(38,364,cs),
(38,47,o),
(114,-17,o),
(219,-10,c),
(342,-136,l)
);
},
{
closed = 1;
nodes = (
(98,19,o),
(71,158,o),
(71,364,cs),
(71,570,o),
(98,709,o),
(203,709,cs),
(309,709,o),
(336,569,o),
(336,364,cs),
(336,159,o),
(309,19,o),
(203,19,cs)
);
}
);
width = 407;
},
{
anchors = (
{
name = bottom;
pos = (396,0);
},
{
name = top;
pos = (396,729);
}
);
layerId = master01;
shapes = (
{
closed = 1;
nodes = (
(647,-167,l),
(647,-127,l),
(452,-5,l),
(631,20,o),
(746,160,o),
(746,364,cs),
(746,587,o),
(608,736,o),
(396,736,cs),
(185,736,o),
(46,588,o),
(46,364,cs),
(46,142,o),
(185,-8,o),
(396,-8,c),
(640,-167,l)
);
},
{
closed = 1;
nodes = (
(205,28,o),
(87,163,o),
(87,364,cs),
(87,565,o),
(204,700,o),
(396,700,cs),
(587,700,o),
(706,566,o),
(706,364,cs),
(706,164,o),
(588,28,o),
(396,28,cs)
);
}
);
userData = {
com.schriftgestaltung.Glyphs.glyph.leftMetricsKey = O;
com.schriftgestaltung.Glyphs.glyph.rightMetricsKey = O;
com.schriftgestaltung.hints = (
{
horizontal = 1;
options = 0;
origin = (
0,
15
);
stem = -2;
target = (
u,
p
);
type = BottomGhost;
},
{
horizontal = 1;
options = 0;
origin = (
1,
11
);
stem = -2;
target = (
0,
14
);
type = Stem;
},
{
horizontal = 1;
options = 0;
origin = (
0,
8
);
stem = -2;
target = (
1,
5
);
type = Stem;
},
{
horizontal = 0;
options = 0;
origin = (
0,
11
);
stem = -2;
target = (
1,
2
);
type = Stem;
},
{
horizontal = 0;
options = 0;
origin = (
1,
8
);
stem = -2;
target = (
0,
5
);
type = Stem;
}
);
};
width = 792;
},
{
anchors = (
{
name = bottom;
pos = (404,0);
},
{
name = top;
pos = (404,729);
}
);
layerId = "1EDCBF6C-9964-4A28-BC87-E86B534B8BE7";
shapes = (
{
closed = 1;
nodes = (
(727,-177,l),
(727,-4,l),
(559,25,l),
(698,75,o),
(776,194,o),
(776,365,cs),
(776,607,o),
(627,739,o),
(403,739,cs),
(180,739,o),
(31,607,o),
(31,365,cs),
(31,128,o),
(173,-3,o),
(387,-10,c),
(695,-177,l)
);
},
{
closed = 1;
nodes = (
(305,162,o),
(239,220,o),
(239,365,cs),
(239,509,o),
(305,567,o),
(403,567,cs),
(502,567,o),
(568,508,o),
(568,365,cs),
(568,221,o),
(502,162,o),
(403,162,cs)
);
}
);
userData = {
com.schriftgestaltung.Glyphs.glyph.leftMetricsKey = O;
com.schriftgestaltung.Glyphs.glyph.rightMetricsKey = O;
};
width = 807;
},
{
anchors = (
{
name = bottom;
pos = (421,0);
},
{
name = top;
pos = (421,729);
}
);
layerId = "28A8A76A-23B4-40F5-83B9-DC51E48BF161";
shapes = (
{
closed = 1;
nodes = (
(676,-167,l),
(676,-128,l),
(471,-4,l),
(671,17,o),
(801,158,o),
(801,364,cs),
(801,587,o),
(651,736,o),
(421,736,cs),
(192,736,o),
(41,588,o),
(41,364,cs),
(41,142,o),
(191,-8,o),
(419,-8,c),
(669,-167,l)
);
},
{
closed = 1;
nodes = (
(211,28,o),
(81,163,o),
(81,364,cs),
(81,565,o),
(209,700,o),
(421,700,cs),
(630,700,o),
(761,566,o),
(761,364,cs),
(761,164,o),
(632,28,o),
(421,28,cs)
);
}
);
width = 842;
},
{
anchors = (
{
name = bottom;
pos = (446,0);
},
{
name = top;
pos = (446,729);
}
);
layerId = "D2144554-01B8-4B9B-B16A-E0E5B5794DFC";
shapes = (
{
closed = 1;
nodes = (
(800,-178,l),
(800,-14,l),
(630,34,l),
(782,78,o),
(869,208,o),
(869,365,cs),
(869,592,o),
(715,739,o),
(447,739,cs),
(176,739,o),
(22,592,o),
(22,365,cs),
(22,145,o),
(168,-2,o),
(425,-10,c),
(767,-178,l)
);
},
{
closed = 1;
nodes = (
(330,170,o),
(253,230,o),
(253,365,cs),
(253,500,o),
(330,560,o),
(447,560,cs),
(562,560,o),
(639,500,o),
(639,365,cs),
(639,230,o),
(562,170,o),
(447,170,cs)
);
}
);
width = 891;
}
);
metricLeft = O;
unicode = 81;
},
{
glyphname = R;
kernLeft = B;
kernRight = R;
lastChange = "2022-12-13 14:31:45 +0000";
layers = (
{
anchors = (
{
name = bottom;
pos = (237,0);
},
{
name = top;
pos = (237,729);
}
);
background = {
shapes = (
{
closed = 1;
nodes = (
(255,0,l),
(255,200,l),
(281,200,ls),
(454,200,o),
(536,284,o),
(536,464,cs),
(536,644,o),
(454,729,o),
(281,729,cs),
(58,729,l),
(58,0,l)
);
},
{
closed = 1;
nodes = (
(255,557,l),
(275,557,ls),
(318,557,o),
(339,539,o),
(339,468,cs),
(339,403,o),
(326,372,o),
(275,372,cs),
(255,372,l)
);
}
);
};
layerId = "E787E54A-EE3E-475A-BF02-8501A6DA5144";
shapes = (
{
closed = 1;
nodes = (
(207,0,l),
(207,248,l),
(232,248,ls),
(266,248,o),
(267,206,o),
(267,171,cs),
(267,63,ls),
(267,50,o),
(269,20,o),
(275,0,c),
(456,0,l),
(452,21,o),
(449,43,o),
(449,74,cs),
(449,191,ls),
(449,263,o),
(432,328,o),
(376,338,c),
(376,345,l),
(427,363,o),
(460,422,o),
(460,517,cs),
(460,680,o),
(367,729,o),
(229,729,cs),
(28,729,l),
(28,0,l)
);
},
{
closed = 1;
nodes = (
(207,572,l),
(219,572,ls),
(262,572,o),
(280,548,o),
(280,480,cs),
(280,421,o),
(269,388,o),
(220,388,cs),
(207,388,l)
);
}
);
width = 473;
},
{
anchors = (
{
name = bottom;
pos = (194,0);
},
{
name = top;
pos = (194,729);
}
);
layerId = "5713303B-ED49-44A7-8230-B5CAE56DEB7E";
shapes = (
{
closed = 1;
nodes = (
(96,0,l),
(96,341,l),
(232,341,ls),
(282,341,o),
(317,316,o),
(317,212,cs),
(317,78,ls),
(317,48,o),
(317,24,o),
(325,0,c),
(355,0,l),
(348,26,o),
(348,50,o),
(348,73,cs),
(348,208,ls),
(348,302,o),
(323,342,o),
(277,355,c),
(277,362,l),
(332,387,o),
(360,453,o),
(360,535,cs),
(360,668,o),
(305,729,o),
(198,729,cs),
(65,729,l),
(65,0,l)
);
},
{
closed = 1;
nodes = (
(96,701,l),
(195,701,ls),
(298,701,o),
(327,634,o),
(327,537,cs),
(327,441,o),
(291,370,o),
(202,370,cs),
(96,370,l)
);
}
);
width = 388;
},
{
anchors = (
{
name = bottom;
pos = (350,0);
},
{
name = top;
pos = (350,729);
}
);
layerId = master01;
shapes = (
{
closed = 1;
nodes = (
(141,0,l),
(141,336,l),
(423,336,ls),
(549,336,o),
(580,291,o),
(580,200,cs),
(580,77,ls),
(580,45,o),
(581,22,o),
(591,0,c),
(630,0,l),
(619,26,o),
(619,50,o),
(619,73,cs),
(619,207,ls),
(619,291,o),
(589,341,o),
(503,354,c),
(503,361,l),
(591,386,o),
(634,450,o),
(634,540,cs),
(634,660,o),
(555,729,o),
(413,729,cs),
(103,729,l),
(103,0,l)
);
},
{
closed = 1;
nodes = (
(141,693,l),
(409,693,ls),
(521,693,o),
(595,645,o),
(595,536,cs),
(595,439,o),
(542,371,o),
(409,371,cs),
(141,371,l)
);
}
);
userData = {
com.schriftgestaltung.Glyphs.glyph.leftMetricsKey = H;
com.schriftgestaltung.hints = (
{
horizontal = 1;
options = 0;
origin = (
0,
26
);
stem = -2;
target = (
u,
p
);
type = BottomGhost;
},
{
horizontal = 1;
options = 0;
origin = (
1,
8
);
stem = -2;
target = (
0,
1
);
type = Stem;
},
{
horizontal = 1;
options = 0;
origin = (
0,
25
);
stem = -2;
target = (
1,
0
);
type = Stem;
},
{
horizontal = 0;
options = 0;
origin = (
0,
26
);
stem = -2;
target = (
0,
0
);
type = Stem;
},
{
horizontal = 0;
options = 0;
origin = (
0,
6
);
stem = -2;
target = (
0,
13
);
type = Stem;
},
{
horizontal = 0;
options = 0;
origin = (
1,
4
);
stem = -2;
target = (
0,
21
);
type = Stem;
}
);
};
width = 699;
},
{
anchors = (
{
name = bottom;
pos = (374,0);
},
{
name = top;
pos = (374,729);
}
);
background = {
shapes = (
{
closed = 1;
nodes = (
(272,0,l),
(272,241,l),
(402,241,ls),
(475,241,o),
(495,210,o),
(495,159,cs),
(495,87,ls),
(495,49,o),
(499,16,o),
(507,0,c),
(711,0,l),
(698,29,o),
(698,60,o),
(698,88,cs),
(698,194,ls),
(698,275,o),
(661,318,o),
(592,333,c),
(592,340,l),
(667,357,o),
(717,426,o),
(717,512,cs),
(717,652,o),
(631,729,o),
(449,729,cs),
(69,729,l),
(69,0,l)
);
},
{
closed = 1;
nodes = (
(272,563,l),
(419,563,ls),
(472,563,o),
(509,543,o),
(509,484,cs),
(509,436,o),
(484,400,o),
(419,400,cs),
(272,400,l)
);
}
);
};
layerId = "1EDCBF6C-9964-4A28-BC87-E86B534B8BE7";
shapes = (
{
closed = 1;
nodes = (
(272,0,l),
(272,241,l),
(402,241,ls),
(475,241,o),
(495,210,o),
(495,159,cs),
(495,87,ls),
(495,49,o),
(499,16,o),
(507,0,c),
(711,0,l),
(698,29,o),
(698,60,o),
(698,88,cs),
(698,194,ls),
(698,275,o),
(661,318,o),
(592,333,c),
(592,340,l),
(667,357,o),
(717,426,o),
(717,512,cs),
(717,652,o),
(631,729,o),
(449,729,cs),
(69,729,l),
(69,0,l)
);
},
{
closed = 1;
nodes = (
(272,563,l),
(419,563,ls),
(472,563,o),
(509,543,o),
(509,484,cs),
(509,436,o),
(484,400,o),
(419,400,cs),
(272,400,l)
);
}
);
userData = {
com.schriftgestaltung.Glyphs.glyph.leftMetricsKey = H;
};
width = 747;
},
{
anchors = (
{
name = bottom;
pos = (358,0);
},
{
name = top;
pos = (358,729);
}
);
layerId = "28A8A76A-23B4-40F5-83B9-DC51E48BF161";
shapes = (
{
closed = 1;
nodes = (
(109,0,l),
(109,336,l),
(476,336,ls),
(602,336,o),
(633,291,o),
(633,200,cs),
(633,77,ls),
(633,45,o),
(634,22,o),
(644,0,c),
(682,0,l),
(671,26,o),
(671,50,o),
(671,73,cs),
(671,207,ls),
(671,291,o),
(642,341,o),
(556,354,c),
(556,361,l),
(644,386,o),
(687,450,o),
(687,540,cs),
(687,660,o),
(608,729,o),
(466,729,cs),
(71,729,l),
(71,0,l)
);
},
{
closed = 1;
nodes = (
(109,693,l),
(462,693,ls),
(574,693,o),
(648,645,o),
(648,536,cs),
(648,439,o),
(595,371,o),
(462,371,cs),
(109,371,l)
);
}
);
width = 715;
},
{
anchors = (
{
name = bottom;
pos = (407,0);
},
{
name = top;
pos = (407,729);
}
);
background = {
shapes = (
{
closed = 1;
nodes = (
(283,0,l),
(283,223,l),
(451,223,ls),
(520,223,o),
(540,192,o),
(540,143,cs),
(540,90,ls),
(540,45,o),
(544,17,o),
(552,0,c),
(787,0,l),
(774,30,o),
(774,62,o),
(774,92,cs),
(774,176,ls),
(774,258,o),
(735,303,o),
(659,316,c),
(659,323,l),
(738,342,o),
(793,411,o),
(793,501,cs),
(793,678,o),
(655,729,o),
(493,729,cs),
(54,729,l),
(54,0,l)
);
},
{
closed = 1;
nodes = (
(283,550,l),
(443,550,ls),
(507,550,o),
(550,535,o),
(550,475,cs),
(550,426,o),
(528,393,o),
(443,393,cs),
(283,393,l)
);
}
);
};
layerId = "D2144554-01B8-4B9B-B16A-E0E5B5794DFC";
shapes = (
{
closed = 1;
nodes = (
(283,0,l),
(283,230,l),
(453,230,ls),
(526,230,o),
(546,197,o),
(546,146,cs),
(546,89,ls),
(546,46,o),
(550,17,o),
(558,0,c),
(788,0,l),
(775,30,o),
(775,61,o),
(775,91,cs),
(775,177,ls),
(775,261,o),
(736,305,o),
(660,319,c),
(660,326,l),
(744,346,o),
(794,418,o),
(794,504,cs),
(794,677,o),
(658,729,o),
(498,729,cs),
(54,729,l),
(54,0,l)
);
},
{
closed = 1;
nodes = (
(283,558,l),
(451,558,ls),
(517,558,o),
(562,541,o),
(562,479,cs),
(562,427,o),
(538,392,o),
(451,392,cs),
(283,392,l)
);
}
);
width = 814;
}
);
metricLeft = H;
unicode = 82;
},
{
glyphname = S;
kernLeft = S;
kernRight = S;
lastChange = "2022-12-13 14:31:45 +0000";
layers = (
{
anchors = (
{
name = bottom;
pos = (223,0);
},
{
name = top;
pos = (223,729);
}
);
background = {
shapes = (
{
closed = 1;
nodes = (
(357,-10,o),
(445,50,o),
(445,206,cs),
(445,309,o),
(406,372,o),
(314,426,cs),
(267,455,ls),
(221,484,o),
(209,506,o),
(209,545,cs),
(209,576,o),
(215,594,o),
(237,594,cs),
(258,594,o),
(269,577,o),
(268,508,c),
(439,508,l),
(439,664,o),
(355,738,o),
(233,738,cs),
(103,738,o),
(16,678,o),
(16,522,cs),
(16,420,o),
(62,357,o),
(131,315,cs),
(182,284,ls),
(240,248,o),
(250,220,o),
(250,187,cs),
(250,155,o),
(244,137,o),
(220,137,cs),
(196,137,o),
(183,156,o),
(183,231,c),
(13,231,l),
(13,77,o),
(92,-10,o),
(226,-10,cs)
);
}
);
};
layerId = "E787E54A-EE3E-475A-BF02-8501A6DA5144";
shapes = (
{
closed = 1;
nodes = (
(354,-10,o),
(433,58,o),
(433,202,cs),
(433,323,o),
(362,386,o),
(278,437,cs),
(215,475,o),
(193,494,o),
(193,548,cs),
(193,584,o),
(203,606,o),
(229,606,cs),
(259,606,o),
(270,580,o),
(269,511,c),
(427,511,l),
(427,675,o),
(349,738,o),
(220,738,cs),
(101,738,o),
(17,675,o),
(17,536,cs),
(17,408,o),
(88,349,o),
(158,307,cs),
(227,265,o),
(254,242,o),
(254,186,cs),
(254,148,o),
(245,125,o),
(216,125,cs),
(185,125,o),
(168,150,o),
(168,231,c),
(13,231,l),
(13,86,o),
(72,-10,o),
(222,-10,cs)
);
}
);
width = 446;
},
{
anchors = (
{
name = bottom;
pos = (188,0);
},
{
name = top;
pos = (188,729);
}
);
layerId = "5713303B-ED49-44A7-8230-B5CAE56DEB7E";
shapes = (
{
closed = 1;
nodes = (
(288,-8,o),
(348,50,o),
(348,170,cs),
(348,301,o),
(283,340,o),
(211,379,cs),
(146,414,o),
(81,450,o),
(81,566,cs),
(81,650,o),
(110,706,o),
(186,706,cs),
(256,706,o),
(305,672,o),
(306,530,c),
(339,530,l),
(338,653,o),
(303,737,o),
(189,737,cs),
(105,737,o),
(49,682,o),
(49,567,cs),
(49,428,o),
(120,390,o),
(188,354,cs),
(259,316,o),
(315,280,o),
(315,172,cs),
(315,83,o),
(282,22,o),
(197,22,cs),
(119,22,o),
(67,72,o),
(67,225,c),
(33,225,l),
(36,85,o),
(77,-8,o),
(199,-8,cs)
);
}
);
width = 376;
},
{
anchors = (
{
name = bottom;
pos = (322,0);
},
{
name = top;
pos = (322,729);
}
);
background = {
shapes = (
{
closed = 1;
nodes = (
(483,-8,o),
(589,69,o),
(589,195,cs),
(589,340,o),
(463,372,o),
(401,385,cs),
(285,408,ls),
(223,420,o),
(113,448,o),
(113,555,cs),
(113,646,o),
(192,703,o),
(313,703,cs),
(444,703,o),
(520,641,o),
(524,529,c),
(564,529,l),
(561,654,o),
(478,737,o),
(317,737,cs),
(170,737,o),
(73,664,o),
(73,550,cs),
(73,419,o),
(199,387,o),
(279,370,cs),
(397,345,ls),
(446,335,o),
(549,313,o),
(549,193,cs),
(549,93,o),
(461,26,o),
(324,26,cs),
(170,26,o),
(100,102,o),
(96,225,c),
(55,225,l),
(58,90,o),
(139,-8,o),
(326,-8,cs)
);
}
);
};
layerId = master01;
shapes = (
{
closed = 1;
nodes = (
(494,-8,o),
(589,69,o),
(589,185,cs),
(589,340,o),
(477,372,o),
(338,397,cs),
(177,427,o),
(113,453,o),
(113,555,cs),
(113,644,o),
(185,703,o),
(313,703,cs),
(444,703,o),
(520,641,o),
(524,529,c),
(564,529,l),
(561,654,o),
(478,737,o),
(317,737,cs),
(163,737,o),
(73,662,o),
(73,550,cs),
(73,427,o),
(159,391,o),
(324,360,cs),
(484,331,o),
(549,294,o),
(549,183,cs),
(549,76,o),
(459,26,o),
(324,26,cs),
(170,26,o),
(100,102,o),
(96,225,c),
(55,225,l),
(58,90,o),
(139,-8,o),
(326,-8,cs)
);
}
);
userData = {
com.schriftgestaltung.hints = (
{
horizontal = 1;
options = 0;
origin = (
0,
32
);
stem = -2;
target = (
0,
39
);
type = Stem;
},
{
horizontal = 1;
options = 0;
origin = (
0,
19
);
stem = -2;
target = (
0,
12
);
type = Stem;
},
{
horizontal = 0;
options = 0;
origin = (
0,
22
);
stem = -2;
target = (
0,
9
);
type = Stem;
},
{
horizontal = 0;
options = 0;
origin = (
0,
29
);
stem = -2;
target = (
0,
2
);
type = Stem;
}
);
};
width = 644;
},
{
anchors = (
{
name = bottom;
pos = (342,0);
},
{
name = top;
pos = (342,729);
}
);
background = {
shapes = (
{
closed = 1;
nodes = (
(554,-10,o),
(657,87,o),
(657,224,cs),
(657,410,o),
(524,441,o),
(406,458,cs),
(295,475,o),
(255,478,o),
(255,528,cs),
(255,563,o),
(288,584,o),
(338,584,cs),
(380,584,o),
(424,570,o),
(427,518,c),
(636,518,l),
(636,650,o),
(518,738,o),
(343,738,cs),
(156,738,o),
(40,650,o),
(40,501,cs),
(40,358,o),
(146,301,o),
(295,279,cs),
(407,262,o),
(441,257,o),
(441,203,cs),
(441,166,o),
(405,147,o),
(350,147,cs),
(268,147,o),
(236,181,o),
(236,231,c),
(25,231,l),
(25,86,o),
(137,-10,o),
(340,-10,cs)
);
}
);
};
layerId = "1EDCBF6C-9964-4A28-BC87-E86B534B8BE7";
shapes = (
{
closed = 1;
nodes = (
(550,-10,o),
(654,86,o),
(654,223,cs),
(654,407,o),
(522,439,o),
(406,456,cs),
(294,473,o),
(250,476,o),
(250,529,cs),
(250,565,o),
(284,587,o),
(336,587,cs),
(380,587,o),
(426,572,o),
(429,518,c),
(633,518,l),
(633,650,o),
(516,738,o),
(341,738,cs),
(155,738,o),
(40,650,o),
(40,502,cs),
(40,374,o),
(126,306,o),
(295,281,cs),
(416,263,o),
(443,256,o),
(443,202,cs),
(443,164,o),
(406,144,o),
(348,144,cs),
(264,144,o),
(231,179,o),
(231,231,c),
(25,231,l),
(25,86,o),
(137,-10,o),
(339,-10,cs)
);
}
);
width = 684;
},
{
anchors = (
{
name = bottom;
pos = (346,0);
},
{
name = top;
pos = (346,729);
}
);
layerId = "28A8A76A-23B4-40F5-83B9-DC51E48BF161";
shapes = (
{
closed = 1;
nodes = (
(554,-8,o),
(655,69,o),
(655,192,cs),
(655,356,o),
(512,377,o),
(355,398,cs),
(199,419,o),
(97,434,o),
(97,552,cs),
(97,645,o),
(186,703,o),
(338,703,cs),
(489,703,o),
(581,646,o),
(586,529,c),
(626,529,l),
(622,654,o),
(526,737,o),
(340,737,cs),
(172,737,o),
(58,669,o),
(58,550,cs),
(58,402,o),
(190,382,o),
(345,361,cs),
(500,340,o),
(615,321,o),
(615,191,cs),
(615,89,o),
(533,26,o),
(357,26,cs),
(184,26,o),
(85,89,o),
(78,225,c),
(36,225,l),
(45,86,o),
(136,-8,o),
(357,-8,cs)
);
}
);
width = 691;
},
{
anchors = (
{
name = bottom;
pos = (380,0);
},
{
name = top;
pos = (380,729);
}
);
layerId = "D2144554-01B8-4B9B-B16A-E0E5B5794DFC";
shapes = (
{
closed = 1;
nodes = (
(614,-10,o),
(743,78,o),
(743,226,cs),
(743,386,o),
(653,436,o),
(420,462,cs),
(291,476,o),
(269,484,o),
(269,526,cs),
(269,562,o),
(306,585,o),
(373,585,cs),
(435,585,o),
(478,565,o),
(486,514,c),
(717,514,l),
(703,660,o),
(574,738,o),
(382,738,cs),
(164,738,o),
(34,652,o),
(34,499,cs),
(34,357,o),
(133,300,o),
(359,274,cs),
(478,260,o),
(507,256,o),
(507,207,cs),
(507,167,o),
(466,145,o),
(392,145,cs),
(300,145,o),
(255,183,o),
(254,235,c),
(16,235,l),
(16,92,o),
(133,-10,o),
(383,-10,cs)
);
}
);
width = 759;
}
);
unicode = 83;
},
{
glyphname = Germandbls;
kernLeft = B;
kernRight = Germandbls;
lastChange = "2022-12-13 14:31:45 +0000";
layers = (
{
anchors = (
{
name = bottom;
pos = (205,0);
},
{
name = top;
pos = (205,729);
}
);
layerId = "5713303B-ED49-44A7-8230-B5CAE56DEB7E";
shapes = (
{
closed = 1;
nodes = (
(96,0,l),
(96,701,l),
(326,701,l),
(190,426,l),
(190,400,l),
(208,400,ls),
(296,400,o),
(355,351,o),
(355,213,cs),
(355,101,o),
(309,26,o),
(198,26,cs),
(164,26,l),
(164,0,l),
(200,0,ls),
(312,0,o),
(387,60,o),
(387,213,cs),
(387,357,o),
(323,425,o),
(210,425,cs),
(202,425,l),
(224,411,l),
(224,429,l),
(357,697,l),
(357,729,l),
(65,729,l),
(65,0,l)
);
}
);
width = 409;
},
{
anchors = (
{
name = bottom;
pos = (276,0);
},
{
name = top;
pos = (276,729);
}
);
layerId = "E787E54A-EE3E-475A-BF02-8501A6DA5144";
shapes = (
{
closed = 1;
nodes = (
(206,0,l),
(206,581,l),
(341,581,l),
(262,436,l),
(262,331,l),
(282,331,ls),
(332,331,o),
(366,306,o),
(366,241,cs),
(366,179,o),
(342,144,o),
(282,144,cs),
(256,144,l),
(256,0,l),
(317,0,ls),
(451,0,o),
(541,86,o),
(541,214,cs),
(541,332,o),
(483,411,o),
(379,411,cs),
(361,411,l),
(416,376,l),
(416,417,l),
(508,582,l),
(508,729,l),
(28,729,l),
(28,0,l)
);
}
);
width = 551;
},
{
anchors = (
{
name = bottom;
pos = (319,0);
},
{
name = top;
pos = (319,729);
}
);
layerId = master01;
shapes = (
{
closed = 1;
nodes = (
(142,0,l),
(142,693,l),
(506,693,l),
(287,417,l),
(287,387,l),
(346,387,ls),
(490,387,o),
(547,319,o),
(547,211,cs),
(547,110,o),
(488,34,o),
(354,34,cs),
(212,34,l),
(212,0,l),
(354,0,ls),
(503,0,o),
(588,81,o),
(588,211,cs),
(588,339,o),
(512,420,o),
(350,420,cs),
(325,420,l),
(340,403,l),
(340,427,l),
(539,678,l),
(539,729,l),
(103,729,l),
(103,0,l)
);
}
);
width = 637;
},
{
anchors = (
{
name = bottom;
pos = (353,0);
},
{
name = top;
pos = (353,729);
}
);
layerId = "28A8A76A-23B4-40F5-83B9-DC51E48BF161";
shapes = (
{
closed = 1;
nodes = (
(110,0,l),
(110,692,l),
(587,692,l),
(338,415,l),
(338,382,l),
(441,382,ls),
(561,382,o),
(641,334,o),
(641,211,cs),
(641,106,o),
(585,36,o),
(441,36,cs),
(197,36,l),
(197,0,l),
(447,0,ls),
(597,0,o),
(681,84,o),
(681,210,cs),
(681,342,o),
(597,417,o),
(447,417,cs),
(375,417,l),
(393,387,l),
(393,424,l),
(622,678,l),
(622,729,l),
(71,729,l),
(71,0,l)
);
}
);
width = 706;
},
{
anchors = (
{
name = bottom;
pos = (376,0);
},
{
name = top;
pos = (376,729);
}
);
layerId = "1EDCBF6C-9964-4A28-BC87-E86B534B8BE7";
shapes = (
{
closed = 1;
nodes = (
(272,0,l),
(272,561,l),
(494,561,l),
(388,411,l),
(388,321,l),
(418,321,ls),
(474,321,o),
(512,299,o),
(512,242,cs),
(512,195,o),
(486,163,o),
(418,163,cs),
(331,163,l),
(331,0,l),
(456,0,ls),
(616,0,o),
(722,78,o),
(722,217,cs),
(722,325,o),
(650,404,o),
(548,404,cs),
(531,404,l),
(580,353,l),
(580,410,l),
(683,546,l),
(683,729,l),
(69,729,l),
(69,0,l)
);
}
);
width = 751;
},
{
anchors = (
{
name = bottom;
pos = (423,0);
},
{
name = top;
pos = (423,729);
}
);
layerId = "D2144554-01B8-4B9B-B16A-E0E5B5794DFC";
shapes = (
{
closed = 1;
nodes = (
(299,0,l),
(299,554,l),
(533,554,l),
(417,401,l),
(417,297,l),
(490,297,ls),
(542,297,o),
(572,277,o),
(572,233,cs),
(572,191,o),
(546,168,o),
(492,168,cs),
(375,168,l),
(375,0,l),
(551,0,ls),
(718,0,o),
(830,67,o),
(830,209,cs),
(830,331,o),
(752,399,o),
(635,399,cs),
(611,399,l),
(665,360,l),
(665,406,l),
(772,539,l),
(772,729,l),
(54,729,l),
(54,0,l)
);
}
);
width = 846;
}
);
metricLeft = H;
metricRight = B;
unicode = 7838;
},
{
glyphname = T;
kernLeft = T;
kernRight = T;
lastChange = "2022-12-13 14:31:45 +0000";
layers = (
{
anchors = (
{
name = bottom;
pos = (193,0);
},
{
name = center;
pos = (193,365);
},
{
name = top;
pos = (193,729);
}
);
layerId = "E787E54A-EE3E-475A-BF02-8501A6DA5144";
shapes = (
{
closed = 1;
nodes = (
(282,0,l),
(282,570,l),
(375,570,l),
(375,729,l),
(10,729,l),
(10,570,l),
(98,570,l),
(98,0,l)
);
}
);
width = 385;
},
{
anchors = (
{
name = bottom;
pos = (181,0);
},
{
name = center;
pos = (181,365);
},
{
name = top;
pos = (181,729);
}
);
layerId = "5713303B-ED49-44A7-8230-B5CAE56DEB7E";
shapes = (
{
closed = 1;
nodes = (
(196,0,l),
(196,700,l),
(338,700,l),
(338,729,l),
(23,729,l),
(23,700,l),
(165,700,l),
(165,0,l)
);
}
);
width = 361;
},
{
anchors = (
{
name = bottom;
pos = (279,0);
},
{
name = center;
pos = (279,365);
},
{
name = top;
pos = (279,729);
}
);
layerId = master01;
shapes = (
{
closed = 1;
nodes = (
(298,0,l),
(298,693,l),
(548,693,l),
(548,729,l),
(10,729,l),
(10,693,l),
(260,693,l),
(260,0,l)
);
}
);
userData = {
com.schriftgestaltung.hints = (
{
horizontal = 1;
options = 0;
origin = (
0,
7
);
stem = -2;
target = (
u,
p
);
type = BottomGhost;
},
{
horizontal = 1;
options = 0;
origin = (
0,
4
);
stem = -2;
target = (
0,
5
);
type = Stem;
},
{
horizontal = 0;
options = 0;
origin = (
0,
7
);
stem = -2;
target = (
0,
0
);
type = Stem;
}
);
};
width = 558;
},
{
anchors = (
{
name = bottom;
pos = (314,0);
},
{
name = center;
pos = (314,365);
},
{
name = top;
pos = (314,729);
}
);
layerId = "1EDCBF6C-9964-4A28-BC87-E86B534B8BE7";
shapes = (
{
closed = 1;
nodes = (
(412,0,l),
(412,555,l),
(619,555,l),
(619,729,l),
(8,729,l),
(8,555,l),
(209,555,l),
(209,0,l)
);
}
);
width = 627;
},
{
anchors = (
{
name = bottom;
pos = (336,0);
},
{
name = center;
pos = (336,365);
},
{
name = top;
pos = (336,729);
}
);
layerId = "28A8A76A-23B4-40F5-83B9-DC51E48BF161";
shapes = (
{
closed = 1;
nodes = (
(356,0,l),
(356,693,l),
(648,693,l),
(648,729,l),
(25,729,l),
(25,693,l),
(318,693,l),
(318,0,l)
);
}
);
width = 671;
},
{
anchors = (
{
name = bottom;
pos = (349,0);
},
{
name = center;
pos = (349,365);
},
{
name = top;
pos = (349,729);
}
);
layerId = "D2144554-01B8-4B9B-B16A-E0E5B5794DFC";
shapes = (
{
closed = 1;
nodes = (
(460,0,l),
(460,548,l),
(687,548,l),
(687,729,l),
(11,729,l),
(11,548,l),
(232,548,l),
(232,0,l)
);
}
);
width = 698;
}
);
unicode = 84;
},
{
glyphname = U;
kernLeft = U;
kernRight = J;
lastChange = "2022-12-13 14:31:45 +0000";
layers = (
{
anchors = (
{
name = bottom;
pos = (240,0);
},
{
name = ogonek;
pos = (432,10);
},
{
name = top;
pos = (240,729);
},
{
name = topright;
pos = (460,729);
}
);
background = {
shapes = (
{
closed = 1;
nodes = (
(376,-10,o),
(453,64,o),
(453,244,cs),
(453,729,l),
(277,729,l),
(277,252,ls),
(277,214,o),
(277,153,o),
(241,153,cs),
(214,153,o),
(205,177,o),
(205,252,cs),
(205,729,l),
(27,729,l),
(27,244,ls),
(27,81,o),
(87,-10,o),
(239,-10,cs)
);
}
);
};
layerId = "E787E54A-EE3E-475A-BF02-8501A6DA5144";
shapes = (
{
closed = 1;
nodes = (
(367,-9,o),
(453,62,o),
(453,212,cs),
(453,729,l),
(277,729,l),
(277,209,ls),
(277,177,o),
(270,155,o),
(241,155,cs),
(219,155,o),
(205,166,o),
(205,209,cs),
(205,729,l),
(27,729,l),
(27,212,ls),
(27,79,o),
(95,-9,o),
(239,-9,cs)
);
}
);
width = 480;
},
{
anchors = (
{
name = bottom;
pos = (222,0);
},
{
name = ogonek;
pos = (399,10);
},
{
name = top;
pos = (222,729);
},
{
name = topright;
pos = (423,729);
}
);
layerId = "5713303B-ED49-44A7-8230-B5CAE56DEB7E";
shapes = (
{
closed = 1;
nodes = (
(334,-10,o),
(388,80,o),
(388,238,cs),
(388,729,l),
(357,729,l),
(357,241,ls),
(357,75,o),
(303,20,o),
(221,20,cs),
(141,20,o),
(86,75,o),
(86,241,cs),
(86,729,l),
(55,729,l),
(55,238,ls),
(55,81,o),
(108,-10,o),
(222,-10,cs)
);
}
);
width = 443;
},
{
anchors = (
{
name = bottom;
pos = (377,0);
},
{
name = ogonek;
pos = (678,10);
},
{
name = top;
pos = (377,729);
},
{
name = topright;
pos = (733,729);
}
);
layerId = master01;
shapes = (
{
closed = 1;
nodes = (
(558,-8,o),
(656,99,o),
(656,260,cs),
(656,729,l),
(619,729,l),
(619,264,ls),
(619,122,o),
(542,29,o),
(377,29,cs),
(229,29,o),
(135,105,o),
(135,264,cs),
(135,729,l),
(97,729,l),
(97,260,ls),
(97,90,o),
(204,-8,o),
(377,-8,cs)
);
}
);
userData = {
com.schriftgestaltung.hints = (
{
horizontal = 1;
options = 0;
origin = (
0,
8
);
stem = -2;
target = (
0,
17
);
type = Stem;
},
{
horizontal = 1;
options = 0;
origin = (
0,
13
);
stem = -2;
target = (
d,
o,
w,
n
);
type = TopGhost;
},
{
horizontal = 0;
options = 0;
origin = (
0,
14
);
stem = -2;
target = (
0,
11
);
type = Stem;
},
{
horizontal = 0;
options = 0;
origin = (
0,
5
);
stem = -2;
target = (
0,
2
);
type = Stem;
}
);
};
width = 753;
},
{
anchors = (
{
name = bottom;
pos = (387,0);
},
{
name = ogonek;
pos = (696,10);
},
{
name = top;
pos = (387,729);
},
{
name = topright;
pos = (753,729);
}
);
layerId = "1EDCBF6C-9964-4A28-BC87-E86B534B8BE7";
shapes = (
{
closed = 1;
nodes = (
(580,-10,o),
(710,96,o),
(710,284,cs),
(710,729,l),
(508,729,l),
(508,283,ls),
(508,209,o),
(464,169,o),
(387,169,cs),
(309,169,o),
(265,209,o),
(265,283,cs),
(265,729,l),
(63,729,l),
(63,284,ls),
(63,108,o),
(179,-10,o),
(385,-10,cs)
);
}
);
width = 773;
},
{
anchors = (
{
name = bottom;
pos = (382,0);
},
{
name = ogonek;
pos = (687,10);
},
{
name = top;
pos = (382,729);
},
{
name = topright;
pos = (743,729);
}
);
layerId = "28A8A76A-23B4-40F5-83B9-DC51E48BF161";
shapes = (
{
closed = 1;
nodes = (
(576,-8,o),
(703,75,o),
(703,294,cs),
(703,729,l),
(665,729,l),
(665,298,ls),
(665,125,o),
(585,29,o),
(381,29,cs),
(181,29,o),
(98,122,o),
(98,298,cs),
(98,729,l),
(60,729,l),
(60,294,ls),
(60,74,o),
(188,-8,o),
(381,-8,cs)
);
}
);
width = 763;
},
{
anchors = (
{
name = bottom;
pos = (410,0);
},
{
name = ogonek;
pos = (737,10);
},
{
name = top;
pos = (410,729);
},
{
name = topright;
pos = (799,729);
}
);
layerId = "D2144554-01B8-4B9B-B16A-E0E5B5794DFC";
shapes = (
{
closed = 1;
nodes = (
(669,-10,o),
(776,122,o),
(776,319,cs),
(776,729,l),
(550,729,l),
(550,318,ls),
(550,206,o),
(492,176,o),
(409,176,cs),
(299,176,o),
(268,234,o),
(268,318,cs),
(268,729,l),
(43,729,l),
(43,319,ls),
(43,88,o),
(187,-10,o),
(409,-10,cs)
);
}
);
width = 819;
}
);
unicode = 85;
},
{
glyphname = V;
kernLeft = V;
kernRight = V;
lastChange = "2022-12-13 14:31:45 +0000";
layers = (
{
anchors = (
{
name = bottom;
pos = (233,0);
},
{
name = top;
pos = (233,729);
}
);
background = {
shapes = (
{
closed = 1;
nodes = (
(504,0,l),
(756,729,l),
(529,729,l),
(381,207,l),
(373,207,l),
(225,729,l),
(-2,729,l),
(251,0,l)
);
}
);
};
layerId = "E787E54A-EE3E-475A-BF02-8501A6DA5144";
shapes = (
{
closed = 1;
nodes = (
(349,0,l),
(456,729,l),
(289,729,l),
(247,316,l),
(236,166,l),
(229,166,l),
(216,317,l),
(176,729,l),
(9,729,l),
(115,0,l)
);
}
);
width = 466;
},
{
anchors = (
{
name = bottom;
pos = (200,0);
},
{
name = top;
pos = (200,729);
}
);
layerId = "5713303B-ED49-44A7-8230-B5CAE56DEB7E";
shapes = (
{
closed = 1;
nodes = (
(221,0,l),
(386,729,l),
(353,729,l),
(232,189,l),
(201,37,l),
(195,37,l),
(164,191,l),
(45,729,l),
(12,729,l),
(176,0,l)
);
}
);
width = 399;
},
{
anchors = (
{
name = bottom;
pos = (317,0);
},
{
name = top;
pos = (317,729);
}
);
layerId = master01;
shapes = (
{
closed = 1;
nodes = (
(344,0,l),
(627,729,l),
(587,729,l),
(358,135,l),
(320,35,l),
(314,35,l),
(276,135,l),
(49,729,l),
(7,729,l),
(290,0,l)
);
}
);
userData = {
com.schriftgestaltung.hints = (
{
horizontal = 1;
options = 0;
origin = (
0,
4
);
stem = -2;
target = (
0,
7
);
type = Stem;
},
{
horizontal = 1;
options = 0;
origin = (
0,
6
);
stem = -2;
target = (
d,
o,
w,
n
);
type = TopGhost;
}
);
};
width = 634;
},
{
anchors = (
{
name = bottom;
pos = (382,0);
},
{
name = top;
pos = (382,729);
}
);
layerId = "1EDCBF6C-9964-4A28-BC87-E86B534B8BE7";
shapes = (
{
closed = 1;
nodes = (
(519,0,l),
(761,729,l),
(534,729,l),
(425,336,l),
(386,193,l),
(378,193,l),
(338,337,l),
(230,729,l),
(3,729,l),
(246,0,l)
);
}
);
width = 764;
},
{
anchors = (
{
name = bottom;
pos = (412,0);
},
{
name = top;
pos = (412,729);
}
);
layerId = "28A8A76A-23B4-40F5-83B9-DC51E48BF161";
shapes = (
{
closed = 1;
nodes = (
(435,0,l),
(805,729,l),
(763,729,l),
(441,96,l),
(413,38,l),
(407,38,l),
(379,95,l),
(57,729,l),
(15,729,l),
(384,0,l)
);
}
);
width = 823;
},
{
anchors = (
{
name = bottom;
pos = (440,0);
},
{
name = top;
pos = (440,729);
}
);
layerId = "D2144554-01B8-4B9B-B16A-E0E5B5794DFC";
shapes = (
{
closed = 1;
nodes = (
(588,0,l),
(886,729,l),
(634,729,l),
(472,262,l),
(444,179,l),
(437,179,l),
(408,264,l),
(247,729,l),
(-5,729,l),
(293,0,l)
);
}
);
width = 880;
}
);
unicode = 86;
},
{
glyphname = W;
kernLeft = W;
kernRight = W;
lastChange = "2022-12-13 14:31:45 +0000";
layers = (
{
anchors = (
{
name = bottom;
pos = (367,0);
},
{
name = top;
pos = (367,729);
}
);
background = {
shapes = (
{
closed = 1;
nodes = (
(325,0,l),
(366,470,l),
(373,470,l),
(408,0,l),
(661,0,l),
(756,729,l),
(559,729,l),
(534,385,l),
(528,201,l),
(521,201,l),
(481,729,l),
(256,729,l),
(217,203,l),
(209,203,l),
(200,388,l),
(175,729,l),
(-22,729,l),
(73,0,l)
);
}
);
};
layerId = "E787E54A-EE3E-475A-BF02-8501A6DA5144";
shapes = (
{
closed = 1;
nodes = (
(331,0,l),
(366,475,l),
(372,475,l),
(402,0,l),
(640,0,l),
(732,729,l),
(552,729,l),
(526,378,l),
(520,189,l),
(513,189,l),
(469,729,l),
(268,729,l),
(224,191,l),
(217,191,l),
(207,380,l),
(181,729,l),
(2,729,l),
(94,0,l)
);
}
);
width = 733;
},
{
anchors = (
{
name = bottom;
pos = (293,0);
},
{
name = top;
pos = (293,729);
}
);
layerId = "5713303B-ED49-44A7-8230-B5CAE56DEB7E";
shapes = (
{
closed = 1;
nodes = (
(176,0,l),
(290,680,l),
(295,680,l),
(410,0,l),
(455,0,l),
(574,729,l),
(543,729,l),
(472,289,l),
(435,31,l),
(432,31,l),
(316,729,l),
(270,729,l),
(154,32,l),
(152,32,l),
(118,276,l),
(42,729,l),
(12,729,l),
(131,0,l)
);
}
);
width = 586;
},
{
anchors = (
{
name = bottom;
pos = (453,0);
},
{
name = top;
pos = (453,729);
}
);
layerId = master01;
shapes = (
{
closed = 1;
nodes = (
(239,0,l),
(450,692,l),
(455,692,l),
(666,0,l),
(723,0,l),
(895,729,l),
(854,729,l),
(747,271,l),
(696,42,l),
(690,42,l),
(481,729,l),
(425,729,l),
(216,43,l),
(211,43,l),
(159,270,l),
(52,729,l),
(11,729,l),
(183,0,l)
);
}
);
userData = {
com.schriftgestaltung.hints = (
{
horizontal = 1;
options = 0;
origin = (
0,
13
);
stem = -2;
target = (
0,
17
);
type = Stem;
},
{
horizontal = 1;
options = 0;
origin = (
0,
16
);
stem = -2;
target = (
0,
1
);
type = Stem;
}
);
};
width = 906;
},
{
anchors = (
{
name = bottom;
pos = (513,0);
},
{
name = top;
pos = (513,729);
}
);
layerId = "1EDCBF6C-9964-4A28-BC87-E86B534B8BE7";
shapes = (
{
closed = 1;
nodes = (
(430,0,l),
(510,450,l),
(518,450,l),
(595,0,l),
(871,0,l),
(1019,729,l),
(795,729,l),
(747,397,l),
(726,219,l),
(718,219,l),
(637,729,l),
(391,729,l),
(314,221,l),
(305,221,l),
(281,400,l),
(230,729,l),
(6,729,l),
(154,0,l)
);
}
);
width = 1025;
},
{
anchors = (
{
name = bottom;
pos = (534,0);
},
{
name = top;
pos = (534,729);
}
);
layerId = "28A8A76A-23B4-40F5-83B9-DC51E48BF161";
shapes = (
{
closed = 1;
nodes = (
(299,0,l),
(531,691,l),
(536,691,l),
(761,0,l),
(814,0,l),
(1052,729,l),
(1012,729,l),
(838,195,l),
(791,42,l),
(783,42,l),
(560,729,l),
(508,729,l),
(277,43,l),
(270,43,l),
(224,196,l),
(56,729,l),
(15,729,l),
(246,0,l)
);
}
);
width = 1068;
},
{
anchors = (
{
name = bottom;
pos = (575,0);
},
{
name = top;
pos = (575,729);
}
);
layerId = "D2144554-01B8-4B9B-B16A-E0E5B5794DFC";
shapes = (
{
closed = 1;
nodes = (
(481,0,l),
(572,444,l),
(580,444,l),
(679,0,l),
(972,0,l),
(1154,729,l),
(911,729,l),
(849,400,l),
(820,220,l),
(811,220,l),
(702,729,l),
(458,729,l),
(354,222,l),
(343,222,l),
(314,392,l),
(246,729,l),
(-5,729,l),
(187,0,l)
);
}
);
width = 1149;
}
);
unicode = 87;
},
{
glyphname = X;
kernLeft = X;
kernRight = X;
lastChange = "2022-12-13 14:31:45 +0000";
layers = (
{
anchors = (
{
name = bottom;
pos = (244,0);
},
{
name = top;
pos = (244,729);
}
);
layerId = "E787E54A-EE3E-475A-BF02-8501A6DA5144";
shapes = (
{
closed = 1;
nodes = (
(186,0,l),
(241,247,l),
(244,247,l),
(298,0,l),
(480,0,l),
(370,382,l),
(475,729,l),
(297,729,l),
(247,498,l),
(243,498,l),
(197,729,l),
(15,729,l),
(120,377,l),
(9,0,l)
);
}
);
width = 488;
},
{
anchors = (
{
name = bottom;
pos = (196,0);
},
{
name = top;
pos = (196,729);
}
);
layerId = "5713303B-ED49-44A7-8230-B5CAE56DEB7E";
shapes = (
{
closed = 1;
nodes = (
(48,0,l),
(194,354,l),
(196,354,l),
(342,0,l),
(378,0,l),
(217,377,l),
(369,729,l),
(334,729,l),
(197,397,l),
(194,397,l),
(57,729,l),
(22,729,l),
(174,376,l),
(12,0,l)
);
}
);
width = 391;
},
{
anchors = (
{
name = bottom;
pos = (301,0);
},
{
name = top;
pos = (301,729);
}
);
background = {
shapes = (
{
closed = 1;
nodes = (
(57,20,l),
(300,368,l),
(302,368,l),
(545,20,l),
(591,20,l),
(328,397,l),
(575,749,l),
(531,749,l),
(303,422,l),
(300,422,l),
(72,749,l),
(28,749,l),
(275,396,l),
(11,20,l)
);
}
);
};
layerId = master01;
shapes = (
{
closed = 1;
nodes = (
(42,0,l),
(300,368,l),
(302,368,l),
(560,0,l),
(606,0,l),
(328,397,l),
(561,729,l),
(518,729,l),
(303,422,l),
(300,422,l),
(85,729,l),
(42,729,l),
(275,396,l),
(-3,0,l)
);
}
);
userData = {
com.schriftgestaltung.hints = (
{
horizontal = 1;
options = 0;
place = (
0,
21
);
stem = -2;
target = (
u,
p
);
type = BottomGhost;
},
{
horizontal = 1;
options = 0;
place = (
0,
-20
);
stem = -2;
target = (
d,
o,
w,
n
);
type = TopGhost;
}
);
};
width = 602;
},
{
anchors = (
{
name = bottom;
pos = (395,0);
},
{
name = top;
pos = (395,729);
}
);
background = {
shapes = (
{
closed = 1;
nodes = (
(239,0,l),
(383,241,l),
(391,241,l),
(531,0,l),
(773,0,l),
(540,382,l),
(758,729,l),
(522,729,l),
(397,504,l),
(389,504,l),
(266,729,l),
(22,729,l),
(247,377,l),
(7,0,l)
);
}
);
};
layerId = "1EDCBF6C-9964-4A28-BC87-E86B534B8BE7";
shapes = (
{
closed = 1;
nodes = (
(235,0,l),
(389,243,l),
(394,243,l),
(548,0,l),
(788,0,l),
(527,389,l),
(761,729,l),
(522,729,l),
(394,518,l),
(389,518,l),
(261,729,l),
(22,729,l),
(261,388,l),
(0,0,l)
);
}
);
width = 789;
},
{
anchors = (
{
name = bottom;
pos = (350,0);
},
{
name = top;
pos = (350,729);
}
);
layerId = "28A8A76A-23B4-40F5-83B9-DC51E48BF161";
shapes = (
{
closed = 1;
nodes = (
(60,0,l),
(348,348,l),
(350,348,l),
(635,0,l),
(684,0,l),
(374,375,l),
(665,729,l),
(620,729,l),
(351,402,l),
(347,401,l),
(80,729,l),
(35,729,l),
(324,375,l),
(15,0,l)
);
}
);
width = 700;
},
{
anchors = (
{
name = bottom;
pos = (437,0);
},
{
name = top;
pos = (437,729);
}
);
layerId = "D2144554-01B8-4B9B-B16A-E0E5B5794DFC";
shapes = (
{
closed = 1;
nodes = (
(267,0,l),
(429,216,l),
(438,216,l),
(594,0,l),
(880,0,l),
(592,385,l),
(864,729,l),
(585,729,l),
(446,528,l),
(437,529,l),
(300,729,l),
(14,729,l),
(292,378,l),
(-5,0,l)
);
}
);
width = 874;
}
);
unicode = 88;
},
{
glyphname = Y;
kernLeft = Y;
kernRight = Y;
lastChange = "2022-12-13 14:31:45 +0000";
layers = (
{
anchors = (
{
name = bottom;
pos = (248,0);
},
{
name = top;
pos = (248,729);
},
{
name = topleft;
pos = (20,729);
}
);
layerId = "E787E54A-EE3E-475A-BF02-8501A6DA5144";
shapes = (
{
closed = 1;
nodes = (
(343,0,l),
(343,273,l),
(488,729,l),
(293,729,l),
(250,455,l),
(244,455,l),
(205,729,l),
(9,729,l),
(154,273,l),
(154,0,l)
);
}
);
width = 496;
},
{
anchors = (
{
name = bottom;
pos = (189,0);
},
{
name = top;
pos = (189,729);
},
{
name = topleft;
pos = (20,729);
}
);
layerId = "5713303B-ED49-44A7-8230-B5CAE56DEB7E";
shapes = (
{
closed = 1;
nodes = (
(204,0,l),
(204,302,l),
(365,729,l),
(332,729,l),
(191,344,l),
(187,344,l),
(46,729,l),
(12,729,l),
(174,302,l),
(174,0,l)
);
}
);
width = 377;
},
{
anchors = (
{
name = bottom;
pos = (296,0);
},
{
name = top;
pos = (296,729);
},
{
name = topleft;
pos = (20,729);
}
);
layerId = master01;
shapes = (
{
closed = 1;
nodes = (
(313,0,l),
(313,300,l),
(585,729,l),
(542,729,l),
(297,337,l),
(293,337,l),
(49,729,l),
(5,729,l),
(275,300,l),
(275,0,l)
);
}
);
userData = {
com.schriftgestaltung.hints = (
{
horizontal = 1;
options = 0;
origin = (
0,
9
);
stem = -2;
target = (
u,
p
);
type = BottomGhost;
},
{
horizontal = 1;
options = 0;
origin = (
0,
7
);
stem = -2;
target = (
d,
o,
w,
n
);
type = TopGhost;
},
{
horizontal = 0;
options = 0;
origin = (
0,
9
);
stem = -2;
target = (
0,
0
);
type = Stem;
}
);
};
width = 591;
},
{
anchors = (
{
name = bottom;
pos = (373,0);
},
{
name = top;
pos = (373,729);
},
{
name = topleft;
pos = (20,729);
}
);
layerId = "1EDCBF6C-9964-4A28-BC87-E86B534B8BE7";
shapes = (
{
closed = 1;
nodes = (
(473,0,l),
(473,269,l),
(744,729,l),
(514,729,l),
(375,467,l),
(367,467,l),
(231,729,l),
(0,729,l),
(270,269,l),
(270,0,l)
);
}
);
width = 745;
},
{
anchors = (
{
name = bottom;
pos = (348,0);
},
{
name = top;
pos = (348,729);
},
{
name = topleft;
pos = (20,729);
}
);
layerId = "28A8A76A-23B4-40F5-83B9-DC51E48BF161";
shapes = (
{
closed = 1;
nodes = (
(366,0,l),
(366,300,l),
(680,729,l),
(635,729,l),
(350,337,l),
(346,337,l),
(61,729,l),
(15,729,l),
(328,300,l),
(328,0,l)
);
}
);
width = 695;
},
{
anchors = (
{
name = bottom;
pos = (421,0);
},
{
name = top;
pos = (421,729);
},
{
name = topleft;
pos = (20,729);
}
);
layerId = "D2144554-01B8-4B9B-B16A-E0E5B5794DFC";
shapes = (
{
closed = 1;
nodes = (
(534,0,l),
(534,266,l),
(847,729,l),
(591,729,l),
(424,453,l),
(416,453,l),
(253,729,l),
(-5,729,l),
(305,266,l),
(305,0,l)
);
}
);
width = 842;
}
);
unicode = 89;
},
{
glyphname = Z;
kernLeft = Z;
kernRight = Z;
lastChange = "2022-12-13 14:31:45 +0000";
layers = (
{
anchors = (
{
name = bottom;
pos = (220,0);
},
{
name = center;
pos = (220,365);
},
{
name = top;
pos = (220,729);
}
);
layerId = "E787E54A-EE3E-475A-BF02-8501A6DA5144";
shapes = (
{
closed = 1;
nodes = (
(421,0,l),
(421,157,l),
(219,157,l),
(421,589,l),
(421,729,l),
(31,729,l),
(31,571,l),
(219,571,l),
(18,139,l),
(18,0,l)
);
}
);
width = 439;
},
{
anchors = (
{
name = bottom;
pos = (183,0);
},
{
name = center;
pos = (183,365);
},
{
name = top;
pos = (183,729);
}
);
layerId = "5713303B-ED49-44A7-8230-B5CAE56DEB7E";
shapes = (
{
closed = 1;
nodes = (
(338,0,l),
(338,30,l),
(63,30,l),
(330,707,l),
(330,729,l),
(39,729,l),
(39,700,l),
(295,700,l),
(28,23,l),
(28,0,l)
);
}
);
width = 366;
},
{
anchors = (
{
name = bottom;
pos = (320,0);
},
{
name = center;
pos = (320,365);
},
{
name = top;
pos = (320,729);
}
);
layerId = master01;
shapes = (
{
closed = 1;
nodes = (
(595,0,l),
(595,37,l),
(97,37,l),
(583,701,l),
(583,729,l),
(60,729,l),
(60,693,l),
(531,693,l),
(45,29,l),
(45,0,l)
);
}
);
userData = {
com.schriftgestaltung.hints = (
{
horizontal = 1;
options = 0;
origin = (
0,
2
);
stem = -2;
target = (
0,
9
);
type = Stem;
},
{
horizontal = 1;
options = 0;
origin = (
0,
5
);
stem = -2;
target = (
0,
6
);
type = Stem;
}
);
};
width = 640;
},
{
anchors = (
{
name = bottom;
pos = (325,0);
},
{
name = center;
pos = (325,365);
},
{
name = top;
pos = (325,729);
}
);
layerId = "1EDCBF6C-9964-4A28-BC87-E86B534B8BE7";
shapes = (
{
closed = 1;
nodes = (
(615,0,l),
(615,172,l),
(281,172,l),
(606,554,l),
(606,729,l),
(53,729,l),
(53,556,l),
(357,556,l),
(35,173,l),
(35,0,l)
);
}
);
width = 650;
},
{
anchors = (
{
name = bottom;
pos = (346,0);
},
{
name = center;
pos = (346,365);
},
{
name = top;
pos = (346,729);
}
);
layerId = "28A8A76A-23B4-40F5-83B9-DC51E48BF161";
shapes = (
{
closed = 1;
nodes = (
(664,0,l),
(664,37,l),
(82,37,l),
(652,698,l),
(652,729,l),
(44,729,l),
(44,693,l),
(598,693,l),
(29,32,l),
(29,0,l)
);
}
);
width = 692;
},
{
anchors = (
{
name = bottom;
pos = (360,0);
},
{
name = center;
pos = (360,365);
},
{
name = top;
pos = (360,729);
}
);
layerId = "D2144554-01B8-4B9B-B16A-E0E5B5794DFC";
shapes = (
{
closed = 1;
nodes = (
(693,0,l),
(693,179,l),
(307,179,l),
(683,547,l),
(683,729,l),
(47,729,l),
(47,549,l),
(402,549,l),
(27,180,l),
(27,0,l)
);
}
);
width = 720;
}
);
unicode = 90;
},
{
glyphname = G.ss01;
kernLeft = C;
kernRight = G;
lastChange = "2022-12-13 14:31:45 +0000";
layers = (
{
anchors = (
{
name = bottom;
pos = (258,0);
},
{
name = top;
pos = (258,729);
}
);
background = {
shapes = (
{
closed = 1;
nodes = (
(436,259,l),
(422,203,o),
(369,166,o),
(303,166,cs),
(213,166,o),
(157,229,o),
(157,361,cs),
(157,489,o),
(211,562,o),
(308,562,cs),
(369,562,o),
(419,529,o),
(436,471,c),
(646,471,l),
(630,631,o),
(496,738,o),
(309,738,cs),
(88,738,o),
(-57,589,o),
(-57,362,cs),
(-57,139,o),
(82,-10,o),
(309,-10,cs),
(489,-10,o),
(630,98,o),
(646,259,c)
);
}
);
};
layerId = "E787E54A-EE3E-475A-BF02-8501A6DA5144";
shapes = (
{
closed = 1;
nodes = (
(284,-10,o),
(334,13,o),
(361,94,c),
(366,94,l),
(373,0,l),
(489,0,l),
(489,405,l),
(262,405,l),
(262,270,l),
(360,270,l),
(320,317,l),
(320,273,ls),
(320,178,o),
(302,145,o),
(260,146,cs),
(215,147,o),
(205,219,o),
(205,364,cs),
(205,526,o),
(220,582,o),
(261,582,cs),
(298,582,o),
(310,541,o),
(314,464,c),
(484,464,l),
(480,667,o),
(395,738,o),
(260,738,cs),
(76,738,o),
(24,590,o),
(24,364,cs),
(24,138,o),
(74,-10,o),
(216,-10,cs)
);
}
);
width = 515;
},
{
anchors = (
{
name = bottom;
pos = (210,0);
},
{
name = top;
pos = (210,729);
}
);
layerId = "5713303B-ED49-44A7-8230-B5CAE56DEB7E";
shapes = (
{
closed = 1;
nodes = (
(260,-10,o),
(310,35,o),
(326,136,c),
(330,136,l),
(333,0,l),
(359,0,l),
(359,374,l),
(185,374,l),
(185,344,l),
(346,344,l),
(326,364,l),
(326,299,ls),
(326,115,o),
(284,18,o),
(197,19,cs),
(100,21,o),
(71,151,o),
(71,364,cs),
(71,570,o),
(98,709,o),
(203,709,cs),
(275,709,o),
(321,666,o),
(332,495,c),
(365,495,l),
(357,631,o),
(327,740,o),
(203,739,cs),
(106,738,o),
(38,664,o),
(38,364,cs),
(38,64,o),
(105,-10,o),
(198,-10,cs)
);
}
);
width = 420;
},
{
anchors = (
{
name = bottom;
pos = (403,0);
},
{
name = top;
pos = (403,729);
}
);
layerId = master01;
shapes = (
{
closed = 1;
nodes = (
(525,-8,o),
(641,64,o),
(676,174,c),
(682,174,l),
(687,0,l),
(719,0,l),
(719,376,l),
(358,376,l),
(358,340,l),
(695,340,l),
(678,357,l),
(678,298,ls),
(678,132,o),
(558,28,o),
(383,28,cs),
(200,28,o),
(86,161,o),
(86,364,cs),
(86,566,o),
(202,700,o),
(396,700,cs),
(544,700,o),
(642,629,o),
(670,515,c),
(710,515,l),
(681,658,o),
(557,736,o),
(396,736,cs),
(185,736,o),
(46,587,o),
(46,364,cs),
(46,141,o),
(181,-8,o),
(383,-8,cs)
);
}
);
userData = {
com.schriftgestaltung.Glyphs.glyph.leftMetricsKey = C;
com.schriftgestaltung.hints = (
{
horizontal = 1;
options = 0;
origin = (
0,
14
);
stem = -2;
target = (
0,
33
);
type = Stem;
},
{
horizontal = 1;
options = 0;
origin = (
0,
7
);
stem = -2;
target = (
0,
8
);
type = Stem;
},
{
horizontal = 1;
options = 0;
origin = (
0,
27
);
stem = -2;
target = (
0,
20
);
type = Stem;
},
{
horizontal = 1;
options = 0;
origin = (
0,
4
);
stem = -2;
target = (
u,
p
);
type = BottomGhost;
},
{
horizontal = 0;
options = 0;
place = (
0,
0
);
stem = -2;
type = Stem;
},
{
horizontal = 0;
options = 0;
origin = (
0,
10
);
stem = -2;
target = (
0,
5
);
type = Stem;
}
);
};
width = 806;
},
{
anchors = (
{
name = bottom;
pos = (420,0);
},
{
name = top;
pos = (420,729);
}
);
background = {
shapes = (
{
closed = 1;
nodes = (
(489,-10,o),
(578,30,o),
(603,90,c),
(610,90,l),
(618,0,l),
(783,0,l),
(783,409,l),
(405,409,l),
(405,262,l),
(587,262,l),
(564,306,l),
(564,278,ls),
(564,207,o),
(510,160,o),
(415,160,cs),
(313,160,o),
(245,216,o),
(245,361,cs),
(245,482,o),
(293,562,o),
(418,562,cs),
(492,562,o),
(550,528,o),
(564,476,c),
(775,476,l),
(765,633,o),
(622,738,o),
(417,738,cs),
(185,738,o),
(31,606,o),
(31,358,cs),
(31,125,o),
(174,-10,o),
(375,-10,cs)
);
}
);
};
layerId = "1EDCBF6C-9964-4A28-BC87-E86B534B8BE7";
shapes = (
{
closed = 1;
nodes = (
(490,-10,o),
(579,31,o),
(605,92,c),
(612,92,l),
(620,0,l),
(781,0,l),
(781,408,l),
(403,408,l),
(403,264,l),
(590,264,l),
(567,307,l),
(567,279,ls),
(567,205,o),
(511,156,o),
(414,156,cs),
(309,156,o),
(240,215,o),
(240,361,cs),
(240,484,o),
(290,566,o),
(417,566,cs),
(494,566,o),
(552,531,o),
(567,477,c),
(773,477,l),
(762,634,o),
(619,738,o),
(416,738,cs),
(184,738,o),
(31,605,o),
(31,358,cs),
(31,126,o),
(174,-10,o),
(375,-10,cs)
);
}
);
userData = {
com.schriftgestaltung.Glyphs.glyph.leftMetricsKey = C;
};
width = 840;
},
{
anchors = (
{
name = bottom;
pos = (441,0);
},
{
name = top;
pos = (441,729);
}
);
layerId = "28A8A76A-23B4-40F5-83B9-DC51E48BF161";
shapes = (
{
closed = 1;
nodes = (
(572,-8,o),
(700,64,o),
(738,174,c),
(745,174,l),
(751,0,l),
(782,0,l),
(782,376,l),
(384,376,l),
(384,340,l),
(761,340,l),
(743,357,l),
(743,298,ls),
(743,132,o),
(607,28,o),
(412,28,cs),
(207,28,o),
(79,161,o),
(79,364,cs),
(79,566,o),
(210,700,o),
(427,700,cs),
(592,700,o),
(702,629,o),
(733,515,c),
(772,515,l),
(739,658,o),
(605,736,o),
(427,736,cs),
(194,736,o),
(41,587,o),
(41,364,cs),
(41,140,o),
(190,-8,o),
(414,-8,cs)
);
}
);
width = 881;
},
{
anchors = (
{
name = bottom;
pos = (446,0);
},
{
name = top;
pos = (446,729);
}
);
layerId = "D2144554-01B8-4B9B-B16A-E0E5B5794DFC";
shapes = (
{
closed = 1;
nodes = (
(511,-10,o),
(619,28,o),
(660,97,c),
(668,97,l),
(676,0,l),
(857,0,l),
(857,410,l),
(445,410,l),
(445,261,l),
(649,261,l),
(621,294,l),
(621,271,ls),
(621,208,o),
(538,163,o),
(447,163,cs),
(331,163,o),
(253,231,o),
(253,358,cs),
(253,479,o),
(315,563,o),
(456,563,cs),
(541,563,o),
(603,525,o),
(616,475,c),
(848,475,l),
(833,633,o),
(675,739,o),
(455,739,cs),
(188,739,o),
(22,598,o),
(22,352,cs),
(22,135,o),
(170,-10,o),
(390,-10,cs)
);
}
);
width = 891;
}
);
metricLeft = C;
},
{
glyphname = a;
kernLeft = c;
kernRight = q;
lastChange = "2022-12-13 14:31:45 +0000";
layers = (
{
anchors = (
{
name = bottom;
pos = (237,0);
},
{
name = ogonek;
pos = (426,10);
},
{
name = top;
pos = (237,541);
}
);
layerId = "E787E54A-EE3E-475A-BF02-8501A6DA5144";
shapes = (
{
closed = 1;
nodes = (
(203,-10,o),
(243,13,o),
(262,64,c),
(269,64,l),
(269,0,l),
(445,0,l),
(445,541,l),
(273,541,l),
(269,477,l),
(262,477,l),
(244,526,o),
(210,551,o),
(158,551,cs),
(76,551,o),
(18,493,o),
(18,271,cs),
(18,97,o),
(48,-10,o),
(158,-10,cs)
);
},
{
closed = 1;
nodes = (
(206,128,o),
(196,160,o),
(196,271,cs),
(196,365,o),
(201,415,o),
(233,415,cs),
(257,415,o),
(269,385,o),
(269,285,cs),
(269,256,ls),
(269,171,o),
(261,128,o),
(233,128,cs)
);
}
);
width = 473;
},
{
anchors = (
{
name = bottom;
pos = (169,0);
},
{
name = ogonek;
pos = (303,10);
},
{
name = top;
pos = (169,516);
}
);
layerId = "5713303B-ED49-44A7-8230-B5CAE56DEB7E";
shapes = (
{
closed = 1;
nodes = (
(204,-10,o),
(230,25,o),
(246,77,c),
(248,77,l),
(248,0,l),
(277,0,l),
(277,516,l),
(249,516,l),
(248,439,l),
(246,439,l),
(230,491,o),
(204,526,o),
(152,526,cs),
(83,526,o),
(38,461,o),
(38,257,cs),
(38,50,o),
(85,-10,o),
(152,-10,cs)
);
},
{
closed = 1;
nodes = (
(86,16,o),
(68,104,o),
(68,257,cs),
(68,415,o),
(87,500,o),
(160,500,cs),
(213,500,o),
(248,436,o),
(248,309,cs),
(248,206,ls),
(248,77,o),
(212,16,o),
(160,16,cs)
);
}
);
width = 337;
},
{
anchors = (
{
name = bottom;
pos = (292,0);
},
{
name = ogonek;
pos = (525,10);
},
{
name = top;
pos = (292,517);
}
);
layerId = master01;
shapes = (
{
closed = 1;
nodes = (
(360,-8,o),
(431,44,o),
(458,121,c),
(461,121,l),
(461,0,l),
(498,0,l),
(498,517,l),
(463,517,l),
(461,398,l),
(458,398,l),
(431,475,o),
(360,526,o),
(262,526,cs),
(133,526,o),
(45,425,o),
(45,259,cs),
(45,94,o),
(133,-8,o),
(262,-8,cs)
);
},
{
closed = 1;
nodes = (
(158,26,o),
(83,112,o),
(83,259,cs),
(83,408,o),
(158,493,o),
(270,493,cs),
(390,493,o),
(460,397,o),
(460,295,cs),
(460,224,ls),
(460,122,o),
(390,26,o),
(270,26,cs)
);
}
);
userData = {
com.schriftgestaltung.Glyphs.glyph.leftMetricsKey = a;
com.schriftgestaltung.Glyphs.glyph.rightMetricsKey = n;
com.schriftgestaltung.hints = (
{
horizontal = 1;
options = 0;
origin = (
0,
28
);
stem = -2;
target = (
1,
10
);
type = Stem;
},
{
horizontal = 1;
options = 0;
origin = (
0,
17
);
stem = -2;
target = (
0,
10
);
type = Stem;
},
{
horizontal = 1;
options = 0;
origin = (
0,
6
);
stem = -2;
target = (
u,
p
);
type = BottomGhost;
},
{
horizontal = 1;
options = 0;
origin = (
0,
10
);
stem = -2;
target = (
d,
o,
w,
n
);
type = TopGhost;
},
{
horizontal = 0;
options = 0;
origin = (
1,
2
);
stem = -2;
target = (
0,
14
);
type = Stem;
},
{
horizontal = 0;
options = 0;
place = (
463,
37
);
stem = -2;
type = Stem;
}
);
};
width = 583;
},
{
anchors = (
{
name = bottom;
pos = (327,0);
},
{
name = ogonek;
pos = (588,10);
},
{
name = top;
pos = (327,544);
}
);
layerId = "1EDCBF6C-9964-4A28-BC87-E86B534B8BE7";
shapes = (
{
closed = 1;
nodes = (
(315,-10,o),
(374,27,o),
(398,83,c),
(408,83,l),
(408,0,l),
(599,0,l),
(599,544,l),
(415,544,l),
(408,461,l),
(398,461,l),
(374,517,o),
(315,554,o),
(238,554,cs),
(110,554,o),
(25,464,o),
(25,272,cs),
(25,80,o),
(110,-10,o),
(238,-10,cs)
);
},
{
closed = 1;
nodes = (
(257,143,o),
(220,179,o),
(220,272,cs),
(220,365,o),
(257,401,o),
(313,401,cs),
(380,401,o),
(406,349,o),
(406,294,cs),
(406,250,ls),
(406,195,o),
(380,143,o),
(313,143,cs)
);
}
);
userData = {
com.schriftgestaltung.Glyphs.glyph.leftMetricsKey = a;
com.schriftgestaltung.Glyphs.glyph.rightMetricsKey = n;
};
width = 653;
},
{
anchors = (
{
name = bottom;
pos = (323,0);
},
{
name = ogonek;
pos = (581,10);
},
{
name = top;
pos = (323,517);
}
);
layerId = "28A8A76A-23B4-40F5-83B9-DC51E48BF161";
shapes = (
{
closed = 1;
nodes = (
(414,-9,o),
(507,47,o),
(539,130,c),
(543,130,l),
(543,0,l),
(580,0,l),
(580,517,l),
(545,517,l),
(543,398,l),
(539,398,l),
(507,474,o),
(420,526,o),
(303,526,cs),
(147,526,o),
(41,424,o),
(41,259,cs),
(41,97,o),
(146,-9,o),
(303,-9,cs)
);
},
{
closed = 1;
nodes = (
(170,25,o),
(79,118,o),
(79,259,cs),
(79,407,o),
(171,492,o),
(307,492,cs),
(456,492,o),
(543,396,o),
(543,294,cs),
(543,234,ls),
(543,126,o),
(456,25,o),
(307,25,cs)
);
}
);
width = 646;
},
{
anchors = (
{
name = bottom;
pos = (370,0);
},
{
name = ogonek;
pos = (666,10);
},
{
name = top;
pos = (370,544);
}
);
layerId = "D2144554-01B8-4B9B-B16A-E0E5B5794DFC";
shapes = (
{
closed = 1;
nodes = (
(365,-10,o),
(434,19,o),
(468,69,c),
(476,69,l),
(476,0,l),
(697,0,l),
(697,544,l),
(487,544,l),
(481,473,l),
(473,473,l),
(442,520,o),
(383,552,o),
(286,552,cs),
(128,552,o),
(22,444,o),
(22,271,cs),
(22,99,o),
(128,-10,o),
(286,-10,cs)
);
},
{
closed = 1;
nodes = (
(289,155,o),
(244,195,o),
(244,271,cs),
(244,347,o),
(290,387,o),
(357,387,cs),
(431,387,o),
(475,342,o),
(475,277,cs),
(475,265,ls),
(475,200,o),
(431,155,o),
(357,155,cs)
);
}
);
width = 740;
}
);
metricLeft = c;
metricRight = q;
unicode = 97;
},
{
glyphname = ae;
kernLeft = c;
kernRight = c;
lastChange = "2022-12-13 14:31:45 +0000";
layers = (
{
anchors = (
{
name = bottom;
pos = (264,0);
},
{
name = top;
pos = (264,516);
}
);
background = {
shapes = (
{
closed = 1;
nodes = (
(204,-10,o),
(230,25,o),
(246,77,c),
(248,77,l),
(248,0,l),
(276,0,l),
(276,77,l),
(278,77,l),
(294,25,o),
(320,-10,o),
(372,-10,cs),
(433,-10,o),
(479,27,o),
(489,148,c),
(459,148,l),
(451,70,o),
(433,18,o),
(372,18,cs),
(300,16,o),
(277,88,o),
(277,260,c),
(487,260,l),
(486,419,o),
(463,526,o),
(372,526,cs),
(320,526,o),
(294,491,o),
(278,439,c),
(276,439,l),
(276,516,l),
(249,516,l),
(248,439,l),
(246,439,l),
(230,491,o),
(204,526,o),
(152,526,cs),
(83,526,o),
(38,461,o),
(38,257,cs),
(38,50,o),
(85,-10,o),
(152,-10,cs)
);
},
{
closed = 1;
nodes = (
(86,16,o),
(68,104,o),
(68,257,cs),
(68,415,o),
(87,500,o),
(160,500,cs),
(213,500,o),
(248,436,o),
(248,309,cs),
(248,206,ls),
(248,77,o),
(212,16,o),
(160,16,cs)
);
},
{
closed = 1;
nodes = (
(277,429,o),
(304,500,o),
(372,498,cs),
(416,498,o),
(453,463,o),
(457,289,c),
(277,289,l)
);
}
);
};
layerId = "5713303B-ED49-44A7-8230-B5CAE56DEB7E";
shapes = (
{
closed = 1;
nodes = (
(204,-10,o),
(230,25,o),
(246,77,c),
(248,77,l),
(248,0,l),
(276,0,l),
(276,77,l),
(278,77,l),
(294,25,o),
(320,-10,o),
(372,-10,cs),
(433,-10,o),
(479,27,o),
(489,148,c),
(459,148,l),
(451,70,o),
(433,18,o),
(372,18,cs),
(300,16,o),
(277,88,o),
(277,260,c),
(487,260,l),
(486,419,o),
(463,526,o),
(372,526,cs),
(320,526,o),
(294,491,o),
(278,439,c),
(276,439,l),
(276,516,l),
(249,516,l),
(248,439,l),
(246,439,l),
(230,491,o),
(204,526,o),
(152,526,cs),
(83,526,o),
(38,461,o),
(38,257,cs),
(38,50,o),
(85,-10,o),
(152,-10,cs)
);
},
{
closed = 1;
nodes = (
(86,16,o),
(68,104,o),
(68,257,cs),
(68,415,o),
(87,500,o),
(160,500,cs),
(213,500,o),
(248,436,o),
(248,309,cs),
(248,206,ls),
(248,77,o),
(212,16,o),
(160,16,cs)
);
},
{
closed = 1;
nodes = (
(277,429,o),
(304,500,o),
(372,498,cs),
(416,498,o),
(453,463,o),
(457,289,c),
(277,289,l)
);
}
);
width = 527;
},
{
anchors = (
{
name = bottom;
pos = (371,0);
},
{
name = top;
pos = (371,541);
}
);
background = {
shapes = (
{
closed = 1;
nodes = (
(203,-10,o),
(243,13,o),
(262,64,c),
(269,64,l),
(269,0,l),
(378,0,l),
(378,64,l),
(385,64,l),
(410,3,o),
(466,-10,o),
(521,-10,cs),
(634,-10,o),
(711,40,o),
(723,185,c),
(556,185,l),
(553,135,o),
(542,118,o),
(521,118,cs),
(497,118,o),
(486,147,o),
(486,235,c),
(723,235,l),
(733,441,o),
(677,551,o),
(523,551,cs),
(458,551,o),
(404,521,o),
(386,477,c),
(379,477,l),
(379,541,l),
(273,541,l),
(269,477,l),
(262,477,l),
(244,526,o),
(210,551,o),
(158,551,cs),
(76,551,o),
(18,493,o),
(18,271,cs),
(18,97,o),
(48,-10,o),
(158,-10,cs)
);
},
{
closed = 1;
nodes = (
(206,128,o),
(196,160,o),
(196,271,cs),
(196,365,o),
(201,415,o),
(233,415,cs),
(257,415,o),
(269,385,o),
(269,285,cs),
(269,256,ls),
(269,171,o),
(261,128,o),
(233,128,cs)
);
},
{
closed = 1;
nodes = (
(488,401,o),
(499,422,o),
(521,422,cs),
(543,422,o),
(554,397,o),
(556,333,c),
(486,333,l)
);
}
);
};
layerId = "E787E54A-EE3E-475A-BF02-8501A6DA5144";
shapes = (
{
closed = 1;
nodes = (
(203,-10,o),
(243,13,o),
(262,64,c),
(269,64,l),
(269,0,l),
(378,0,l),
(378,64,l),
(385,64,l),
(410,3,o),
(466,-10,o),
(521,-10,cs),
(634,-10,o),
(711,40,o),
(723,185,c),
(556,185,l),
(553,135,o),
(542,118,o),
(521,118,cs),
(497,118,o),
(486,147,o),
(486,235,c),
(723,235,l),
(733,441,o),
(677,551,o),
(523,551,cs),
(458,551,o),
(404,521,o),
(386,477,c),
(379,477,l),
(379,541,l),
(273,541,l),
(269,477,l),
(262,477,l),
(244,526,o),
(210,551,o),
(158,551,cs),
(76,551,o),
(18,493,o),
(18,271,cs),
(18,97,o),
(48,-10,o),
(158,-10,cs)
);
},
{
closed = 1;
nodes = (
(206,128,o),
(196,160,o),
(196,271,cs),
(196,365,o),
(201,415,o),
(233,415,cs),
(257,415,o),
(269,385,o),
(269,285,cs),
(269,256,ls),
(269,171,o),
(261,128,o),
(233,128,cs)
);
},
{
closed = 1;
nodes = (
(488,401,o),
(499,422,o),
(521,422,cs),
(543,422,o),
(554,397,o),
(556,333,c),
(486,333,l)
);
}
);
width = 742;
},
{
anchors = (
{
name = bottom;
pos = (482,0);
},
{
name = top;
pos = (482,517);
}
);
background = {
shapes = (
{
closed = 1;
nodes = (
(45,94,o),
(133,-8,o),
(262,-8,cs),
(360,-8,o),
(431,44,o),
(458,121,c),
(461,121,l),
(461,0,l),
(498,0,l),
(498,121,l),
(501,121,l),
(535,35,o),
(610,-8,o),
(698,-8,cs),
(810,-8,o),
(899,55,o),
(916,152,c),
(878,152,l),
(861,76,o),
(793,28,o),
(698,28,cs),
(579,28,o),
(502,111,o),
(498,256,c),
(917,256,l),
(931,407,o),
(854,525,o),
(696,525,cs),
(607,525,o),
(533,478,o),
(501,398,c),
(498,398,l),
(498,517,l),
(463,517,l),
(461,398,l),
(458,398,l),
(431,475,o),
(360,526,o),
(262,526,cs),
(133,526,o),
(45,425,o),
(45,259,cs)
);
},
{
closed = 1;
nodes = (
(83,408,o),
(158,493,o),
(270,493,cs),
(390,493,o),
(460,397,o),
(460,295,cs),
(460,224,ls),
(460,122,o),
(390,26,o),
(270,26,cs),
(158,26,o),
(83,112,o),
(83,259,cs)
);
},
{
closed = 1;
nodes = (
(508,414,o),
(582,489,o),
(695,489,cs),
(799,489,o),
(882,433,o),
(882,289,c),
(499,289,l)
);
}
);
};
layerId = master01;
shapes = (
{
closed = 1;
nodes = (
(360,-8,o),
(431,44,o),
(458,121,c),
(461,121,l),
(461,0,l),
(498,0,l),
(498,121,l),
(501,121,l),
(535,35,o),
(610,-8,o),
(698,-8,cs),
(810,-8,o),
(899,55,o),
(916,152,c),
(878,152,l),
(861,76,o),
(793,28,o),
(698,28,cs),
(579,28,o),
(502,111,o),
(498,256,c),
(917,256,l),
(931,407,o),
(854,525,o),
(696,525,cs),
(607,525,o),
(533,478,o),
(501,398,c),
(498,398,l),
(498,517,l),
(463,517,l),
(461,398,l),
(458,398,l),
(431,475,o),
(360,526,o),
(262,526,cs),
(133,526,o),
(45,425,o),
(45,259,cs),
(45,94,o),
(133,-8,o),
(262,-8,cs)
);
},
{
closed = 1;
nodes = (
(158,26,o),
(83,112,o),
(83,259,cs),
(83,408,o),
(158,493,o),
(270,493,cs),
(390,493,o),
(460,397,o),
(460,295,cs),
(460,224,ls),
(460,122,o),
(390,26,o),
(270,26,cs)
);
},
{
closed = 1;
nodes = (
(508,414,o),
(582,489,o),
(695,489,cs),
(799,489,o),
(882,433,o),
(882,289,c),
(499,289,l)
);
}
);
width = 964;
},
{
anchors = (
{
name = bottom;
pos = (515,0);
},
{
name = top;
pos = (515,544);
}
);
layerId = "1EDCBF6C-9964-4A28-BC87-E86B534B8BE7";
shapes = (
{
closed = 1;
nodes = (
(316,-10,o),
(374,27,o),
(398,83,c),
(408,83,l),
(415,0,l),
(556,0,l),
(556,72,l),
(565,72,l),
(588,23,o),
(657,-10,o),
(749,-10,cs),
(886,-10,o),
(985,65,o),
(997,177,c),
(818,177,l),
(810,150,o),
(778,132,o),
(738,132,cs),
(682,132,o),
(644,166,o),
(646,227,c),
(1001,227,l),
(1023,423,o),
(932,554,o),
(748,554,cs),
(669,554,o),
(598,521,o),
(569,471,c),
(559,471,l),
(559,544,l),
(415,544,l),
(408,461,l),
(398,461,l),
(374,517,o),
(316,554,o),
(236,554,cs),
(111,554,o),
(25,464,o),
(25,272,cs),
(25,80,o),
(111,-10,o),
(236,-10,cs)
);
},
{
closed = 1;
nodes = (
(257,143,o),
(220,179,o),
(220,272,cs),
(220,365,o),
(257,401,o),
(313,401,cs),
(380,401,o),
(406,349,o),
(406,294,cs),
(406,250,ls),
(406,195,o),
(380,143,o),
(313,143,cs)
);
},
{
closed = 1;
nodes = (
(651,384,o),
(683,413,o),
(731,413,cs),
(783,413,o),
(810,384,o),
(813,341,c),
(647,341,l)
);
}
);
width = 1029;
},
{
anchors = (
{
name = bottom;
pos = (538,0);
},
{
name = top;
pos = (538,517);
}
);
layerId = "28A8A76A-23B4-40F5-83B9-DC51E48BF161";
shapes = (
{
closed = 1;
nodes = (
(402,-8,o),
(485,44,o),
(516,121,c),
(519,121,l),
(518,0,l),
(556,0,l),
(556,121,l),
(560,121,l),
(599,35,o),
(685,-8,o),
(785,-8,cs),
(912,-8,o),
(1013,55,o),
(1033,152,c),
(996,152,l),
(976,75,o),
(896,26,o),
(786,26,cs),
(647,26,o),
(557,110,o),
(552,256,c),
(1034,256,l),
(1049,401,o),
(968,525,o),
(783,525,cs),
(681,525,o),
(596,478,o),
(559,398,c),
(556,398,l),
(556,517,l),
(521,517,l),
(519,398,l),
(516,398,l),
(485,475,o),
(402,526,o),
(290,526,cs),
(142,526,o),
(41,425,o),
(41,259,cs),
(41,94,o),
(142,-8,o),
(290,-8,cs)
);
},
{
closed = 1;
nodes = (
(166,26,o),
(79,112,o),
(79,259,cs),
(79,408,o),
(166,493,o),
(297,493,cs),
(435,493,o),
(518,397,o),
(518,295,cs),
(518,224,ls),
(518,122,o),
(435,26,o),
(297,26,cs)
);
},
{
closed = 1;
nodes = (
(564,415,o),
(651,491,o),
(782,491,cs),
(903,491,o),
(1000,434,o),
(1000,289,c),
(554,289,l)
);
}
);
width = 1075;
},
{
anchors = (
{
name = bottom;
pos = (603,0);
},
{
name = top;
pos = (603,544);
}
);
layerId = "D2144554-01B8-4B9B-B16A-E0E5B5794DFC";
shapes = (
{
closed = 1;
nodes = (
(365,-10,o),
(434,19,o),
(468,69,c),
(476,69,l),
(476,0,l),
(637,0,l),
(637,69,l),
(644,69,l),
(680,22,o),
(757,-10,o),
(868,-10,cs),
(1037,-10,o),
(1171,66,o),
(1184,179,c),
(976,179,l),
(964,153,o),
(919,135,o),
(864,135,cs),
(788,135,o),
(743,168,o),
(742,223,c),
(1182,223,l),
(1197,432,o),
(1077,554,o),
(866,554,cs),
(779,554,o),
(704,536,o),
(645,473,c),
(637,473,l),
(637,544,l),
(487,544,l),
(481,473,l),
(473,473,l),
(442,520,o),
(383,552,o),
(286,552,cs),
(128,552,o),
(22,444,o),
(22,271,cs),
(22,99,o),
(128,-10,o),
(286,-10,cs)
);
},
{
closed = 1;
nodes = (
(289,155,o),
(244,195,o),
(244,271,cs),
(244,347,o),
(290,387,o),
(357,387,cs),
(431,387,o),
(475,342,o),
(475,277,cs),
(475,265,ls),
(475,200,o),
(431,155,o),
(357,155,cs)
);
},
{
closed = 1;
nodes = (
(751,385,o),
(793,408,o),
(855,408,cs),
(924,408,o),
(957,379,o),
(964,338,c),
(738,338,l)
);
}
);
width = 1205;
}
);
metricLeft = c;
metricRight = e;
unicode = 230;
},
{
glyphname = b;
kernLeft = b;
kernRight = b;
lastChange = "2022-12-13 14:31:45 +0000";
layers = (
{
anchors = (
{
name = bottom;
pos = (237,0);
},
{
name = center;
pos = (237,271);
},
{
name = top;
pos = (237,541);
}
);
background = {
shapes = (
{
closed = 1;
nodes = (
(223,0,l),
(223,331,ls),
(223,378,o),
(233,400,o),
(263,400,cs),
(288,400,o),
(300,383,o),
(300,331,cs),
(300,0,l),
(486,0,l),
(486,343,ls),
(486,500,o),
(443,554,o),
(351,554,cs),
(290,554,o),
(252,525,o),
(230,481,c),
(223,481,l),
(223,729,l),
(37,729,l),
(37,0,l)
);
}
);
};
layerId = "E787E54A-EE3E-475A-BF02-8501A6DA5144";
shapes = (
{
closed = 1;
nodes = (
(400,-10,o),
(455,51,o),
(455,271,cs),
(455,441,o),
(427,551,o),
(316,551,cs),
(268,551,o),
(229,525,o),
(211,477,c),
(205,477,l),
(205,729,l),
(28,729,l),
(28,0,l),
(202,0,l),
(205,64,l),
(211,64,l),
(230,15,o),
(263,-10,o),
(316,-10,cs)
);
},
{
closed = 1;
nodes = (
(216,128,o),
(205,159,o),
(205,256,cs),
(205,285,ls),
(205,367,o),
(212,415,o),
(241,415,cs),
(268,415,o),
(279,380,o),
(279,271,cs),
(279,173,o),
(272,128,o),
(241,128,cs)
);
}
);
width = 473;
},
{
anchors = (
{
name = bottom;
pos = (169,0);
},
{
name = center;
pos = (169,258);
},
{
name = top;
pos = (169,516);
}
);
background = {
shapes = (
{
closed = 1;
nodes = (
(388,-9,o),
(476,93,o),
(476,258,cs),
(476,424,o),
(388,526,o),
(258,526,cs),
(161,526,o),
(90,474,o),
(63,398,c),
(60,398,l),
(60,729,l),
(23,729,l),
(23,0,l),
(58,0,l),
(60,119,l),
(63,119,l),
(90,43,o),
(161,-9,o),
(258,-9,cs)
);
},
{
closed = 1;
nodes = (
(130,25,o),
(60,121,o),
(60,223,cs),
(60,294,ls),
(60,396,o),
(130,492,o),
(251,492,cs),
(363,492,o),
(438,407,o),
(438,258,cs),
(438,110,o),
(363,25,o),
(251,25,cs)
);
}
);
};
layerId = "5713303B-ED49-44A7-8230-B5CAE56DEB7E";
shapes = (
{
closed = 1;
nodes = (
(253,-10,o),
(299,53,o),
(299,258,cs),
(299,466,o),
(252,526,o),
(185,526,cs),
(133,526,o),
(107,491,o),
(91,439,c),
(89,439,l),
(89,729,l),
(60,729,l),
(60,0,l),
(88,0,l),
(89,77,l),
(91,77,l),
(108,19,o),
(138,-10,o),
(185,-10,cs)
);
},
{
closed = 1;
nodes = (
(124,16,o),
(89,79,o),
(89,206,cs),
(89,309,ls),
(89,439,o),
(125,500,o),
(177,500,cs),
(250,500,o),
(269,414,o),
(269,258,cs),
(269,101,o),
(250,16,o),
(177,16,cs)
);
}
);
width = 337;
},
{
anchors = (
{
name = bottom;
pos = (292,0);
},
{
name = center;
pos = (292,259);
},
{
name = top;
pos = (292,517);
}
);
layerId = master01;
shapes = (
{
closed = 1;
nodes = (
(450,-9,o),
(538,93,o),
(538,258,cs),
(538,424,o),
(450,526,o),
(320,526,cs),
(223,526,o),
(152,474,o),
(125,398,c),
(122,398,l),
(122,729,l),
(85,729,l),
(85,0,l),
(120,0,l),
(122,119,l),
(125,119,l),
(152,43,o),
(223,-9,o),
(320,-9,cs)
);
},
{
closed = 1;
nodes = (
(192,25,o),
(122,121,o),
(122,223,cs),
(122,294,ls),
(122,396,o),
(192,492,o),
(313,492,cs),
(425,492,o),
(500,407,o),
(500,258,cs),
(500,110,o),
(425,25,o),
(313,25,cs)
);
}
);
userData = {
com.schriftgestaltung.Glyphs.glyph.leftMetricsKey = l;
com.schriftgestaltung.hints = (
{
horizontal = 1;
options = 0;
place = (
0,
21
);
stem = -2;
target = (
u,
p
);
type = BottomGhost;
},
{
horizontal = 1;
options = 0;
origin = (
0,
5
);
stem = -2;
target = (
1,
6
);
type = Stem;
},
{
horizontal = 1;
options = 0;
origin = (
0,
11
);
stem = -2;
target = (
d,
o,
w,
n
);
type = TopGhost;
},
{
horizontal = 1;
options = 0;
place = (
0,
0
);
stem = -2;
type = Stem;
},
{
horizontal = 0;
options = 0;
origin = (
0,
12
);
stem = -2;
target = (
1,
3
);
type = Stem;
},
{
horizontal = 0;
options = 0;
origin = (
1,
9
);
stem = -2;
target = (
0,
2
);
type = Stem;
}
);
};
width = 583;
},
{
anchors = (
{
name = bottom;
pos = (327,0);
},
{
name = center;
pos = (327,272);
},
{
name = top;
pos = (327,544);
}
);
background = {
shapes = (
{
closed = 1;
nodes = (
(551,-10,o),
(635,93,o),
(635,270,cs),
(635,448,o),
(551,552,o),
(414,552,cs),
(335,552,o),
(273,514,o),
(246,451,c),
(237,451,l),
(237,750,l),
(46,750,l),
(46,0,l),
(236,0,l),
(237,96,l),
(246,96,l),
(273,29,o),
(335,-10,o),
(413,-10,cs)
);
},
{
closed = 1;
nodes = (
(273,141,o),
(237,183,o),
(237,247,cs),
(237,295,ls),
(237,362,o),
(277,400,o),
(337,400,cs),
(408,400,o),
(441,348,o),
(441,270,cs),
(441,187,o),
(404,141,o),
(337,141,cs)
);
}
);
};
layerId = "1EDCBF6C-9964-4A28-BC87-E86B534B8BE7";
shapes = (
{
closed = 1;
nodes = (
(543,-10,o),
(628,80,o),
(628,272,cs),
(628,464,o),
(543,554,o),
(415,554,cs),
(338,554,o),
(279,517,o),
(255,461,c),
(245,461,l),
(245,729,l),
(54,729,l),
(54,0,l),
(238,0,l),
(245,83,l),
(255,83,l),
(279,27,o),
(338,-10,o),
(415,-10,cs)
);
},
{
closed = 1;
nodes = (
(273,143,o),
(247,195,o),
(247,250,cs),
(247,294,ls),
(247,349,o),
(273,401,o),
(340,401,cs),
(396,401,o),
(433,365,o),
(433,272,cs),
(433,179,o),
(396,143,o),
(340,143,cs)
);
}
);
userData = {
com.schriftgestaltung.Glyphs.glyph.leftMetricsKey = l;
};
width = 653;
},
{
anchors = (
{
name = bottom;
pos = (323,0);
},
{
name = center;
pos = (323,259);
},
{
name = top;
pos = (323,517);
}
);
layerId = "28A8A76A-23B4-40F5-83B9-DC51E48BF161";
shapes = (
{
closed = 1;
nodes = (
(499,-9,o),
(605,93,o),
(605,258,cs),
(605,420,o),
(500,526,o),
(343,526,cs),
(232,526,o),
(139,471,o),
(107,387,c),
(103,387,l),
(103,729,l),
(66,729,l),
(66,0,l),
(101,0,l),
(103,119,l),
(107,119,l),
(139,43,o),
(226,-9,o),
(343,-9,cs)
);
},
{
closed = 1;
nodes = (
(190,25,o),
(103,121,o),
(103,223,cs),
(103,283,ls),
(103,391,o),
(190,492,o),
(339,492,cs),
(476,492,o),
(567,399,o),
(567,258,cs),
(567,110,o),
(475,25,o),
(339,25,cs)
);
}
);
width = 646;
},
{
anchors = (
{
name = bottom;
pos = (370,0);
},
{
name = center;
pos = (370,272);
},
{
name = top;
pos = (370,544);
}
);
layerId = "D2144554-01B8-4B9B-B16A-E0E5B5794DFC";
shapes = (
{
closed = 1;
nodes = (
(612,-8,o),
(717,101,o),
(717,273,cs),
(717,445,o),
(612,554,o),
(453,554,cs),
(376,554,o),
(306,526,o),
(271,475,c),
(264,475,l),
(264,729,l),
(43,729,l),
(43,0,l),
(252,0,l),
(259,71,l),
(266,71,l),
(298,24,o),
(358,-8,o),
(453,-8,cs)
);
},
{
closed = 1;
nodes = (
(308,157,o),
(264,203,o),
(264,268,cs),
(264,279,ls),
(264,344,o),
(308,389,o),
(383,389,cs),
(451,389,o),
(496,349,o),
(496,273,cs),
(496,198,o),
(451,157,o),
(383,157,cs)
);
}
);
width = 739;
}
);
metricLeft = l;
metricRight = o;
unicode = 98;
},
{
glyphname = c;
kernLeft = c;
kernRight = c;
lastChange = "2022-12-13 14:31:45 +0000";
layers = (
{
anchors = (
{
name = bottom;
pos = (224,0);
},
{
name = top;
pos = (224,541);
}
);
background = {
shapes = (
{
closed = 1;
nodes = (
(381,-10,o),
(456,66,o),
(460,208,c),
(286,208,l),
(279,163,o),
(275,140,o),
(251,140,cs),
(219,140,o),
(211,172,o),
(211,272,cs),
(211,378,o),
(220,404,o),
(251,404,cs),
(274,404,o),
(279,384,o),
(286,336,c),
(460,336,l),
(447,484,o),
(383,554,o),
(245,554,cs),
(106,554,o),
(18,484,o),
(18,274,cs),
(18,60,o),
(109,-10,o),
(242,-10,cs)
);
}
);
};
layerId = "E787E54A-EE3E-475A-BF02-8501A6DA5144";
shapes = (
{
closed = 1;
nodes = (
(334,-10,o),
(419,37,o),
(432,204,c),
(265,204,l),
(261,153,o),
(253,128,o),
(229,128,cs),
(201,128,o),
(195,164,o),
(195,271,cs),
(195,383,o),
(202,414,o),
(229,414,cs),
(252,414,o),
(261,395,o),
(265,339,c),
(432,339,l),
(421,486,o),
(355,551,o),
(229,551,cs),
(96,551,o),
(18,474,o),
(18,273,cs),
(18,66,o),
(100,-10,o),
(229,-10,cs)
);
}
);
width = 447;
},
{
anchors = (
{
name = bottom;
pos = (153,0);
},
{
name = top;
pos = (153,516);
}
);
layerId = "5713303B-ED49-44A7-8230-B5CAE56DEB7E";
shapes = (
{
closed = 1;
nodes = (
(225,-10,o),
(269,31,o),
(277,157,c),
(247,157,l),
(238,56,o),
(214,17,o),
(162,17,cs),
(106,17,o),
(67,65,o),
(67,258,cs),
(67,451,o),
(106,499,o),
(162,499,cs),
(219,499,o),
(239,448,o),
(247,358,c),
(277,358,l),
(269,486,o),
(223,526,o),
(162,526,cs),
(61,526,o),
(38,416,o),
(38,258,cs),
(38,99,o),
(61,-10,o),
(162,-10,cs)
);
}
);
width = 305;
},
{
anchors = (
{
name = bottom;
pos = (273,0);
},
{
name = top;
pos = (273,517);
}
);
layerId = master01;
shapes = (
{
closed = 1;
nodes = (
(405,-8,o),
(492,63,o),
(504,174,c),
(467,174,l),
(457,85,o),
(385,27,o),
(286,27,cs),
(163,27,o),
(82,115,o),
(82,257,cs),
(82,395,o),
(160,490,o),
(287,490,cs),
(377,490,o),
(449,441,o),
(465,354,c),
(501,354,l),
(488,456,o),
(403,525,o),
(289,525,cs),
(141,525,o),
(45,416,o),
(45,257,cs),
(45,98,o),
(141,-8,o),
(286,-8,cs)
);
}
);
userData = {
com.schriftgestaltung.hints = (
{
horizontal = 1;
options = 0;
origin = (
0,
6
);
stem = -2;
target = (
0,
25
);
type = Stem;
},
{
horizontal = 1;
options = 0;
origin = (
0,
19
);
stem = -2;
target = (
0,
12
);
type = Stem;
},
{
horizontal = 0;
options = 0;
origin = (
0,
22
);
stem = -2;
target = (
0,
9
);
type = Stem;
}
);
};
width = 546;
},
{
anchors = (
{
name = bottom;
pos = (292,0);
},
{
name = top;
pos = (292,544);
}
);
background = {
shapes = (
{
closed = 1;
nodes = (
(27,92,o),
(139,-10,o),
(306,-10,cs),
(485,-10,o),
(585,103,o),
(585,272,cs),
(585,452,o),
(473,554,o),
(306,554,cs),
(127,554,o),
(27,441,o),
(27,272,cs)
);
},
{
closed = 1;
nodes = (
(221,364,o),
(255,400,o),
(306,400,cs),
(357,400,o),
(391,364,o),
(391,272,cs),
(391,180,o),
(357,144,o),
(306,144,cs),
(255,144,o),
(221,180,o),
(221,272,cs)
);
}
);
};
layerId = "1EDCBF6C-9964-4A28-BC87-E86B534B8BE7";
shapes = (
{
closed = 1;
nodes = (
(451,-10,o),
(559,76,o),
(563,208,c),
(378,208,l),
(373,171,o),
(349,144,o),
(302,144,cs),
(252,144,o),
(219,182,o),
(219,272,cs),
(219,351,o),
(244,400,o),
(303,400,cs),
(341,400,o),
(369,380,o),
(376,336,c),
(562,336,l),
(560,465,o),
(455,554,o),
(307,554,cs),
(135,554,o),
(25,444,o),
(25,273,cs),
(25,102,o),
(134,-10,o),
(302,-10,cs)
);
}
);
width = 584;
},
{
anchors = (
{
name = bottom;
pos = (311,0);
},
{
name = top;
pos = (311,517);
}
);
layerId = "28A8A76A-23B4-40F5-83B9-DC51E48BF161";
shapes = (
{
closed = 1;
nodes = (
(455,-8,o),
(567,66,o),
(587,174,c),
(548,174,l),
(528,88,o),
(437,27,o),
(320,27,cs),
(166,27,o),
(78,118,o),
(78,257,cs),
(78,397,o),
(176,490,o),
(323,490,cs),
(431,490,o),
(517,445,o),
(545,354,c),
(582,354,l),
(564,457,o),
(461,525,o),
(323,525,cs),
(155,525,o),
(41,416,o),
(41,257,cs),
(41,93,o),
(149,-8,o),
(320,-8,cs)
);
}
);
width = 621;
},
{
anchors = (
{
name = bottom;
pos = (350,0);
},
{
name = top;
pos = (350,544);
}
);
layerId = "D2144554-01B8-4B9B-B16A-E0E5B5794DFC";
shapes = (
{
closed = 1;
nodes = (
(527,-10,o),
(672,73,o),
(678,212,c),
(458,212,l),
(446,174,o),
(405,156,o),
(358,156,cs),
(289,156,o),
(243,193,o),
(243,274,cs),
(243,342,o),
(282,388,o),
(358,388,cs),
(413,388,o),
(450,365,o),
(457,332,c),
(676,332,l),
(671,464,o),
(551,554,o),
(359,554,cs),
(156,554,o),
(22,453,o),
(22,275,cs),
(22,103,o),
(146,-10,o),
(349,-10,cs)
);
}
);
width = 700;
}
);
unicode = 99;
},
{
glyphname = d;
kernLeft = c;
lastChange = "2022-12-13 14:31:45 +0000";
layers = (
{
anchors = (
{
name = bottom;
pos = (237,0);
},
{
name = center;
pos = (237,271);
},
{
name = top;
pos = (237,800);
},
{
name = topright;
pos = (453,800);
}
);
background = {
shapes = (
{
closed = 1;
nodes = (
(312,-10,o),
(373,25,o),
(404,89,c),
(414,89,l),
(414,0,l),
(605,0,l),
(605,729,l),
(414,729,l),
(414,455,l),
(404,455,l),
(375,516,o),
(318,554,o),
(245,554,cs),
(109,554,o),
(18,463,o),
(18,272,cs),
(18,103,o),
(95,-10,o),
(233,-10,cs)
);
},
{
closed = 1;
nodes = (
(237,143,o),
(212,195,o),
(212,272,cs),
(212,365,o),
(252,401,o),
(309,401,cs),
(374,401,o),
(401,353,o),
(401,302,cs),
(401,242,ls),
(401,181,o),
(361,143,o),
(305,143,cs)
);
}
);
};
layerId = "E787E54A-EE3E-475A-BF02-8501A6DA5144";
shapes = (
{
closed = 1;
nodes = (
(210,-10,o),
(245,17,o),
(262,64,c),
(269,64,l),
(273,0,l),
(445,0,l),
(445,729,l),
(269,729,l),
(269,477,l),
(262,477,l),
(244,524,o),
(208,551,o),
(158,551,cs),
(48,551,o),
(18,444,o),
(18,271,cs),
(18,48,o),
(75,-10,o),
(158,-10,cs)
);
},
{
closed = 1;
nodes = (
(201,128,o),
(196,176,o),
(196,271,cs),
(196,381,o),
(206,415,o),
(233,415,cs),
(261,415,o),
(269,370,o),
(269,285,cs),
(269,256,ls),
(269,157,o),
(257,128,o),
(233,128,cs)
);
}
);
width = 473;
},
{
anchors = (
{
name = bottom;
pos = (169,0);
},
{
name = center;
pos = (169,258);
},
{
name = top;
pos = (169,800);
},
{
name = topright;
pos = (317,800);
}
);
background = {
shapes = (
{
closed = 1;
nodes = (
(344,-8,o),
(415,44,o),
(442,121,c),
(445,121,l),
(445,0,l),
(481,0,l),
(482,729,l),
(445,729,l),
(445,398,l),
(442,398,l),
(415,475,o),
(344,526,o),
(246,526,cs),
(117,526,o),
(29,425,o),
(29,259,cs),
(29,94,o),
(117,-8,o),
(246,-8,cs)
);
},
{
closed = 1;
nodes = (
(142,26,o),
(67,112,o),
(67,259,cs),
(67,408,o),
(142,493,o),
(254,493,cs),
(374,493,o),
(444,397,o),
(444,295,cs),
(444,224,ls),
(444,105,o),
(368,26,o),
(254,26,cs)
);
}
);
};
layerId = "5713303B-ED49-44A7-8230-B5CAE56DEB7E";
shapes = (
{
closed = 1;
nodes = (
(203,-10,o),
(230,24,o),
(246,77,c),
(248,77,l),
(249,0,l),
(277,0,l),
(277,729,l),
(248,729,l),
(248,439,l),
(246,439,l),
(230,491,o),
(204,526,o),
(152,526,cs),
(85,526,o),
(38,465,o),
(38,257,cs),
(38,53,o),
(83,-10,o),
(152,-10,cs)
);
},
{
closed = 1;
nodes = (
(87,16,o),
(68,101,o),
(68,257,cs),
(68,412,o),
(86,500,o),
(160,500,cs),
(212,500,o),
(248,439,o),
(248,309,cs),
(248,206,ls),
(248,79,o),
(213,16,o),
(160,16,cs)
);
}
);
width = 337;
},
{
anchors = (
{
name = bottom;
pos = (292,0);
},
{
name = center;
pos = (292,259);
},
{
name = top;
pos = (292,800);
},
{
name = topright;
pos = (563,800);
}
);
layerId = master01;
shapes = (
{
closed = 1;
nodes = (
(360,-8,o),
(431,44,o),
(458,121,c),
(461,121,l),
(462,0,l),
(497,0,l),
(498,729,l),
(461,729,l),
(461,398,l),
(458,398,l),
(431,475,o),
(360,526,o),
(262,526,cs),
(133,526,o),
(45,425,o),
(45,259,cs),
(45,94,o),
(133,-8,o),
(262,-8,cs)
);
},
{
closed = 1;
nodes = (
(158,26,o),
(83,112,o),
(83,259,cs),
(83,408,o),
(158,493,o),
(270,493,cs),
(390,493,o),
(460,397,o),
(460,295,cs),
(460,224,ls),
(460,122,o),
(390,26,o),
(270,26,cs)
);
}
);
userData = {
com.schriftgestaltung.Glyphs.glyph.leftMetricsKey = c;
com.schriftgestaltung.Glyphs.glyph.rightMetricsKey = l;
com.schriftgestaltung.hints = (
{
horizontal = 1;
options = 0;
origin = (
0,
18
);
stem = -2;
target = (
1,
12
);
type = Stem;
},
{
horizontal = 1;
options = 0;
origin = (
1,
5
);
stem = -2;
target = (
0,
12
);
type = Stem;
},
{
horizontal = 1;
options = 0;
origin = (
0,
7
);
stem = -2;
target = (
d,
o,
w,
n
);
type = TopGhost;
},
{
horizontal = 1;
options = 0;
origin = (
0,
4
);
stem = -2;
target = (
u,
p
);
type = BottomGhost;
},
{
horizontal = 0;
options = 0;
origin = (
0,
15
);
stem = -2;
target = (
1,
2
);
type = Stem;
},
{
horizontal = 0;
options = 0;
origin = (
0,
4
);
stem = -2;
target = (
0,
5
);
type = Stem;
}
);
};
width = 583;
},
{
anchors = (
{
name = bottom;
pos = (327,0);
},
{
name = center;
pos = (327,272);
},
{
name = top;
pos = (327,800);
},
{
name = topright;
pos = (633,800);
}
);
background = {
shapes = (
{
closed = 1;
nodes = (
(309,-10,o),
(370,25,o),
(401,89,c),
(411,89,l),
(411,0,l),
(602,0,l),
(602,729,l),
(411,729,l),
(411,455,l),
(401,455,l),
(372,516,o),
(315,554,o),
(242,554,cs),
(106,554,o),
(15,463,o),
(15,272,cs),
(15,103,o),
(92,-10,o),
(230,-10,cs)
);
},
{
closed = 1;
nodes = (
(234,143,o),
(209,195,o),
(209,272,cs),
(209,365,o),
(249,401,o),
(306,401,cs),
(371,401,o),
(398,353,o),
(398,302,cs),
(398,242,ls),
(398,181,o),
(358,143,o),
(302,143,cs)
);
}
);
};
layerId = "1EDCBF6C-9964-4A28-BC87-E86B534B8BE7";
shapes = (
{
closed = 1;
nodes = (
(315,-10,o),
(374,27,o),
(398,83,c),
(408,83,l),
(415,0,l),
(599,0,l),
(599,729,l),
(408,729,l),
(408,461,l),
(398,461,l),
(374,517,o),
(315,554,o),
(238,554,cs),
(110,554,o),
(25,464,o),
(25,272,cs),
(25,80,o),
(110,-10,o),
(238,-10,cs)
);
},
{
closed = 1;
nodes = (
(257,143,o),
(220,179,o),
(220,272,cs),
(220,365,o),
(257,401,o),
(313,401,cs),
(380,401,o),
(406,349,o),
(406,294,cs),
(406,250,ls),
(406,195,o),
(380,143,o),
(313,143,cs)
);
}
);
userData = {
com.schriftgestaltung.Glyphs.glyph.leftMetricsKey = c;
com.schriftgestaltung.Glyphs.glyph.rightMetricsKey = l;
};
width = 653;
},
{
anchors = (
{
name = bottom;
pos = (323,0);
},
{
name = center;
pos = (323,259);
},
{
name = top;
pos = (323,800);
},
{
name = topright;
pos = (625,800);
}
);
layerId = "28A8A76A-23B4-40F5-83B9-DC51E48BF161";
shapes = (
{
closed = 1;
nodes = (
(423,-15,o),
(507,41,o),
(539,124,c),
(543,124,l),
(543,0,l),
(580,0,l),
(580,729,l),
(543,729,l),
(543,387,l),
(539,387,l),
(507,471,o),
(423,526,o),
(309,526,cs),
(148,526,o),
(41,419,o),
(41,256,cs),
(41,92,o),
(148,-15,o),
(309,-15,cs)
);
},
{
closed = 1;
nodes = (
(164,19,o),
(79,113,o),
(79,256,cs),
(79,399,o),
(164,492,o),
(312,492,cs),
(452,492,o),
(543,406,o),
(543,283,cs),
(543,228,ls),
(543,105,o),
(452,19,o),
(312,19,cs)
);
}
);
width = 645;
},
{
anchors = (
{
name = bottom;
pos = (371,0);
},
{
name = center;
pos = (371,272);
},
{
name = top;
pos = (371,800);
},
{
name = topright;
pos = (721,800);
}
);
layerId = "D2144554-01B8-4B9B-B16A-E0E5B5794DFC";
shapes = (
{
closed = 1;
nodes = (
(382,-8,o),
(442,24,o),
(473,70,c),
(481,70,l),
(487,0,l),
(697,0,l),
(697,729,l),
(476,729,l),
(476,475,l),
(468,475,l),
(434,526,o),
(365,554,o),
(287,554,cs),
(128,554,o),
(22,445,o),
(22,273,cs),
(22,101,o),
(128,-8,o),
(285,-8,cs)
);
},
{
closed = 1;
nodes = (
(289,157,o),
(244,198,o),
(244,273,cs),
(244,348,o),
(289,388,o),
(357,388,cs),
(432,388,o),
(475,343,o),
(475,279,cs),
(475,267,ls),
(475,203,o),
(431,157,o),
(357,157,cs)
);
}
);
width = 741;
}
);
metricLeft = c;
metricRight = l;
unicode = 100;
},
{
glyphname = e;
kernLeft = c;
kernRight = b;
lastChange = "2022-12-13 14:31:45 +0000";
layers = (
{
anchors = (
{
name = bottom;
pos = (226,0);
},
{
name = ogonek;
pos = (406,10);
},
{
name = top;
pos = (226,541);
}
);
background = {
shapes = (
{
closed = 1;
nodes = (
(18,60,o),
(109,-10,o),
(251,-10,cs),
(393,-10,o),
(484,60,o),
(484,274,cs),
(484,484,o),
(396,554,o),
(251,554,cs),
(106,554,o),
(18,484,o),
(18,274,cs)
);
},
{
closed = 1;
nodes = (
(211,378,o),
(220,404,o),
(251,404,cs),
(282,404,o),
(291,378,o),
(291,272,cs),
(291,172,o),
(283,140,o),
(251,140,cs),
(219,140,o),
(211,172,o),
(211,272,cs)
);
}
);
};
layerId = "E787E54A-EE3E-475A-BF02-8501A6DA5144";
shapes = (
{
closed = 1;
nodes = (
(343,-10,o),
(420,40,o),
(432,185,c),
(265,185,l),
(262,135,o),
(251,118,o),
(230,118,cs),
(206,118,o),
(195,147,o),
(195,235,c),
(432,235,l),
(442,441,o),
(386,551,o),
(230,551,cs),
(96,551,o),
(18,474,o),
(18,273,cs),
(18,65,o),
(101,-10,o),
(230,-10,cs)
);
},
{
closed = 1;
nodes = (
(195,396,o),
(206,422,o),
(230,422,cs),
(255,422,o),
(265,390,o),
(265,307,c),
(273,333,l),
(184,333,l),
(194,308,l)
);
}
);
width = 451;
},
{
anchors = (
{
name = bottom;
pos = (159,0);
},
{
name = ogonek;
pos = (285,10);
},
{
name = top;
pos = (159,516);
}
);
background = {
shapes = (
{
closed = 1;
nodes = (
(232,-9,o),
(283,52,o),
(290,151,c),
(254,151,l),
(249,77,o),
(215,22,o),
(170,22,cs),
(113,22,o),
(76,89,o),
(76,256,c),
(291,256,l),
(292,262,o),
(293,271,o),
(293,286,cs),
(293,444,o),
(242,525,o),
(170,525,cs),
(83,525,o),
(38,416,o),
(38,256,cs),
(38,103,o),
(82,-9,o),
(170,-9,cs)
);
},
{
closed = 1;
nodes = (
(83,435,o),
(118,492,o),
(170,492,cs),
(222,492,o),
(257,413,o),
(257,289,c),
(76,289,l)
);
}
);
};
layerId = "5713303B-ED49-44A7-8230-B5CAE56DEB7E";
shapes = (
{
closed = 1;
nodes = (
(223,-10,o),
(269,27,o),
(279,148,c),
(249,148,l),
(241,70,o),
(223,18,o),
(162,18,cs),
(105,18,o),
(67,67,o),
(67,260,c),
(277,260,l),
(276,419,o),
(253,526,o),
(162,526,cs),
(61,526,o),
(38,416,o),
(38,258,cs),
(38,99,o),
(61,-10,o),
(162,-10,cs)
);
},
{
closed = 1;
nodes = (
(70,454,o),
(108,498,o),
(162,498,cs),
(207,498,o),
(244,462,o),
(247,281,c),
(256,289,l),
(58,289,l),
(66,281,l)
);
}
);
width = 317;
},
{
anchors = (
{
name = bottom;
pos = (163,0);
},
{
name = ogonek;
pos = (293,10);
},
{
name = top;
pos = (163,516);
}
);
associatedMasterId = "5713303B-ED49-44A7-8230-B5CAE56DEB7E";
attr = {
axisRules = (
{
min = 300;
},
{
}
);
};
background = {
shapes = (
{
closed = 1;
nodes = (
(232,-9,o),
(283,52,o),
(290,151,c),
(254,151,l),
(249,77,o),
(215,22,o),
(170,22,cs),
(113,22,o),
(76,89,o),
(76,256,c),
(291,256,l),
(292,262,o),
(293,271,o),
(293,286,cs),
(293,444,o),
(242,525,o),
(170,525,cs),
(83,525,o),
(38,416,o),
(38,256,cs),
(38,103,o),
(82,-9,o),
(170,-9,cs)
);
},
{
closed = 1;
nodes = (
(83,435,o),
(118,492,o),
(170,492,cs),
(222,492,o),
(257,413,o),
(257,289,c),
(76,289,l)
);
}
);
};
layerId = "5D65ECC2-6181-4225-BCBA-FC34A205E7C8";
name = "[300]";
shapes = (
{
closed = 1;
nodes = (
(223,-10,o),
(269,27,o),
(279,148,c),
(249,148,l),
(241,70,o),
(223,18,o),
(162,18,cs),
(105,18,o),
(67,67,o),
(67,260,c),
(277,260,l),
(276,419,o),
(253,526,o),
(162,526,cs),
(61,526,o),
(38,416,o),
(38,258,cs),
(38,99,o),
(61,-10,o),
(162,-10,cs)
);
},
{
closed = 1;
nodes = (
(70,454,o),
(108,498,o),
(162,498,cs),
(207,498,o),
(244,462,o),
(247,281,c),
(256,297,l),
(58,297,l),
(66,281,l)
);
}
);
width = 326;
},
{
anchors = (
{
name = bottom;
pos = (226,0);
},
{
name = ogonek;
pos = (406,10);
},
{
name = top;
pos = (226,541);
}
);
associatedMasterId = "E787E54A-EE3E-475A-BF02-8501A6DA5144";
attr = {
axisRules = (
{
min = 300;
},
{
}
);
};
background = {
shapes = (
{
closed = 1;
nodes = (
(18,60,o),
(109,-10,o),
(251,-10,cs),
(393,-10,o),
(484,60,o),
(484,274,cs),
(484,484,o),
(396,554,o),
(251,554,cs),
(106,554,o),
(18,484,o),
(18,274,cs)
);
},
{
closed = 1;
nodes = (
(211,378,o),
(220,404,o),
(251,404,cs),
(282,404,o),
(291,378,o),
(291,272,cs),
(291,172,o),
(283,140,o),
(251,140,cs),
(219,140,o),
(211,172,o),
(211,272,cs)
);
}
);
};
layerId = "B8A22713-4ED3-41B0-ADB8-319B17DF2B0C";
name = "[300]";
shapes = (
{
closed = 1;
nodes = (
(343,-10,o),
(420,40,o),
(432,185,c),
(265,185,l),
(262,135,o),
(251,118,o),
(230,118,cs),
(206,118,o),
(195,147,o),
(195,235,c),
(432,235,l),
(442,441,o),
(386,551,o),
(230,551,cs),
(96,551,o),
(18,474,o),
(18,273,cs),
(18,65,o),
(101,-10,o),
(230,-10,cs)
);
},
{
closed = 1;
nodes = (
(195,396,o),
(206,422,o),
(230,422,cs),
(255,422,o),
(265,390,o),
(265,307,c),
(273,333,l),
(184,333,l),
(194,308,l)
);
}
);
width = 451;
},
{
anchors = (
{
name = bottom;
pos = (274,0);
},
{
name = ogonek;
pos = (493,10);
},
{
name = top;
pos = (274,517);
}
);
background = {
shapes = (
{
closed = 1;
nodes = (
(394,-8,o),
(483,55,o),
(500,152,c),
(462,152,l),
(445,76,o),
(377,28,o),
(282,28,cs),
(163,28,o),
(86,111,o),
(82,256,c),
(501,256,l),
(502,263,o),
(503,274,o),
(503,286,cs),
(503,450,o),
(404,525,o),
(280,525,cs),
(133,525,o),
(45,417,o),
(45,258,cs),
(45,97,o),
(138,-8,o),
(282,-8,cs)
);
},
{
closed = 1;
nodes = (
(92,414,o),
(166,489,o),
(279,489,cs),
(383,489,o),
(466,433,o),
(466,289,c),
(84,289,l)
);
}
);
};
layerId = master01;
shapes = (
{
closed = 1;
nodes = (
(394,-8,o),
(483,55,o),
(500,152,c),
(462,152,l),
(445,76,o),
(379,26,o),
(282,26,cs),
(163,26,o),
(86,110,o),
(82,256,c),
(501,256,l),
(515,410,o),
(438,525,o),
(280,525,cs),
(133,525,o),
(45,417,o),
(45,258,cs),
(45,97,o),
(138,-8,o),
(282,-8,cs)
);
},
{
closed = 1;
nodes = (
(90,413,o),
(165,491,o),
(279,491,cs),
(392,491,o),
(468,423,o),
(466,281,c),
(471,289,l),
(78,289,l),
(83,284,l)
);
}
);
userData = {
com.schriftgestaltung.Glyphs.glyph.leftMetricsKey = o;
com.schriftgestaltung.hints = (
{
horizontal = 1;
options = 0;
origin = (
0,
22
);
stem = -2;
target = (
0,
6
);
type = Stem;
},
{
horizontal = 1;
options = 0;
origin = (
0,
9
);
stem = -2;
target = (
1,
6
);
type = Stem;
},
{
horizontal = 1;
options = 0;
origin = (
0,
16
);
stem = -2;
target = (
1,
2
);
type = Stem;
},
{
horizontal = 0;
options = 0;
origin = (
0,
19
);
stem = -2;
target = (
0,
9
);
type = Stem;
},
{
horizontal = 0;
options = 0;
origin = (
1,
5
);
stem = -2;
target = (
0,
2
);
type = Stem;
}
);
};
width = 548;
},
{
anchors = (
{
name = bottom;
pos = (298,0);
},
{
name = ogonek;
pos = (536,10);
},
{
name = top;
pos = (298,544);
}
);
background = {
shapes = (
{
closed = 1;
nodes = (
(446,-10,o),
(552,65,o),
(564,177,c),
(385,177,l),
(377,150,o),
(345,132,o),
(305,132,cs),
(249,132,o),
(211,166,o),
(213,227,c),
(558,227,l),
(561,245,o),
(563,274,o),
(563,300,cs),
(563,452,o),
(468,554,o),
(300,554,cs),
(134,554,o),
(25,445,o),
(25,267,cs),
(25,101,o),
(125,-10,o),
(303,-10,cs)
);
},
{
closed = 1;
nodes = (
(218,384,o),
(249,413,o),
(298,413,cs),
(344,413,o),
(377,387,o),
(380,341,c),
(213,341,l)
);
}
);
};
layerId = "1EDCBF6C-9964-4A28-BC87-E86B534B8BE7";
shapes = (
{
closed = 1;
nodes = (
(448,-10,o),
(552,65,o),
(564,177,c),
(385,177,l),
(377,150,o),
(345,132,o),
(305,132,cs),
(249,132,o),
(211,166,o),
(213,227,c),
(568,227,l),
(588,415,o),
(495,554,o),
(298,554,cs),
(134,554,o),
(25,445,o),
(25,267,cs),
(25,101,o),
(127,-10,o),
(305,-10,cs)
);
},
{
closed = 1;
nodes = (
(211,377,o),
(244,413,o),
(298,413,cs),
(349,413,o),
(384,381,o),
(380,326,c),
(397,341,l),
(197,341,l),
(213,325,l)
);
}
);
userData = {
com.schriftgestaltung.Glyphs.glyph.leftMetricsKey = o;
};
width = 596;
},
{
anchors = (
{
name = bottom;
pos = (274,0);
},
{
name = ogonek;
pos = (493,10);
},
{
name = top;
pos = (274,517);
}
);
associatedMasterId = master01;
attr = {
axisRules = (
{
min = 300;
},
{
}
);
};
background = {
shapes = (
{
closed = 1;
nodes = (
(394,-8,o),
(483,55,o),
(500,152,c),
(462,152,l),
(445,76,o),
(377,28,o),
(282,28,cs),
(163,28,o),
(86,111,o),
(82,256,c),
(501,256,l),
(502,263,o),
(503,274,o),
(503,286,cs),
(503,450,o),
(404,525,o),
(280,525,cs),
(133,525,o),
(45,417,o),
(45,258,cs),
(45,97,o),
(138,-8,o),
(282,-8,cs)
);
},
{
closed = 1;
nodes = (
(92,414,o),
(166,489,o),
(279,489,cs),
(383,489,o),
(466,433,o),
(466,289,c),
(84,289,l)
);
}
);
};
layerId = "F411402B-A4A5-476F-A33A-7B66195C6BF1";
name = "[300]";
shapes = (
{
closed = 1;
nodes = (
(394,-8,o),
(483,55,o),
(500,152,c),
(462,152,l),
(445,76,o),
(377,28,o),
(282,28,cs),
(163,28,o),
(86,111,o),
(82,256,c),
(501,256,l),
(515,407,o),
(438,525,o),
(280,525,cs),
(133,525,o),
(45,417,o),
(45,258,cs),
(45,97,o),
(138,-8,o),
(282,-8,cs)
);
},
{
closed = 1;
nodes = (
(90,412,o),
(165,489,o),
(279,489,cs),
(385,489,o),
(469,431,o),
(466,281,c),
(471,299,l),
(78,299,l),
(83,284,l)
);
}
);
userData = {
com.schriftgestaltung.Glyphs.glyph.leftMetricsKey = o;
com.schriftgestaltung.hints = (
{
horizontal = 1;
options = 0;
origin = (
0,
22
);
stem = -2;
target = (
0,
6
);
type = Stem;
},
{
horizontal = 1;
options = 0;
origin = (
0,
9
);
stem = -2;
target = (
1,
6
);
type = Stem;
},
{
horizontal = 1;
options = 0;
origin = (
0,
16
);
stem = -2;
target = (
1,
2
);
type = Stem;
},
{
horizontal = 0;
options = 0;
origin = (
0,
19
);
stem = -2;
target = (
0,
9
);
type = Stem;
},
{
horizontal = 0;
options = 0;
origin = (
1,
5
);
stem = -2;
target = (
0,
2
);
type = Stem;
}
);
};
width = 548;
},
{
anchors = (
{
name = bottom;
pos = (298,0);
},
{
name = ogonek;
pos = (536,10);
},
{
name = top;
pos = (298,544);
}
);
associatedMasterId = "1EDCBF6C-9964-4A28-BC87-E86B534B8BE7";
attr = {
axisRules = (
{
min = 300;
},
{
}
);
};
background = {
shapes = (
{
closed = 1;
nodes = (
(446,-10,o),
(552,65,o),
(564,177,c),
(385,177,l),
(377,150,o),
(345,132,o),
(305,132,cs),
(249,132,o),
(211,166,o),
(213,227,c),
(558,227,l),
(561,245,o),
(563,274,o),
(563,300,cs),
(563,452,o),
(468,554,o),
(300,554,cs),
(134,554,o),
(25,445,o),
(25,267,cs),
(25,101,o),
(125,-10,o),
(303,-10,cs)
);
},
{
closed = 1;
nodes = (
(218,384,o),
(249,413,o),
(298,413,cs),
(344,413,o),
(377,387,o),
(380,341,c),
(213,341,l)
);
}
);
};
layerId = "324D308B-297F-4E76-B167-9509E107139D";
name = "[300]";
shapes = (
{
closed = 1;
nodes = (
(448,-10,o),
(552,65,o),
(564,177,c),
(385,177,l),
(377,150,o),
(345,132,o),
(305,132,cs),
(249,132,o),
(211,166,o),
(213,227,c),
(568,227,l),
(588,415,o),
(495,554,o),
(298,554,cs),
(134,554,o),
(25,445,o),
(25,267,cs),
(25,101,o),
(127,-10,o),
(305,-10,cs)
);
},
{
closed = 1;
nodes = (
(211,377,o),
(244,413,o),
(298,413,cs),
(349,413,o),
(384,381,o),
(380,326,c),
(397,341,l),
(197,341,l),
(213,325,l)
);
}
);
userData = {
com.schriftgestaltung.Glyphs.glyph.leftMetricsKey = o;
};
width = 596;
},
{
anchors = (
{
name = bottom;
pos = (314,0);
},
{
name = ogonek;
pos = (565,10);
},
{
name = top;
pos = (314,517);
}
);
background = {
shapes = (
{
closed = 1;
nodes = (
(497,-10,o),
(612,98,o),
(612,257,cs),
(612,418,o),
(497,525,o),
(326,525,cs),
(155,525,o),
(40,418,o),
(40,257,cs),
(40,97,o),
(155,-10,o),
(326,-10,cs)
);
},
{
closed = 1;
nodes = (
(176,25,o),
(78,117,o),
(78,257,cs),
(78,399,o),
(177,490,o),
(326,490,cs),
(476,490,o),
(574,399,o),
(574,257,cs),
(574,116,o),
(475,25,o),
(326,25,cs)
);
}
);
};
layerId = "28A8A76A-23B4-40F5-83B9-DC51E48BF161";
shapes = (
{
closed = 1;
nodes = (
(455,-8,o),
(561,55,o),
(581,152,c),
(544,152,l),
(523,76,o),
(435,26,o),
(324,26,cs),
(177,26,o),
(82,111,o),
(78,256,c),
(588,256,l),
(598,423,o),
(492,525,o),
(321,525,cs),
(148,525,o),
(41,417,o),
(41,258,cs),
(41,97,o),
(153,-8,o),
(324,-8,cs)
);
},
{
closed = 1;
nodes = (
(89,407,o),
(177,491,o),
(321,491,cs),
(457,491,o),
(551,417,o),
(549,283,c),
(555,289,l),
(75,289,l),
(80,284,l)
);
}
);
width = 628;
},
{
anchors = (
{
name = bottom;
pos = (353,0);
},
{
name = ogonek;
pos = (635,10);
},
{
name = top;
pos = (353,544);
}
);
layerId = "D2144554-01B8-4B9B-B16A-E0E5B5794DFC";
shapes = (
{
closed = 1;
nodes = (
(538,-10,o),
(672,66,o),
(685,179,c),
(477,179,l),
(465,153,o),
(420,135,o),
(365,135,cs),
(289,135,o),
(244,168,o),
(243,223,c),
(683,223,l),
(698,432,o),
(574,554,o),
(357,554,cs),
(158,554,o),
(22,451,o),
(22,268,cs),
(22,92,o),
(153,-10,o),
(359,-10,cs)
);
},
{
closed = 1;
nodes = (
(246,382,o),
(290,408,o),
(356,408,cs),
(430,408,o),
(462,375,o),
(466,329,c),
(475,338,l),
(230,338,l),
(237,328,l)
);
}
);
width = 706;
},
{
anchors = (
{
name = bottom;
pos = (314,0);
},
{
name = ogonek;
pos = (565,10);
},
{
name = top;
pos = (314,517);
}
);
associatedMasterId = "28A8A76A-23B4-40F5-83B9-DC51E48BF161";
attr = {
axisRules = (
{
min = 300;
},
{
}
);
};
layerId = "F38B233E-336A-43D3-9BA9-8CC67E74D885";
name = "[300]";
shapes = (
{
closed = 1;
nodes = (
(455,-8,o),
(561,55,o),
(581,152,c),
(544,152,l),
(523,76,o),
(441,28,o),
(324,28,cs),
(177,28,o),
(83,111,o),
(78,256,c),
(588,256,l),
(598,423,o),
(492,525,o),
(321,525,cs),
(148,525,o),
(41,417,o),
(41,258,cs),
(41,97,o),
(152,-8,o),
(324,-8,cs)
);
},
{
closed = 1;
nodes = (
(89,407,o),
(177,489,o),
(320,489,cs),
(457,489,o),
(551,417,o),
(549,283,c),
(555,289,l),
(75,289,l),
(80,284,l)
);
}
);
width = 628;
},
{
anchors = (
{
name = bottom;
pos = (353,0);
},
{
name = ogonek;
pos = (635,10);
},
{
name = top;
pos = (353,544);
}
);
associatedMasterId = "D2144554-01B8-4B9B-B16A-E0E5B5794DFC";
attr = {
axisRules = (
{
min = 300;
},
{
}
);
};
layerId = "22766D3D-290E-4B05-92C6-4595DCD52CC9";
name = "[300]";
shapes = (
{
closed = 1;
nodes = (
(538,-10,o),
(672,66,o),
(685,179,c),
(477,179,l),
(465,153,o),
(420,135,o),
(365,135,cs),
(289,135,o),
(244,168,o),
(243,223,c),
(683,223,l),
(698,432,o),
(574,554,o),
(357,554,cs),
(158,554,o),
(22,451,o),
(22,268,cs),
(22,92,o),
(153,-10,o),
(359,-10,cs)
);
},
{
closed = 1;
nodes = (
(246,382,o),
(290,408,o),
(356,408,cs),
(430,408,o),
(462,375,o),
(466,329,c),
(475,338,l),
(230,338,l),
(237,328,l)
);
}
);
width = 706;
}
);
metricLeft = c;
unicode = 101;
},
{
glyphname = f;
kernLeft = f;
kernRight = f;
lastChange = "2022-12-13 14:31:45 +0000";
layers = (
{
anchors = (
{
name = bottom;
pos = (157,0);
},
{
name = top;
pos = (157,800);
}
);
background = {
shapes = (
{
closed = 1;
nodes = (
(280,0,l),
(280,391,l),
(394,391,l),
(394,544,l),
(280,544,l),
(280,561,ls),
(280,604,o),
(303,616,o),
(352,616,cs),
(363,616,o),
(376,615,o),
(394,611,c),
(394,746,l),
(376,753,o),
(344,757,o),
(310,757,cs),
(184,757,o),
(89,709,o),
(89,571,cs),
(89,544,l),
(-15,544,l),
(-15,391,l),
(89,391,l),
(89,0,l)
);
}
);
};
layerId = "E787E54A-EE3E-475A-BF02-8501A6DA5144";
shapes = (
{
closed = 1;
nodes = (
(233,0,l),
(233,401,l),
(290,398,l),
(290,541,l),
(233,539,l),
(233,561,ls),
(233,582,o),
(233,605,o),
(269,605,cs),
(297,605,l),
(297,729,l),
(219,729,ls),
(99,729,o),
(56,672,o),
(56,575,cs),
(56,539,l),
(8,541,l),
(8,398,l),
(56,401,l),
(56,0,l)
);
}
);
width = 313;
},
{
anchors = (
{
name = bottom;
pos = (80,0);
},
{
name = top;
pos = (80,800);
}
);
layerId = "5713303B-ED49-44A7-8230-B5CAE56DEB7E";
shapes = (
{
closed = 1;
nodes = (
(81,0,l),
(81,489,l),
(133,489,l),
(133,516,l),
(81,516,l),
(81,648,ls),
(81,684,o),
(89,700,o),
(121,700,cs),
(138,700,l),
(138,729,l),
(121,729,ls),
(80,729,o),
(52,712,o),
(52,654,cs),
(52,516,l),
(12,516,l),
(12,489,l),
(52,489,l),
(52,0,l)
);
}
);
width = 160;
},
{
anchors = (
{
name = bottom;
pos = (150,0);
},
{
name = top;
pos = (150,800);
}
);
background = {
shapes = (
{
closed = 1;
nodes = (
(161,0,l),
(161,485,l),
(288,485,l),
(288,517,l),
(161,517,l),
(161,626,ls),
(161,683,o),
(191,705,o),
(235,705,cs),
(255,705,o),
(275,702,o),
(291,694,c),
(291,729,l),
(277,735,o),
(257,739,o),
(234,739,cs),
(167,739,o),
(124,701,o),
(124,629,cs),
(124,517,l),
(16,517,l),
(16,485,l),
(124,485,l),
(124,0,l)
);
}
);
};
layerId = master01;
shapes = (
{
closed = 1;
nodes = (
(161,0,l),
(161,485,l),
(288,485,l),
(288,517,l),
(161,517,l),
(161,620,ls),
(161,665,o),
(175,695,o),
(231,695,cs),
(301,695,l),
(301,729,l),
(228,729,ls),
(166,729,o),
(124,696,o),
(124,627,cs),
(124,517,l),
(16,517,l),
(16,485,l),
(124,485,l),
(124,0,l)
);
}
);
userData = {
com.schriftgestaltung.hints = (
{
horizontal = 1;
options = 0;
place = (
0,
21
);
stem = -2;
target = (
u,
p
);
type = BottomGhost;
},
{
horizontal = 1;
options = 0;
place = (
0,
0
);
stem = -2;
type = Stem;
},
{
horizontal = 1;
options = 0;
place = (
0,
0
);
stem = -2;
type = Stem;
},
{
horizontal = 0;
options = 0;
place = (
0,
0
);
stem = -2;
type = Stem;
}
);
};
width = 299;
},
{
anchors = (
{
name = bottom;
pos = (195,0);
},
{
name = top;
pos = (195,800);
}
);
background = {
shapes = (
{
closed = 1;
nodes = (
(286,0,l),
(286,391,l),
(388,391,l),
(388,544,l),
(286,544,l),
(286,561,ls),
(286,590,o),
(305,609,o),
(355,609,cs),
(373,609,o),
(390,606,o),
(398,601,c),
(398,726,l),
(376,733,o),
(336,739,o),
(298,739,cs),
(176,739,o),
(95,685,o),
(95,571,cs),
(95,544,l),
(15,544,l),
(15,391,l),
(95,391,l),
(95,0,l)
);
}
);
};
layerId = "1EDCBF6C-9964-4A28-BC87-E86B534B8BE7";
shapes = (
{
closed = 1;
nodes = (
(278,0,l),
(278,391,l),
(380,391,l),
(380,544,l),
(278,544,l),
(278,572,ls),
(278,592,o),
(289,606,o),
(324,606,cs),
(388,606,l),
(388,729,l),
(265,729,ls),
(151,729,o),
(87,675,o),
(87,580,cs),
(87,544,l),
(7,544,l),
(7,391,l),
(87,391,l),
(87,0,l)
);
}
);
width = 390;
},
{
anchors = (
{
name = bottom;
pos = (151,0);
},
{
name = top;
pos = (151,800);
}
);
background = {
shapes = (
{
closed = 1;
nodes = (
(149,0,l),
(149,485,l),
(276,485,l),
(276,517,l),
(149,517,l),
(149,596,ls),
(149,671,o),
(175,704,o),
(241,704,cs),
(256,704,o),
(275,701,o),
(289,693,c),
(289,727,l),
(279,733,o),
(258,736,o),
(235,736,cs),
(159,736,o),
(112,695,o),
(112,602,cs),
(112,517,l),
(4,517,l),
(4,485,l),
(112,485,l),
(112,0,l)
);
}
);
};
layerId = "28A8A76A-23B4-40F5-83B9-DC51E48BF161";
shapes = (
{
closed = 1;
nodes = (
(159,0,l),
(159,485,l),
(296,485,l),
(296,517,l),
(159,517,l),
(159,598,ls),
(159,666,o),
(185,695,o),
(251,695,cs),
(299,695,l),
(299,729,l),
(245,729,ls),
(169,729,o),
(122,688,o),
(122,603,cs),
(122,517,l),
(14,517,l),
(14,485,l),
(122,485,l),
(122,0,l)
);
}
);
width = 301;
},
{
anchors = (
{
name = bottom;
pos = (229,0);
},
{
name = top;
pos = (229,800);
}
);
layerId = "D2144554-01B8-4B9B-B16A-E0E5B5794DFC";
shapes = (
{
closed = 1;
nodes = (
(321,0,l),
(321,379,l),
(435,379,l),
(435,544,l),
(321,544,l),
(321,554,ls),
(321,576,o),
(338,589,o),
(366,589,cs),
(447,589,l),
(447,729,l),
(332,729,ls),
(178,729,o),
(100,678,o),
(100,559,cs),
(100,544,l),
(11,544,l),
(11,379,l),
(100,379,l),
(100,0,l)
);
}
);
width = 458;
},
{
anchors = (
{
name = bottom;
pos = (162,0);
},
{
name = top;
pos = (162,800);
}
);
associatedMasterId = master01;
attr = {
axisRules = (
{
min = 200;
},
{
}
);
};
background = {
shapes = (
{
closed = 1;
nodes = (
(172,0,l),
(172,485,l),
(299,485,l),
(299,517,l),
(172,517,l),
(172,626,ls),
(172,683,o),
(202,705,o),
(246,705,cs),
(266,705,o),
(286,702,o),
(302,694,c),
(302,729,l),
(288,735,o),
(268,739,o),
(245,739,cs),
(178,739,o),
(135,701,o),
(135,629,cs),
(135,517,l),
(27,517,l),
(27,485,l),
(135,485,l),
(135,0,l)
);
}
);
};
layerId = "BA42E49A-0173-4103-A66A-E5E50E9A0590";
name = "[200]";
shapes = (
{
closed = 1;
nodes = (
(172,0,l),
(172,485,l),
(299,485,l),
(299,517,l),
(172,517,l),
(172,615,ls),
(172,660,o),
(186,690,o),
(242,690,cs),
(312,690,l),
(312,729,l),
(239,729,ls),
(177,729,o),
(135,696,o),
(135,627,cs),
(135,517,l),
(27,517,l),
(27,485,l),
(135,485,l),
(135,0,l)
);
}
);
userData = {
com.schriftgestaltung.hints = (
{
horizontal = 1;
options = 0;
place = (
0,
21
);
stem = -2;
target = (
u,
p
);
type = BottomGhost;
},
{
horizontal = 1;
options = 0;
place = (
0,
0
);
stem = -2;
type = Stem;
},
{
horizontal = 1;
options = 0;
place = (
0,
0
);
stem = -2;
type = Stem;
},
{
horizontal = 0;
options = 0;
place = (
0,
0
);
stem = -2;
type = Stem;
}
);
};
width = 324;
}
);
unicode = 102;
},
{
glyphname = g;
kernLeft = c;
kernRight = q;
lastChange = "2022-12-13 14:31:45 +0000";
layers = (
{
anchors = (
{
name = bottom;
pos = (235,-200);
},
{
name = top;
pos = (235,541);
}
);
background = {
shapes = (
{
closed = 1;
nodes = (
(42,0,l),
(50,-107,o),
(154,-177,o),
(314,-177,cs),
(488,-177,o),
(605,-93,o),
(605,57,cs),
(605,544,l),
(442,544,l),
(430,443,l),
(420,443,l),
(387,521,o),
(323,554,o),
(246,554,cs),
(109,554,o),
(26,447,o),
(26,293,cs),
(26,133,o),
(114,31,o),
(245,31,cs),
(322,31,o),
(378,69,o),
(405,125,c),
(415,125,l),
(415,32,ls),
(415,-14,o),
(377,-44,o),
(314,-44,cs),
(270,-44,o),
(239,-26,o),
(231,0,c)
);
},
{
closed = 1;
nodes = (
(254,177,o),
(219,226,o),
(219,286,cs),
(219,345,o),
(254,395,o),
(319,395,cs),
(378,395,o),
(415,352,o),
(415,297,cs),
(415,275,ls),
(415,227,o),
(379,177,o),
(318,177,cs)
);
}
);
};
layerId = "E787E54A-EE3E-475A-BF02-8501A6DA5144";
shapes = (
{
closed = 1;
nodes = (
(380,-177,o),
(443,-125,o),
(443,39,cs),
(443,541,l),
(272,541,l),
(267,480,l),
(260,480,l),
(244,526,o),
(210,551,o),
(159,551,cs),
(76,551,o),
(18,494,o),
(18,292,cs),
(18,135,o),
(48,31,o),
(159,31,cs),
(199,31,o),
(240,50,o),
(260,104,c),
(267,104,l),
(267,7,ls),
(267,-33,o),
(260,-61,o),
(235,-61,cs),
(217,-61,o),
(203,-47,o),
(203,-5,c),
(41,-5,l),
(40,-113,o),
(108,-177,o),
(221,-177,cs)
);
},
{
closed = 1;
nodes = (
(206,159,o),
(196,191,o),
(196,292,cs),
(196,375,o),
(201,422,o),
(232,422,cs),
(255,422,o),
(267,394,o),
(267,305,cs),
(267,277,ls),
(267,201,o),
(259,159,o),
(232,159,cs)
);
}
);
width = 470;
},
{
anchors = (
{
name = bottom;
pos = (169,-200);
},
{
name = top;
pos = (169,516);
}
);
layerId = "5713303B-ED49-44A7-8230-B5CAE56DEB7E";
shapes = (
{
closed = 1;
nodes = (
(229,-177,o),
(277,-137,o),
(277,10,cs),
(277,516,l),
(249,516,l),
(248,439,l),
(246,439,l),
(230,491,o),
(204,526,o),
(152,526,cs),
(83,526,o),
(38,461,o),
(38,267,cs),
(38,69,o),
(85,9,o),
(152,9,cs),
(206,9,o),
(231,46,o),
(246,96,c),
(248,96,l),
(248,15,ls),
(248,-80,o),
(230,-150,o),
(163,-150,cs),
(124,-150,o),
(90,-135,o),
(83,-52,c),
(55,-52,l),
(62,-127,o),
(90,-177,o),
(164,-177,cs)
);
},
{
closed = 1;
nodes = (
(86,35,o),
(68,123,o),
(68,267,cs),
(68,414,o),
(87,499,o),
(160,499,cs),
(213,499,o),
(248,436,o),
(248,319,cs),
(248,216,ls),
(248,96,o),
(212,35,o),
(160,35,cs)
);
}
);
width = 337;
},
{
anchors = (
{
name = bottom;
pos = (285,-200);
},
{
name = top;
pos = (285,517);
}
);
background = {
shapes = (
{
closed = 1;
nodes = (
(410,-179,o),
(490,-107,o),
(490,29,cs),
(490,517,l),
(454,517,l),
(454,403,l),
(450,403,l),
(424,477,o),
(355,526,o),
(262,526,cs),
(132,526,o),
(45,427,o),
(45,277,cs),
(45,127,o),
(128,28,o),
(259,28,cs),
(353,28,o),
(424,78,o),
(450,153,c),
(454,153,l),
(454,31,ls),
(454,-94,o),
(382,-146,o),
(270,-146,cs),
(176,-146,o),
(114,-100,o),
(107,-23,c),
(71,-23,l),
(79,-121,o),
(157,-179,o),
(270,-179,cs)
);
},
{
closed = 1;
nodes = (
(156,61,o),
(83,143,o),
(83,277,cs),
(83,407,o),
(154,492,o),
(268,492,cs),
(387,492,o),
(454,397,o),
(454,309,cs),
(454,245,ls),
(454,156,o),
(384,61,o),
(266,61,cs)
);
}
);
};
layerId = master01;
shapes = (
{
closed = 1;
nodes = (
(399,-177,o),
(490,-120,o),
(490,25,cs),
(490,517,l),
(454,517,l),
(454,403,l),
(450,403,l),
(424,477,o),
(355,526,o),
(262,526,cs),
(132,526,o),
(45,427,o),
(45,277,cs),
(45,127,o),
(128,28,o),
(259,28,cs),
(353,28,o),
(424,78,o),
(450,153,c),
(454,153,l),
(454,31,ls),
(454,-103,o),
(379,-144,o),
(270,-144,cs),
(184,-144,o),
(125,-106,o),
(113,-43,c),
(77,-43,l),
(91,-128,o),
(165,-177,o),
(270,-177,cs)
);
},
{
closed = 1;
nodes = (
(156,61,o),
(83,143,o),
(83,277,cs),
(83,407,o),
(154,492,o),
(268,492,cs),
(387,492,o),
(454,397,o),
(454,309,cs),
(454,245,ls),
(454,156,o),
(384,61,o),
(266,61,cs)
);
}
);
userData = {
com.schriftgestaltung.hints = (
{
horizontal = 1;
options = 0;
origin = (
1,
12
);
stem = -2;
target = (
0,
51
);
type = Stem;
},
{
horizontal = 1;
options = 0;
origin = (
0,
6
);
stem = -2;
target = (
1,
5
);
type = Stem;
},
{
horizontal = 1;
options = 0;
origin = (
2,
11
);
stem = -2;
target = (
0,
15
);
type = Stem;
},
{
horizontal = 1;
options = 0;
origin = (
0,
31
);
stem = -2;
target = (
2,
5
);
type = Stem;
},
{
horizontal = 1;
options = 0;
origin = (
0,
25
);
stem = -2;
target = (
0,
24
);
type = Stem;
},
{
horizontal = 1;
options = 0;
origin = (
0,
6
);
stem = -2;
target = (
0,
44
);
type = Stem;
},
{
horizontal = 0;
options = 0;
origin = (
0,
48
);
stem = -2;
target = (
1,
2
);
type = Stem;
},
{
horizontal = 0;
options = 0;
origin = (
1,
9
);
stem = -2;
target = (
0,
2
);
type = Stem;
},
{
horizontal = 0;
options = 0;
origin = (
0,
41
);
stem = -2;
target = (
0,
9
);
type = Stem;
},
{
horizontal = 0;
options = 0;
origin = (
2,
8
);
stem = -2;
target = (
1,
9
);
type = Stem;
},
{
horizontal = 0;
options = 0;
origin = (
0,
34
);
stem = -2;
target = (
2,
2
);
type = Stem;
}
);
};
width = 570;
},
{
anchors = (
{
name = bottom;
pos = (318,-200);
},
{
name = top;
pos = (318,544);
}
);
background = {
shapes = (
{
closed = 1;
nodes = (
(471,-177,o),
(586,-113,o),
(586,80,cs),
(586,544,l),
(401,544,l),
(395,469,l),
(385,469,l),
(363,520,o),
(306,554,o),
(235,554,cs),
(109,554,o),
(25,471,o),
(25,294,cs),
(25,117,o),
(109,34,o),
(235,34,cs),
(306,34,o),
(363,68,o),
(385,119,c),
(395,119,l),
(395,40,ls),
(395,-10,o),
(376,-44,o),
(300,-44,cs),
(258,-44,o),
(231,-27,o),
(227,-2,c),
(43,-2,l),
(49,-107,o),
(139,-177,o),
(295,-177,cs)
);
},
{
closed = 1;
nodes = (
(255,178,o),
(220,211,o),
(220,294,cs),
(220,377,o),
(255,410,o),
(308,410,cs),
(371,410,o),
(395,363,o),
(395,314,cs),
(395,274,ls),
(395,226,o),
(371,178,o),
(308,178,cs)
);
}
);
};
layerId = "1EDCBF6C-9964-4A28-BC87-E86B534B8BE7";
shapes = (
{
closed = 1;
nodes = (
(471,-177,o),
(586,-113,o),
(586,80,cs),
(586,544,l),
(401,544,l),
(395,469,l),
(385,469,l),
(363,520,o),
(306,554,o),
(235,554,cs),
(109,554,o),
(25,471,o),
(25,294,cs),
(25,117,o),
(109,34,o),
(235,34,cs),
(306,34,o),
(363,68,o),
(385,119,c),
(395,119,l),
(395,40,ls),
(395,-10,o),
(376,-44,o),
(300,-44,cs),
(258,-44,o),
(231,-27,o),
(227,-2,c),
(43,-2,l),
(49,-107,o),
(139,-177,o),
(295,-177,cs)
);
},
{
closed = 1;
nodes = (
(255,178,o),
(220,211,o),
(220,294,cs),
(220,377,o),
(255,410,o),
(308,410,cs),
(365,410,o),
(390,371,o),
(394,327,c),
(395,263,l),
(391,218,o),
(366,178,o),
(308,178,cs)
);
}
);
width = 635;
},
{
anchors = (
{
name = bottom;
pos = (315,-200);
},
{
name = top;
pos = (315,517);
}
);
layerId = "28A8A76A-23B4-40F5-83B9-DC51E48BF161";
shapes = (
{
closed = 1;
nodes = (
(471,-177,o),
(565,-105,o),
(565,32,cs),
(565,517,l),
(528,517,l),
(528,399,l),
(523,399,l),
(486,475,o),
(409,526,o),
(301,526,cs),
(149,526,o),
(41,426,o),
(41,277,cs),
(41,128,o),
(136,28,o),
(295,28,cs),
(400,28,o),
(491,78,o),
(523,153,c),
(528,153,l),
(528,34,ls),
(528,-91,o),
(441,-143,o),
(305,-143,cs),
(194,-143,o),
(114,-103,o),
(100,-20,c),
(64,-20,l),
(75,-119,o),
(169,-177,o),
(305,-177,cs)
);
},
{
closed = 1;
nodes = (
(167,61,o),
(79,140,o),
(79,277,cs),
(79,406,o),
(167,492,o),
(302,492,cs),
(439,492,o),
(528,409,o),
(528,292,cs),
(528,245,ls),
(528,138,o),
(437,61,o),
(299,61,cs)
);
}
);
width = 630;
},
{
anchors = (
{
name = bottom;
pos = (357,-200);
},
{
name = top;
pos = (357,544);
}
);
background = {
shapes = (
{
closed = 1;
nodes = (
(492,-177,o),
(670,-127,o),
(670,95,cs),
(670,544,l),
(463,544,l),
(453,478,l),
(444,478,l),
(415,526,o),
(347,554,o),
(267,554,cs),
(122,554,o),
(22,451,o),
(22,296,cs),
(22,139,o),
(121,37,o),
(267,37,cs),
(339,37,o),
(410,62,o),
(442,116,c),
(450,116,l),
(450,51,ls),
(450,-9,o),
(403,-35,o),
(330,-35,cs),
(288,-35,o),
(256,-24,o),
(249,1,c),
(39,1,l),
(46,-102,o),
(144,-177,o),
(323,-177,cs)
);
},
{
closed = 1;
nodes = (
(285,196,o),
(244,234,o),
(244,296,cs),
(244,359,o),
(285,398,o),
(349,398,cs),
(411,398,o),
(450,359,o),
(450,304,cs),
(450,291,ls),
(450,235,o),
(411,196,o),
(348,196,cs)
);
}
);
};
layerId = "D2144554-01B8-4B9B-B16A-E0E5B5794DFC";
shapes = (
{
closed = 1;
nodes = (
(563,-177,o),
(670,-86,o),
(670,75,cs),
(670,544,l),
(463,544,l),
(453,478,l),
(444,478,l),
(415,526,o),
(346,554,o),
(269,554,cs),
(121,554,o),
(22,451,o),
(22,295,cs),
(22,139,o),
(121,37,o),
(267,37,cs),
(339,37,o),
(410,62,o),
(442,116,c),
(450,116,l),
(450,45,ls),
(450,-14,o),
(405,-35,o),
(338,-35,cs),
(285,-35,o),
(256,-22,o),
(249,1,c),
(39,1,l),
(49,-106,o),
(145,-177,o),
(335,-177,cs)
);
},
{
closed = 1;
nodes = (
(285,196,o),
(244,234,o),
(244,296,cs),
(244,359,o),
(285,398,o),
(349,398,cs),
(411,398,o),
(450,359,o),
(450,304,cs),
(450,291,ls),
(450,235,o),
(411,196,o),
(348,196,cs)
);
}
);
width = 713;
}
);
metricLeft = c;
metricRight = n;
unicode = 103;
},
{
glyphname = h;
kernLeft = b;
kernRight = h;
lastChange = "2022-12-13 14:31:45 +0000";
layers = (
{
anchors = (
{
name = bottom;
pos = (239,0);
},
{
name = center;
pos = (239,400);
},
{
name = top;
pos = (239,800);
}
);
background = {
shapes = (
{
closed = 1;
nodes = (
(264,0,l),
(264,291,ls),
(264,355,o),
(296,400,o),
(360,400,cs),
(414,400,o),
(444,369,o),
(444,302,cs),
(444,0,l),
(636,0,l),
(636,322,ls),
(636,458,o),
(584,554,o),
(450,554,cs),
(370,554,o),
(307,519,o),
(274,447,c),
(264,447,l),
(264,750,l),
(73,750,l),
(73,0,l)
);
}
);
};
layerId = "E787E54A-EE3E-475A-BF02-8501A6DA5144";
shapes = (
{
closed = 1;
nodes = (
(204,0,l),
(204,328,ls),
(204,381,o),
(211,411,o),
(241,411,cs),
(263,411,o),
(275,396,o),
(275,335,cs),
(275,0,l),
(451,0,l),
(451,347,ls),
(451,494,o),
(411,551,o),
(320,551,cs),
(272,551,o),
(233,526,o),
(210,477,c),
(204,477,l),
(204,729,l),
(27,729,l),
(27,0,l)
);
}
);
width = 478;
},
{
anchors = (
{
name = bottom;
pos = (179,0);
},
{
name = center;
pos = (179,400);
},
{
name = top;
pos = (179,800);
}
);
background = {
shapes = (
{
closed = 1;
nodes = (
(156,0,l),
(156,342,ls),
(156,434,o),
(188,495,o),
(242,495,cs),
(279,495,o),
(303,469,o),
(303,367,cs),
(303,0,l),
(339,0,l),
(339,367,ls),
(339,468,o),
(317,527,o),
(250,527,cs),
(208,527,o),
(177,503,o),
(159,441,c),
(156,441,l),
(156,719,l),
(120,719,l),
(120,0,l)
);
}
);
};
layerId = "5713303B-ED49-44A7-8230-B5CAE56DEB7E";
shapes = (
{
closed = 1;
nodes = (
(89,0,l),
(89,307,ls),
(89,421,o),
(116,500,o),
(189,500,cs),
(240,500,o),
(268,474,o),
(268,371,cs),
(268,0,l),
(297,0,l),
(297,378,ls),
(297,478,o),
(265,526,o),
(198,526,cs),
(147,526,o),
(107,497,o),
(91,439,c),
(89,439,l),
(89,729,l),
(60,729,l),
(60,0,l)
);
}
);
width = 357;
},
{
anchors = (
{
name = bottom;
pos = (293,0);
},
{
name = center;
pos = (293,400);
},
{
name = top;
pos = (293,800);
}
);
layerId = master01;
shapes = (
{
closed = 1;
nodes = (
(121,0,l),
(121,274,ls),
(121,401,o),
(198,491,o),
(313,491,cs),
(418,491,o),
(469,430,o),
(469,294,cs),
(469,0,l),
(506,0,l),
(506,300,ls),
(506,462,o),
(427,525,o),
(318,525,cs),
(235,525,o),
(160,482,o),
(125,400,c),
(121,400,l),
(121,729,l),
(85,729,l),
(85,0,l)
);
}
);
userData = {
com.schriftgestaltung.Glyphs.glyph.leftMetricsKey = n;
com.schriftgestaltung.Glyphs.glyph.rightMetricsKey = n;
com.schriftgestaltung.hints = (
{
horizontal = 1;
options = 0;
place = (
0,
21
);
stem = -2;
target = (
u,
p
);
type = BottomGhost;
},
{
horizontal = 1;
options = 0;
place = (
0,
0
);
stem = -2;
type = Stem;
},
{
horizontal = 1;
options = 0;
place = (
0,
-20
);
stem = -2;
target = (
d,
o,
w,
n
);
type = TopGhost;
},
{
horizontal = 0;
options = 0;
place = (
0,
0
);
stem = -2;
type = Stem;
},
{
horizontal = 0;
options = 0;
place = (
0,
0
);
stem = -2;
type = Stem;
}
);
};
width = 586;
},
{
anchors = (
{
name = bottom;
pos = (327,0);
},
{
name = center;
pos = (327,400);
},
{
name = top;
pos = (327,800);
}
);
background = {
shapes = (
{
closed = 1;
nodes = (
(245,0,l),
(245,291,ls),
(245,355,o),
(277,400,o),
(341,400,cs),
(395,400,o),
(425,369,o),
(425,302,cs),
(425,0,l),
(617,0,l),
(617,322,ls),
(617,458,o),
(565,554,o),
(431,554,cs),
(351,554,o),
(288,519,o),
(255,447,c),
(245,447,l),
(245,750,l),
(54,750,l),
(54,0,l)
);
}
);
};
layerId = "1EDCBF6C-9964-4A28-BC87-E86B534B8BE7";
shapes = (
{
closed = 1;
nodes = (
(245,0,l),
(245,308,ls),
(245,352,o),
(274,400,o),
(334,400,cs),
(391,400,o),
(413,363,o),
(413,291,cs),
(413,0,l),
(604,0,l),
(604,333,ls),
(604,494,o),
(521,554,o),
(414,554,cs),
(342,554,o),
(279,521,o),
(253,455,c),
(245,455,l),
(245,729,l),
(54,729,l),
(54,0,l)
);
}
);
userData = {
com.schriftgestaltung.Glyphs.glyph.leftMetricsKey = n;
com.schriftgestaltung.Glyphs.glyph.rightMetricsKey = n;
};
width = 653;
},
{
anchors = (
{
name = bottom;
pos = (319,0);
},
{
name = center;
pos = (319,400);
},
{
name = top;
pos = (319,800);
}
);
layerId = "28A8A76A-23B4-40F5-83B9-DC51E48BF161";
shapes = (
{
closed = 1;
nodes = (
(103,0,l),
(103,256,ls),
(103,397,o),
(201,491,o),
(341,491,cs),
(466,491,o),
(535,430,o),
(535,277,cs),
(535,0,l),
(572,0,l),
(572,283,ls),
(572,462,o),
(477,525,o),
(345,525,cs),
(242,525,o),
(150,476,o),
(108,387,c),
(103,387,l),
(103,729,l),
(66,729,l),
(66,0,l)
);
}
);
width = 637;
},
{
anchors = (
{
name = bottom;
pos = (367,0);
},
{
name = center;
pos = (367,400);
},
{
name = top;
pos = (367,800);
}
);
layerId = "D2144554-01B8-4B9B-B16A-E0E5B5794DFC";
shapes = (
{
closed = 1;
nodes = (
(264,0,l),
(264,271,ls),
(264,338,o),
(305,388,o),
(376,388,cs),
(452,388,o),
(470,336,o),
(470,260,cs),
(470,0,l),
(691,0,l),
(691,299,ls),
(691,491,o),
(596,554,o),
(456,554,cs),
(379,554,o),
(305,518,o),
(274,464,c),
(264,464,l),
(264,729,l),
(43,729,l),
(43,0,l)
);
}
);
width = 734;
}
);
metricLeft = n;
metricRight = n;
unicode = 104;
},
{
glyphname = idotless;
lastChange = "2022-12-13 14:31:45 +0000";
layers = (
{
anchors = (
{
name = bottom;
pos = (75,0);
},
{
name = ogonek;
pos = (134,10);
},
{
name = top;
pos = (75,516);
}
);
layerId = "5713303B-ED49-44A7-8230-B5CAE56DEB7E";
shapes = (
{
closed = 1;
nodes = (
(89,0,l),
(89,516,l),
(60,516,l),
(60,0,l)
);
}
);
width = 149;
},
{
anchors = (
{
name = bottom;
pos = (117,0);
},
{
name = ogonek;
pos = (210,10);
},
{
name = top;
pos = (117,541);
}
);
layerId = "E787E54A-EE3E-475A-BF02-8501A6DA5144";
shapes = (
{
closed = 1;
nodes = (
(205,0,l),
(205,541,l),
(28,541,l),
(28,0,l)
);
}
);
width = 233;
},
{
anchors = (
{
name = bottom;
pos = (104,0);
},
{
name = ogonek;
pos = (186,10);
},
{
name = top;
pos = (104,517);
}
);
layerId = master01;
shapes = (
{
closed = 1;
nodes = (
(122,0,l),
(122,517,l),
(85,517,l),
(85,0,l)
);
}
);
width = 207;
},
{
anchors = (
{
name = bottom;
pos = (150,0);
},
{
name = ogonek;
pos = (269,10);
},
{
name = top;
pos = (150,544);
}
);
layerId = "1EDCBF6C-9964-4A28-BC87-E86B534B8BE7";
shapes = (
{
closed = 1;
nodes = (
(245,0,l),
(245,544,l),
(54,544,l),
(54,0,l)
);
}
);
width = 299;
},
{
anchors = (
{
name = bottom;
pos = (84,0);
},
{
name = ogonek;
pos = (151,10);
},
{
name = top;
pos = (84,517);
}
);
layerId = "28A8A76A-23B4-40F5-83B9-DC51E48BF161";
shapes = (
{
closed = 1;
nodes = (
(103,0,l),
(103,517,l),
(66,517,l),
(66,0,l)
);
}
);
width = 168;
},
{
anchors = (
{
name = bottom;
pos = (154,0);
},
{
name = ogonek;
pos = (277,10);
},
{
name = top;
pos = (154,544);
}
);
layerId = "D2144554-01B8-4B9B-B16A-E0E5B5794DFC";
shapes = (
{
closed = 1;
nodes = (
(264,0,l),
(264,544,l),
(43,544,l),
(43,0,l)
);
}
);
width = 308;
}
);
unicode = 305;
},
{
glyphname = jdotless;
kernLeft = j;
kernRight = l;
lastChange = "2022-12-13 14:31:45 +0000";
layers = (
{
anchors = (
{
name = bottom;
pos = (113,-200);
},
{
name = top;
pos = (113,541);
}
);
layerId = "E787E54A-EE3E-475A-BF02-8501A6DA5144";
shapes = (
{
closed = 1;
nodes = (
(52,-177,ls),
(168,-177,o),
(205,-118,o),
(205,-12,cs),
(205,541,l),
(28,541,l),
(28,-11,ls),
(28,-38,o),
(21,-50,o),
(-5,-50,cs),
(-30,-50,l),
(-30,-177,l)
);
}
);
width = 226;
},
{
anchors = (
{
name = bottom;
pos = (73,-200);
},
{
name = top;
pos = (73,516);
}
);
layerId = "5713303B-ED49-44A7-8230-B5CAE56DEB7E";
shapes = (
{
closed = 1;
nodes = (
(25,-177,ls),
(74,-177,o),
(89,-148,o),
(89,-104,cs),
(89,516,l),
(60,516,l),
(60,-99,ls),
(60,-138,o),
(49,-150,o),
(20,-150,cs),
(3,-150,l),
(3,-177,l)
);
}
);
width = 145;
},
{
anchors = (
{
name = bottom;
pos = (101,-200);
},
{
name = top;
pos = (101,517);
}
);
layerId = master01;
shapes = (
{
closed = 1;
nodes = (
(26,-177,ls),
(87,-177,o),
(116,-138,o),
(116,-80,cs),
(116,517,l),
(79,517,l),
(79,-70,ls),
(79,-123,o),
(61,-143,o),
(15,-143,cs),
(-31,-143,l),
(-31,-177,l)
);
}
);
userData = {
com.schriftgestaltung.Glyphs.glyph.leftMetricsKey = j;
com.schriftgestaltung.Glyphs.glyph.rightMetricsKey = j;
com.schriftgestaltung.hints = (
{
horizontal = 1;
options = 0;
origin = (
0,
8
);
stem = -2;
target = (
0,
15
);
type = Stem;
},
{
horizontal = 1;
options = 0;
origin = (
0,
4
);
stem = -2;
target = (
d,
o,
w,
n
);
type = TopGhost;
},
{
horizontal = 1;
options = 0;
origin = (
0,
12
);
stem = -2;
target = (
d,
o,
w,
n
);
type = TopGhost;
},
{
horizontal = 0;
options = 0;
origin = (
0,
5
);
stem = -2;
target = (
0,
2
);
type = Stem;
}
);
};
width = 201;
},
{
anchors = (
{
name = bottom;
pos = (141,-200);
},
{
name = top;
pos = (141,544);
}
);
layerId = "1EDCBF6C-9964-4A28-BC87-E86B534B8BE7";
shapes = (
{
closed = 1;
nodes = (
(43,-175,ls),
(178,-175,o),
(228,-105,o),
(228,17,cs),
(228,544,l),
(37,544,l),
(37,13,ls),
(37,-27,o),
(22,-42,o),
(-14,-42,cs),
(-53,-42,l),
(-53,-175,l)
);
}
);
userData = {
com.schriftgestaltung.Glyphs.glyph.leftMetricsKey = j;
com.schriftgestaltung.Glyphs.glyph.rightMetricsKey = j;
};
width = 282;
},
{
anchors = (
{
name = bottom;
pos = (86,-200);
},
{
name = top;
pos = (86,517);
}
);
layerId = "28A8A76A-23B4-40F5-83B9-DC51E48BF161";
shapes = (
{
closed = 1;
nodes = (
(-21,-167,ls),
(44,-167,o),
(106,-140,o),
(106,-43,cs),
(106,517,l),
(69,517,l),
(69,-35,ls),
(69,-107,o),
(39,-133,o),
(-25,-133,cs),
(-71,-133,l),
(-71,-167,l)
);
}
);
width = 171;
},
{
anchors = (
{
name = bottom;
pos = (154,-200);
},
{
name = top;
pos = (154,544);
}
);
layerId = "D2144554-01B8-4B9B-B16A-E0E5B5794DFC";
shapes = (
{
closed = 1;
nodes = (
(67,-167,ls),
(201,-167,o),
(264,-104,o),
(264,29,cs),
(264,544,l),
(43,544,l),
(43,54,ls),
(43,9,o),
(29,-6,o),
(-7,-6,cs),
(-44,-6,l),
(-44,-167,l)
);
}
);
width = 308;
}
);
unicode = 567;
},
{
glyphname = k;
kernLeft = b;
kernRight = k;
lastChange = "2022-12-13 14:31:45 +0000";
layers = (
{
anchors = (
{
name = bottom;
pos = (232,0);
},
{
name = top;
pos = (232,800);
}
);
layerId = "E787E54A-EE3E-475A-BF02-8501A6DA5144";
shapes = (
{
closed = 1;
nodes = (
(205,0,l),
(205,120,l),
(229,194,l),
(244,127,l),
(272,0,l),
(458,0,l),
(361,316,l),
(459,541,l),
(270,541,l),
(228,410,l),
(205,326,l),
(205,729,l),
(28,729,l),
(28,0,l)
);
}
);
width = 463;
},
{
anchors = (
{
name = bottom;
pos = (141,0);
},
{
name = top;
pos = (141,800);
}
);
layerId = "5713303B-ED49-44A7-8230-B5CAE56DEB7E";
shapes = (
{
closed = 1;
nodes = (
(89,0,l),
(89,170,l),
(147,286,l),
(163,231,l),
(237,0,l),
(268,0,l),
(161,315,l),
(264,516,l),
(232,516,l),
(127,303,l),
(89,223,l),
(89,729,l),
(60,729,l),
(60,0,l)
);
}
);
width = 282;
},
{
anchors = (
{
name = bottom;
pos = (262,0);
},
{
name = top;
pos = (262,800);
}
);
layerId = master01;
shapes = (
{
closed = 1;
nodes = (
(122,0,l),
(122,175,l),
(245,294,l),
(277,244,l),
(443,0,l),
(486,0,l),
(271,320,l),
(474,517,l),
(425,517,l),
(171,269,l),
(122,220,l),
(122,729,l),
(85,729,l),
(85,0,l)
);
}
);
userData = {
com.schriftgestaltung.Glyphs.glyph.leftMetricsKey = l;
com.schriftgestaltung.hints = (
{
horizontal = 1;
options = 0;
origin = (
0,
11
);
stem = -2;
target = (
u,
p
);
type = BottomGhost;
},
{
horizontal = 1;
options = 0;
origin = (
0,
7
);
stem = -2;
target = (
d,
o,
w,
n
);
type = TopGhost;
},
{
horizontal = 1;
options = 0;
origin = (
0,
10
);
stem = -2;
target = (
d,
o,
w,
n
);
type = TopGhost;
},
{
horizontal = 0;
options = 0;
origin = (
0,
11
);
stem = -2;
target = (
0,
0
);
type = Stem;
}
);
};
width = 523;
},
{
anchors = (
{
name = bottom;
pos = (333,0);
},
{
name = top;
pos = (333,800);
}
);
layerId = "1EDCBF6C-9964-4A28-BC87-E86B534B8BE7";
shapes = (
{
closed = 1;
nodes = (
(248,0,l),
(248,144,l),
(303,199,l),
(335,141,l),
(421,0,l),
(646,0,l),
(437,326,l),
(645,544,l),
(411,544,l),
(290,403,l),
(248,351,l),
(248,729,l),
(54,729,l),
(54,0,l)
);
}
);
userData = {
com.schriftgestaltung.Glyphs.glyph.leftMetricsKey = l;
};
width = 666;
},
{
anchors = (
{
name = bottom;
pos = (282,0);
},
{
name = top;
pos = (282,800);
}
);
layerId = "28A8A76A-23B4-40F5-83B9-DC51E48BF161";
shapes = (
{
closed = 1;
nodes = (
(103,0,l),
(103,182,l),
(257,299,l),
(301,244,l),
(505,0,l),
(552,0,l),
(283,320,l),
(536,517,l),
(481,517,l),
(173,277,l),
(103,221,l),
(103,729,l),
(66,729,l),
(66,0,l)
);
}
);
width = 563;
},
{
anchors = (
{
name = bottom;
pos = (371,0);
},
{
name = top;
pos = (371,800);
}
);
layerId = "D2144554-01B8-4B9B-B16A-E0E5B5794DFC";
shapes = (
{
closed = 1;
nodes = (
(264,0,l),
(264,142,l),
(324,196,l),
(355,150,l),
(467,0,l),
(741,0,l),
(484,326,l),
(737,544,l),
(462,544,l),
(329,423,l),
(264,360,l),
(264,729,l),
(43,729,l),
(43,0,l)
);
}
);
width = 741;
}
);
metricLeft = l;
unicode = 107;
},
{
glyphname = l;
kernLeft = b;
kernRight = d;
lastChange = "2022-12-13 14:31:45 +0000";
layers = (
{
anchors = (
{
name = bottom;
pos = (117,0);
},
{
name = center;
pos = (117,400);
},
{
name = top;
pos = (117,800);
},
{
name = topright;
pos = (213,800);
}
);
layerId = "E787E54A-EE3E-475A-BF02-8501A6DA5144";
shapes = (
{
closed = 1;
nodes = (
(205,0,l),
(205,729,l),
(28,729,l),
(28,0,l)
);
}
);
width = 233;
},
{
anchors = (
{
name = bottom;
pos = (75,0);
},
{
name = center;
pos = (75,400);
},
{
name = top;
pos = (75,800);
},
{
name = topright;
pos = (129,800);
}
);
layerId = "5713303B-ED49-44A7-8230-B5CAE56DEB7E";
shapes = (
{
closed = 1;
nodes = (
(89,0,l),
(89,729,l),
(60,729,l),
(60,0,l)
);
}
);
width = 149;
},
{
anchors = (
{
name = bottom;
pos = (104,0);
},
{
name = center;
pos = (104,400);
},
{
name = top;
pos = (104,800);
},
{
name = topright;
pos = (187,800);
}
);
layerId = master01;
shapes = (
{
closed = 1;
nodes = (
(122,0,l),
(122,729,l),
(85,729,l),
(85,0,l)
);
}
);
userData = {
com.schriftgestaltung.hints = (
{
horizontal = 1;
options = 0;
origin = (
0,
3
);
stem = -2;
target = (
u,
p
);
type = BottomGhost;
},
{
horizontal = 1;
options = 0;
origin = (
0,
2
);
stem = -2;
target = (
d,
o,
w,
n
);
type = TopGhost;
},
{
horizontal = 0;
options = 0;
origin = (
0,
3
);
stem = -2;
target = (
0,
0
);
type = Stem;
}
);
};
width = 207;
},
{
anchors = (
{
name = bottom;
pos = (150,0);
},
{
name = center;
pos = (150,400);
},
{
name = top;
pos = (150,800);
},
{
name = topright;
pos = (279,800);
}
);
layerId = "1EDCBF6C-9964-4A28-BC87-E86B534B8BE7";
shapes = (
{
closed = 1;
nodes = (
(245,0,l),
(245,729,l),
(54,729,l),
(54,0,l)
);
}
);
width = 299;
},
{
anchors = (
{
name = bottom;
pos = (84,0);
},
{
name = center;
pos = (84,400);
},
{
name = top;
pos = (84,800);
},
{
name = topright;
pos = (148,800);
}
);
layerId = "28A8A76A-23B4-40F5-83B9-DC51E48BF161";
shapes = (
{
closed = 1;
nodes = (
(103,0,l),
(103,729,l),
(66,729,l),
(66,0,l)
);
}
);
width = 168;
},
{
anchors = (
{
name = bottom;
pos = (154,0);
},
{
name = center;
pos = (154,400);
},
{
name = top;
pos = (154,800);
},
{
name = topright;
pos = (288,800);
}
);
layerId = "D2144554-01B8-4B9B-B16A-E0E5B5794DFC";
shapes = (
{
closed = 1;
nodes = (
(264,0,l),
(264,729,l),
(43,729,l),
(43,0,l)
);
}
);
width = 308;
}
);
unicode = 108;
},
